<?xml version="1.0"?>
<svg width="950" height="550" xmlns="http://www.w3.org/2000/svg" xmlns:svg="http://www.w3.org/2000/svg">

 <g class="layer">
  <title>Layer 1</title>
  <rect fill="#f3f3f3" fill-opacity="null" height="779" id="svg_282" stroke="null" stroke-dasharray="null" stroke-linecap="null" stroke-linejoin="null" stroke-opacity="null" width="1238" x="-144.63" y="-38.41"/>
  <clipPath id="id_0">
   <path clip-rule="nonzero" d="m257.55,152.92l500.9,0l0,248.53l-500.9,0l0,-248.53z" id="svg_62"/>
  </clipPath>
  <g id="svg_279">
   <path d="m450.5,152.5l0,249" fill-rule="nonzero" id="svg_2" stroke="#c0c0c0" stroke-width="1"/>
   <path d="m177,101l600,0l0,371l-600,0l0,-371z" fill="#f3f3f3" fill-rule="nonzero" id="svg_3"/>
   <path d="m264.5,152.5l0,249" fill-rule="nonzero" id="svg_4" stroke="#c0c0c0" stroke-width="1"/>
   <path d="m326.5,152.5l0,249" fill-rule="nonzero" id="svg_5" stroke="#c0c0c0" stroke-width="1"/>
   <path d="m388.5,152.5l0,249" fill-rule="nonzero" id="svg_6" stroke="#c0c0c0" stroke-width="1"/>
   <path d="m513.5,152.5l0,249" fill-rule="nonzero" id="svg_7" stroke="#c0c0c0" stroke-width="1"/>
   <path d="m575.5,152.5l0,249" fill-rule="nonzero" id="svg_8" stroke="#c0c0c0" stroke-width="1"/>
   <path d="m637.5,152.5l0,249" fill-rule="nonzero" id="svg_9" stroke="#c0c0c0" stroke-width="1"/>
   <path d="m699.5,152.5l0,249" fill-rule="nonzero" id="svg_10" stroke="#c0c0c0" stroke-width="1"/>
   <path d="m317.5,152.5l0,249" fill-rule="nonzero" id="svg_11" stroke="#000000" stroke-opacity="0" stroke-width="1"/>
   <path d="m308.5,152.5l0,249" fill-rule="nonzero" id="svg_12" stroke="#000000" stroke-opacity="0" stroke-width="1"/>
   <path d="m299.5,152.5l0,249" fill-rule="nonzero" id="svg_13" stroke="#000000" stroke-opacity="0" stroke-width="1"/>
   <path d="m290.5,152.5l0,249" fill-rule="nonzero" id="svg_14" stroke="#000000" stroke-opacity="0" stroke-width="1"/>
   <path d="m281.5,152.5l0,249" fill-rule="nonzero" id="svg_15" stroke="#000000" stroke-opacity="0" stroke-width="1"/>
   <path d="m273.5,152.5l0,249" fill-rule="nonzero" id="svg_16" stroke="#000000" stroke-opacity="0" stroke-width="1"/>
   <path d="m379.5,152.5l0,249" fill-rule="nonzero" id="svg_17" stroke="#000000" stroke-opacity="0" stroke-width="1"/>
   <path d="m370.5,152.5l0,249" fill-rule="nonzero" id="svg_18" stroke="#000000" stroke-opacity="0" stroke-width="1"/>
   <path d="m361.5,152.5l0,249" fill-rule="nonzero" id="svg_19" stroke="#000000" stroke-opacity="0" stroke-width="1"/>
   <path d="m352.5,152.5l0,249" fill-rule="nonzero" id="svg_20" stroke="#000000" stroke-opacity="0" stroke-width="1"/>
   <path d="m343.5,152.5l0,249" fill-rule="nonzero" id="svg_21" stroke="#000000" stroke-opacity="0" stroke-width="1"/>
   <path d="m334.5,152.5l0,249" fill-rule="nonzero" id="svg_22" stroke="#000000" stroke-opacity="0" stroke-width="1"/>
   <path d="m441.5,152.5l0,249" fill-rule="nonzero" id="svg_23" stroke="#000000" stroke-opacity="0" stroke-width="1"/>
   <path d="m433.5,152.5l0,249" fill-rule="nonzero" id="svg_24" stroke="#000000" stroke-opacity="0" stroke-width="1"/>
   <path d="m424.5,152.5l0,249" fill-rule="nonzero" id="svg_25" stroke="#000000" stroke-opacity="0" stroke-width="1"/>
   <path d="m415.5,152.5l0,249" fill-rule="nonzero" id="svg_26" stroke="#000000" stroke-opacity="0" stroke-width="1"/>
   <path d="m406.5,152.5l0,249" fill-rule="nonzero" id="svg_27" stroke="#000000" stroke-opacity="0" stroke-width="1"/>
   <path d="m397.5,152.5l0,249" fill-rule="nonzero" id="svg_28" stroke="#000000" stroke-opacity="0" stroke-width="1"/>
   <path d="m504.5,152.5l0,249" fill-rule="nonzero" id="svg_29" stroke="#000000" stroke-opacity="0" stroke-width="1"/>
   <path d="m495.5,152.5l0,249" fill-rule="nonzero" id="svg_30" stroke="#000000" stroke-opacity="0" stroke-width="1"/>
   <path d="m486.5,152.5l0,249" fill-rule="nonzero" id="svg_31" stroke="#000000" stroke-opacity="0" stroke-width="1"/>
   <path d="m477.5,152.5l0,249" fill-rule="nonzero" id="svg_32" stroke="#000000" stroke-opacity="0" stroke-width="1"/>
   <path d="m468.5,152.5l0,249" fill-rule="nonzero" id="svg_33" stroke="#000000" stroke-opacity="0" stroke-width="1"/>
   <path d="m459.5,152.5l0,249" fill-rule="nonzero" id="svg_34" stroke="#000000" stroke-opacity="0" stroke-width="1"/>
   <path d="m557.5,152.5l0,249" fill-rule="nonzero" id="svg_35" stroke="#000000" stroke-opacity="0" stroke-width="1"/>
   <path d="m548.5,152.5l0,249" fill-rule="nonzero" id="svg_36" stroke="#000000" stroke-opacity="0" stroke-width="1"/>
   <path d="m539.5,152.5l0,249" fill-rule="nonzero" id="svg_37" stroke="#000000" stroke-opacity="0" stroke-width="1"/>
   <path d="m531.5,152.5l0,249" fill-rule="nonzero" id="svg_38" stroke="#000000" stroke-opacity="0" stroke-width="1"/>
   <path d="m628.5,152.5l0,249" fill-rule="nonzero" id="svg_39" stroke="#000000" stroke-opacity="0" stroke-width="1"/>
   <path d="m619.5,152.5l0,249" fill-rule="nonzero" id="svg_40" stroke="#000000" stroke-opacity="0" stroke-width="1"/>
   <path d="m610.5,152.5l0,249" fill-rule="nonzero" id="svg_41" stroke="#000000" stroke-opacity="0" stroke-width="1"/>
   <path d="m601.5,152.5l0,249" fill-rule="nonzero" id="svg_42" stroke="#000000" stroke-opacity="0" stroke-width="1"/>
   <path d="m593.5,152.5l0,249" fill-rule="nonzero" id="svg_43" stroke="#000000" stroke-opacity="0" stroke-width="1"/>
   <path d="m584.5,152.5l0,249" fill-rule="nonzero" id="svg_44" stroke="#000000" stroke-opacity="0" stroke-width="1"/>
   <path d="m690.5,152.5l0,249" fill-rule="nonzero" id="svg_45" stroke="#000000" stroke-opacity="0" stroke-width="1"/>
   <path d="m681.5,152.5l0,249" fill-rule="nonzero" id="svg_46" stroke="#000000" stroke-opacity="0" stroke-width="1"/>
   <path d="m673.5,152.5l0,249" fill-rule="nonzero" id="svg_47" stroke="#000000" stroke-opacity="0" stroke-width="1"/>
   <path d="m664.5,152.5l0,249" fill-rule="nonzero" id="svg_48" stroke="#000000" stroke-opacity="0" stroke-width="1"/>
   <path d="m655.5,152.5l0,249" fill-rule="nonzero" id="svg_49" stroke="#000000" stroke-opacity="0" stroke-width="1"/>
   <path d="m646.5,152.5l0,249" fill-rule="nonzero" id="svg_50" stroke="#000000" stroke-opacity="0" stroke-width="1"/>
   <path d="m752.5,152.5l0,249" fill-rule="nonzero" id="svg_51" stroke="#000000" stroke-opacity="0" stroke-width="1"/>
   <path d="m743.5,152.5l0,249" fill-rule="nonzero" id="svg_52" stroke="#000000" stroke-opacity="0" stroke-width="1"/>
   <path d="m734.5,152.5l0,249" fill-rule="nonzero" id="svg_53" stroke="#000000" stroke-opacity="0" stroke-width="1"/>
   <path d="m725.5,152.5l0,249" fill-rule="nonzero" id="svg_54" stroke="#000000" stroke-opacity="0" stroke-width="1"/>
   <path d="m717.5,152.5l0,249" fill-rule="nonzero" id="svg_55" stroke="#000000" stroke-opacity="0" stroke-width="1"/>
   <path d="m708.5,152.5l0,249" fill-rule="nonzero" id="svg_56" stroke="#000000" stroke-opacity="0" stroke-width="1"/>
   <path d="m257.5,401.5l501,0" fill-rule="nonzero" id="svg_57" stroke="#272727" stroke-width="1"/>
   <path d="m257.5,339.5l501,0" fill-rule="nonzero" id="svg_58" stroke="#c0c0c0" stroke-width="1"/>
   <path d="m257.5,277.5l501,0" fill-rule="nonzero" id="svg_59" stroke="#c0c0c0" stroke-width="1"/>
   <path d="m257.5,215.5l501,0" fill-rule="nonzero" id="svg_60" stroke="#c0c0c0" stroke-width="1"/>
   <path d="m257.5,152.5l501,0" fill-rule="nonzero" id="svg_61" stroke="#c0c0c0" stroke-width="1"/>
   <path clip-path="url(#id_0)" d="m268.86,399.59c0,2.48 -2.02,4.5 -4.5,4.5c-2.49,0 -4.5,-2.02 -4.5,-4.5c0,-2.49 2.01,-4.5 4.5,-4.5c2.48,0 4.5,2.01 4.5,4.5z" fill="#4285f4" fill-rule="nonzero" id="svg_63"/>
   <path clip-path="url(#id_0)" d="m279.42,400.83c0,2.48 -2.01,4.5 -4.5,4.5c-2.48,0 -4.5,-2.02 -4.5,-4.5c0,-2.49 2.02,-4.5 4.5,-4.5c2.49,0 4.5,2.01 4.5,4.5z" fill="#4285f4" fill-rule="nonzero" id="svg_64"/>
   <path clip-path="url(#id_0)" d="m288.96,397.1c0,2.49 -2.01,4.5 -4.5,4.5c-2.48,0 -4.5,-2.01 -4.5,-4.5c0,-2.48 2.02,-4.5 4.5,-4.5c2.49,0 4.5,2.02 4.5,4.5z" fill="#4285f4" fill-rule="nonzero" id="svg_65"/>
   <path clip-path="url(#id_0)" d="m299.53,395.24c0,2.48 -2.02,4.5 -4.5,4.5c-2.49,0 -4.5,-2.02 -4.5,-4.5c0,-2.49 2.01,-4.5 4.5,-4.5c2.48,0 4.5,2.01 4.5,4.5z" fill="#4285f4" fill-rule="nonzero" id="svg_66"/>
   <path clip-path="url(#id_0)" d="m309.75,395.24c0,2.48 -2.01,4.5 -4.5,4.5c-2.48,0 -4.5,-2.02 -4.5,-4.5c0,-2.49 2.02,-4.5 4.5,-4.5c2.49,0 4.5,2.01 4.5,4.5z" fill="#4285f4" fill-rule="nonzero" id="svg_67"/>
   <path clip-path="url(#id_0)" d="m320.31,400.83c0,2.48 -2.01,4.5 -4.5,4.5c-2.48,0 -4.5,-2.02 -4.5,-4.5c0,-2.49 2.02,-4.5 4.5,-4.5c2.49,0 4.5,2.01 4.5,4.5z" fill="#4285f4" fill-rule="nonzero" id="svg_68"/>
   <path clip-path="url(#id_0)" d="m330.54,397.72c0,2.49 -2.02,4.5 -4.5,4.5c-2.49,0 -4.5,-2.01 -4.5,-4.5c0,-2.48 2.01,-4.5 4.5,-4.5c2.48,0 4.5,2.02 4.5,4.5z" fill="#4285f4" fill-rule="nonzero" id="svg_69"/>
   <path clip-path="url(#id_0)" d="m341.1,400.21c0,2.48 -2.01,4.5 -4.5,4.5c-2.49,0 -4.5,-2.02 -4.5,-4.5c0,-2.49 2.01,-4.5 4.5,-4.5c2.49,0 4.5,2.01 4.5,4.5z" fill="#4285f4" fill-rule="nonzero" id="svg_70"/>
   <path clip-path="url(#id_0)" d="m351.66,398.96c0,2.49 -2.01,4.5 -4.5,4.5c-2.48,0 -4.5,-2.01 -4.5,-4.5c0,-2.48 2.02,-4.5 4.5,-4.5c2.49,0 4.5,2.02 4.5,4.5z" fill="#4285f4" fill-rule="nonzero" id="svg_71"/>
   <path clip-path="url(#id_0)" d="m361.89,395.24c0,2.48 -2.02,4.5 -4.5,4.5c-2.49,0 -4.5,-2.02 -4.5,-4.5c0,-2.49 2.01,-4.5 4.5,-4.5c2.48,0 4.5,2.01 4.5,4.5z" fill="#4285f4" fill-rule="nonzero" id="svg_72"/>
   <path clip-path="url(#id_0)" d="m372.45,399.59c0,2.48 -2.02,4.5 -4.5,4.5c-2.49,0 -4.5,-2.02 -4.5,-4.5c0,-2.49 2.01,-4.5 4.5,-4.5c2.48,0 4.5,2.01 4.5,4.5z" fill="#4285f4" fill-rule="nonzero" id="svg_73"/>
   <path clip-path="url(#id_0)" d="m382.67,400.83c0,2.48 -2.01,4.5 -4.5,4.5c-2.48,0 -4.5,-2.02 -4.5,-4.5c0,-2.49 2.02,-4.5 4.5,-4.5c2.49,0 4.5,2.01 4.5,4.5z" fill="#4285f4" fill-rule="nonzero" id="svg_74"/>
   <path clip-path="url(#id_0)" d="m393.24,399.59c0,2.48 -2.02,4.5 -4.5,4.5c-2.49,0 -4.5,-2.02 -4.5,-4.5c0,-2.49 2.01,-4.5 4.5,-4.5c2.48,0 4.5,2.01 4.5,4.5z" fill="#4285f4" fill-rule="nonzero" id="svg_75"/>
   <path clip-path="url(#id_0)" d="m403.8,399.59c0,2.48 -2.02,4.5 -4.5,4.5c-2.49,0 -4.5,-2.02 -4.5,-4.5c0,-2.49 2.01,-4.5 4.5,-4.5c2.48,0 4.5,2.01 4.5,4.5z" fill="#4285f4" fill-rule="nonzero" id="svg_76"/>
   <path clip-path="url(#id_0)" d="m413.68,398.96c0,2.49 -2.01,4.5 -4.5,4.5c-2.48,0 -4.5,-2.01 -4.5,-4.5c0,-2.48 2.02,-4.5 4.5,-4.5c2.49,0 4.5,2.02 4.5,4.5z" fill="#4285f4" fill-rule="nonzero" id="svg_77"/>
   <path clip-path="url(#id_0)" d="m424.24,397.72c0,2.49 -2.01,4.5 -4.5,4.5c-2.48,0 -4.5,-2.01 -4.5,-4.5c0,-2.48 2.02,-4.5 4.5,-4.5c2.49,0 4.5,2.02 4.5,4.5z" fill="#4285f4" fill-rule="nonzero" id="svg_78"/>
   <path clip-path="url(#id_0)" d="m434.47,396.48c0,2.48 -2.02,4.5 -4.5,4.5c-2.49,0 -4.5,-2.02 -4.5,-4.5c0,-2.49 2.01,-4.5 4.5,-4.5c2.48,0 4.5,2.01 4.5,4.5z" fill="#4285f4" fill-rule="nonzero" id="svg_79"/>
   <path clip-path="url(#id_0)" d="m445.03,397.1c0,2.49 -2.01,4.5 -4.5,4.5c-2.48,0 -4.5,-2.01 -4.5,-4.5c0,-2.48 2.02,-4.5 4.5,-4.5c2.49,0 4.5,2.02 4.5,4.5z" fill="#4285f4" fill-rule="nonzero" id="svg_80"/>
   <path clip-path="url(#id_0)" d="m455.25,218.74c0,2.48 -2.01,4.5 -4.5,4.5c-2.48,0 -4.5,-2.02 -4.5,-4.5c0,-2.49 2.02,-4.5 4.5,-4.5c2.49,0 4.5,2.01 4.5,4.5z" fill="#4285f4" fill-rule="nonzero" id="svg_81"/>
   <path clip-path="url(#id_0)" d="m465.82,217.94c0,2.48 -2.02,4.5 -4.5,4.5c-2.49,0 -4.5,-2.02 -4.5,-4.5c0,-2.49 2.01,-4.5 4.5,-4.5c2.48,0 4.5,2.01 4.5,4.5z" fill="#4285f4" fill-rule="nonzero" id="svg_82"/>
   <path clip-path="url(#id_0)" d="m476.38,213.89c0,2.48 -2.01,4.5 -4.5,4.5c-2.49,0 -4.5,-2.02 -4.5,-4.5c0,-2.49 2.01,-4.5 4.5,-4.5c2.49,0 4.5,2.01 4.5,4.5z" fill="#4285f4" fill-rule="nonzero" id="svg_83"/>
   <path clip-path="url(#id_0)" d="m486.6,215.07c0,2.49 -2.01,4.5 -4.5,4.5c-2.48,0 -4.5,-2.01 -4.5,-4.5c0,-2.48 2.02,-4.5 4.5,-4.5c2.49,0 4.5,2.02 4.5,4.5z" fill="#4285f4" fill-rule="nonzero" id="svg_84"/>
   <path clip-path="url(#id_0)" d="m497.17,214.04c0,2.49 -2.02,4.5 -4.5,4.5c-2.49,0 -4.5,-2.01 -4.5,-4.5c0,-2.48 2.01,-4.5 4.5,-4.5c2.48,0 4.5,2.02 4.5,4.5z" fill="#4285f4" fill-rule="nonzero" id="svg_85"/>
   <path clip-path="url(#id_0)" d="m507.39,213.17c0,2.49 -2.02,4.5 -4.5,4.5c-2.49,0 -4.5,-2.01 -4.5,-4.5c0,-2.48 2.01,-4.5 4.5,-4.5c2.48,0 4.5,2.02 4.5,4.5z" fill="#4285f4" fill-rule="nonzero" id="svg_86"/>
   <path clip-path="url(#id_0)" d="m517.95,209.42c0,2.48 -2.01,4.5 -4.5,4.5c-2.48,0 -4.5,-2.02 -4.5,-4.5c0,-2.49 2.02,-4.5 4.5,-4.5c2.49,0 4.5,2.01 4.5,4.5z" fill="#4285f4" fill-rule="nonzero" id="svg_87"/>
   <path clip-path="url(#id_0)" d="m528.52,208.56c0,2.48 -2.02,4.5 -4.5,4.5c-2.49,0 -4.5,-2.02 -4.5,-4.5c0,-2.49 2.01,-4.5 4.5,-4.5c2.48,0 4.5,2.01 4.5,4.5z" fill="#4285f4" fill-rule="nonzero" id="svg_88"/>
   <path clip-path="url(#id_0)" d="m538.06,209.09c0,2.48 -2.02,4.5 -4.5,4.5c-2.49,0 -4.5,-2.02 -4.5,-4.5c0,-2.49 2.01,-4.5 4.5,-4.5c2.48,0 4.5,2.01 4.5,4.5z" fill="#4285f4" fill-rule="nonzero" id="svg_89"/>
   <path clip-path="url(#id_0)" d="m548.62,212.67c0,2.48 -2.01,4.5 -4.5,4.5c-2.49,0 -4.5,-2.02 -4.5,-4.5c0,-2.49 2.01,-4.5 4.5,-4.5c2.49,0 4.5,2.01 4.5,4.5z" fill="#4285f4" fill-rule="nonzero" id="svg_90"/>
   <path clip-path="url(#id_0)" d="m558.84,212.82c0,2.48 -2.01,4.5 -4.5,4.5c-2.48,0 -4.5,-2.02 -4.5,-4.5c0,-2.49 2.02,-4.5 4.5,-4.5c2.49,0 4.5,2.01 4.5,4.5z" fill="#4285f4" fill-rule="nonzero" id="svg_91"/>
   <path clip-path="url(#id_0)" d="m569.41,211.16c0,2.48 -2.02,4.5 -4.5,4.5c-2.49,0 -4.5,-2.02 -4.5,-4.5c0,-2.49 2.01,-4.5 4.5,-4.5c2.48,0 4.5,2.01 4.5,4.5z" fill="#4285f4" fill-rule="nonzero" id="svg_92"/>
   <path clip-path="url(#id_0)" d="m579.63,212.89c0,2.48 -2.02,4.5 -4.5,4.5c-2.49,0 -4.5,-2.02 -4.5,-4.5c0,-2.49 2.01,-4.5 4.5,-4.5c2.48,0 4.5,2.01 4.5,4.5z" fill="#4285f4" fill-rule="nonzero" id="svg_93"/>
   <path clip-path="url(#id_0)" d="m590.19,213.03c0,2.48 -2.01,4.5 -4.5,4.5c-2.48,0 -4.5,-2.02 -4.5,-4.5c0,-2.49 2.02,-4.5 4.5,-4.5c2.49,0 4.5,2.01 4.5,4.5z" fill="#4285f4" fill-rule="nonzero" id="svg_94"/>
   <path clip-path="url(#id_0)" d="m600.76,208.83c0,2.48 -2.02,4.5 -4.5,4.5c-2.49,0 -4.5,-2.02 -4.5,-4.5c0,-2.49 2.01,-4.5 4.5,-4.5c2.48,0 4.5,2.01 4.5,4.5z" fill="#4285f4" fill-rule="nonzero" id="svg_95"/>
   <path clip-path="url(#id_0)" d="m610.98,205.44c0,2.49 -2.02,4.5 -4.5,4.5c-2.49,0 -4.5,-2.01 -4.5,-4.5c0,-2.48 2.01,-4.5 4.5,-4.5c2.48,0 4.5,2.02 4.5,4.5z" fill="#4285f4" fill-rule="nonzero" id="svg_96"/>
   <path clip-path="url(#id_0)" d="m621.54,205.13c0,2.48 -2.01,4.5 -4.5,4.5c-2.48,0 -4.5,-2.02 -4.5,-4.5c0,-2.49 2.02,-4.5 4.5,-4.5c2.49,0 4.5,2.01 4.5,4.5z" fill="#4285f4" fill-rule="nonzero" id="svg_97"/>
   <path clip-path="url(#id_0)" d="m631.76,208.56c0,2.48 -2.01,4.5 -4.5,4.5c-2.48,0 -4.5,-2.02 -4.5,-4.5c0,-2.49 2.02,-4.5 4.5,-4.5c2.49,0 4.5,2.01 4.5,4.5z" fill="#4285f4" fill-rule="nonzero" id="svg_98"/>
   <path clip-path="url(#id_0)" d="m642.33,200.51c0,2.48 -2.02,4.5 -4.5,4.5c-2.49,0 -4.5,-2.02 -4.5,-4.5c0,-2.49 2.01,-4.5 4.5,-4.5c2.48,0 4.5,2.01 4.5,4.5z" fill="#4285f4" fill-rule="nonzero" id="svg_99"/>
   <path clip-path="url(#id_0)" d="m652.89,201.44c0,2.48 -2.01,4.5 -4.5,4.5c-2.48,0 -4.5,-2.02 -4.5,-4.5c0,-2.49 2.02,-4.5 4.5,-4.5c2.49,0 4.5,2.01 4.5,4.5z" fill="#4285f4" fill-rule="nonzero" id="svg_100"/>
   <path clip-path="url(#id_0)" d="m662.43,201.1c0,2.48 -2.01,4.5 -4.5,4.5c-2.48,0 -4.5,-2.02 -4.5,-4.5c0,-2.49 2.02,-4.5 4.5,-4.5c2.49,0 4.5,2.01 4.5,4.5z" fill="#4285f4" fill-rule="nonzero" id="svg_101"/>
   <path clip-path="url(#id_0)" d="m673,201.39c0,2.48 -2.02,4.5 -4.5,4.5c-2.49,0 -4.5,-2.02 -4.5,-4.5c0,-2.49 2.01,-4.5 4.5,-4.5c2.48,0 4.5,2.01 4.5,4.5z" fill="#4285f4" fill-rule="nonzero" id="svg_102"/>
   <path clip-path="url(#id_0)" d="m683.22,201.3c0,2.49 -2.02,4.5 -4.5,4.5c-2.49,0 -4.5,-2.01 -4.5,-4.5c0,-2.48 2.01,-4.5 4.5,-4.5c2.48,0 4.5,2.02 4.5,4.5z" fill="#4285f4" fill-rule="nonzero" id="svg_103"/>
   <path clip-path="url(#id_0)" d="m693.78,201.98c0,2.48 -2.01,4.5 -4.5,4.5c-2.48,0 -4.5,-2.02 -4.5,-4.5c0,-2.49 2.02,-4.5 4.5,-4.5c2.49,0 4.5,2.01 4.5,4.5z" fill="#4285f4" fill-rule="nonzero" id="svg_104"/>
   <path clip-path="url(#id_0)" d="m704,208.15c0,2.48 -2.01,4.5 -4.5,4.5c-2.48,0 -4.5,-2.02 -4.5,-4.5c0,-2.49 2.02,-4.5 4.5,-4.5c2.49,0 4.5,2.01 4.5,4.5z" fill="#4285f4" fill-rule="nonzero" id="svg_105"/>
   <path clip-path="url(#id_0)" d="m714.57,203.73c0,2.49 -2.02,4.5 -4.5,4.5c-2.49,0 -4.5,-2.01 -4.5,-4.5c0,-2.48 2.01,-4.5 4.5,-4.5c2.48,0 4.5,2.02 4.5,4.5z" fill="#4285f4" fill-rule="nonzero" id="svg_106"/>
   <path clip-path="url(#id_0)" d="m725.13,202.65c0,2.48 -2.01,4.5 -4.5,4.5c-2.48,0 -4.5,-2.02 -4.5,-4.5c0,-2.49 2.02,-4.5 4.5,-4.5c2.49,0 4.5,2.01 4.5,4.5z" fill="#4285f4" fill-rule="nonzero" id="svg_107"/>
   <path clip-path="url(#id_0)" d="m735.35,198.97c0,2.48 -2.01,4.5 -4.5,4.5c-2.48,0 -4.5,-2.02 -4.5,-4.5c0,-2.49 2.02,-4.5 4.5,-4.5c2.49,0 4.5,2.01 4.5,4.5z" fill="#4285f4" fill-rule="nonzero" id="svg_108"/>
   <path clip-path="url(#id_0)" d="m745.92,198.12c0,2.48 -2.02,4.5 -4.5,4.5c-2.49,0 -4.5,-2.02 -4.5,-4.5c0,-2.49 2.01,-4.5 4.5,-4.5c2.48,0 4.5,2.01 4.5,4.5z" fill="#4285f4" fill-rule="nonzero" id="svg_109"/>
   <path clip-path="url(#id_0)" d="m756.14,206.17c0,2.49 -2.01,4.5 -4.5,4.5c-2.49,0 -4.5,-2.01 -4.5,-4.5c0,-2.48 2.01,-4.5 4.5,-4.5c2.49,0 4.5,2.02 4.5,4.5z" fill="#4285f4" fill-rule="nonzero" id="svg_110"/>
   <path clip-path="url(#id_0)" d="m268.86,398.96c0,2.49 -2.02,4.5 -4.5,4.5c-2.49,0 -4.5,-2.01 -4.5,-4.5c0,-2.48 2.01,-4.5 4.5,-4.5c2.48,0 4.5,2.02 4.5,4.5z" fill="#c27ba0" fill-rule="nonzero" id="svg_111"/>
   <path clip-path="url(#id_0)" d="m279.42,400.21c0,2.48 -2.01,4.5 -4.5,4.5c-2.48,0 -4.5,-2.02 -4.5,-4.5c0,-2.49 2.02,-4.5 4.5,-4.5c2.49,0 4.5,2.01 4.5,4.5z" fill="#c27ba0" fill-rule="nonzero" id="svg_112"/>
   <path clip-path="url(#id_0)" d="m288.96,398.34c0,2.49 -2.01,4.5 -4.5,4.5c-2.48,0 -4.5,-2.01 -4.5,-4.5c0,-2.48 2.02,-4.5 4.5,-4.5c2.49,0 4.5,2.02 4.5,4.5z" fill="#c27ba0" fill-rule="nonzero" id="svg_113"/>
   <path clip-path="url(#id_0)" d="m299.53,400.21c0,2.48 -2.02,4.5 -4.5,4.5c-2.49,0 -4.5,-2.02 -4.5,-4.5c0,-2.49 2.01,-4.5 4.5,-4.5c2.48,0 4.5,2.01 4.5,4.5z" fill="#c27ba0" fill-rule="nonzero" id="svg_114"/>
   <path clip-path="url(#id_0)" d="m309.75,397.1c0,2.49 -2.01,4.5 -4.5,4.5c-2.48,0 -4.5,-2.01 -4.5,-4.5c0,-2.48 2.02,-4.5 4.5,-4.5c2.49,0 4.5,2.02 4.5,4.5z" fill="#c27ba0" fill-rule="nonzero" id="svg_115"/>
   <path clip-path="url(#id_0)" d="m320.31,398.96c0,2.49 -2.01,4.5 -4.5,4.5c-2.48,0 -4.5,-2.01 -4.5,-4.5c0,-2.48 2.02,-4.5 4.5,-4.5c2.49,0 4.5,2.02 4.5,4.5z" fill="#c27ba0" fill-rule="nonzero" id="svg_116"/>
   <path clip-path="url(#id_0)" d="m330.54,400.83c0,2.48 -2.02,4.5 -4.5,4.5c-2.49,0 -4.5,-2.02 -4.5,-4.5c0,-2.49 2.01,-4.5 4.5,-4.5c2.48,0 4.5,2.01 4.5,4.5z" fill="#c27ba0" fill-rule="nonzero" id="svg_117"/>
   <path clip-path="url(#id_0)" d="m341.1,399.59c0,2.48 -2.01,4.5 -4.5,4.5c-2.49,0 -4.5,-2.02 -4.5,-4.5c0,-2.49 2.01,-4.5 4.5,-4.5c2.49,0 4.5,2.01 4.5,4.5z" fill="#c27ba0" fill-rule="nonzero" id="svg_118"/>
   <path clip-path="url(#id_0)" d="m351.66,397.1c0,2.49 -2.01,4.5 -4.5,4.5c-2.48,0 -4.5,-2.01 -4.5,-4.5c0,-2.48 2.02,-4.5 4.5,-4.5c2.49,0 4.5,2.02 4.5,4.5z" fill="#c27ba0" fill-rule="nonzero" id="svg_119"/>
   <path clip-path="url(#id_0)" d="m361.89,400.21c0,2.48 -2.02,4.5 -4.5,4.5c-2.49,0 -4.5,-2.02 -4.5,-4.5c0,-2.49 2.01,-4.5 4.5,-4.5c2.48,0 4.5,2.01 4.5,4.5z" fill="#c27ba0" fill-rule="nonzero" id="svg_120"/>
   <path clip-path="url(#id_0)" d="m372.45,397.72c0,2.49 -2.02,4.5 -4.5,4.5c-2.49,0 -4.5,-2.01 -4.5,-4.5c0,-2.48 2.01,-4.5 4.5,-4.5c2.48,0 4.5,2.02 4.5,4.5z" fill="#c27ba0" fill-rule="nonzero" id="svg_121"/>
   <path clip-path="url(#id_0)" d="m382.67,397.72c0,2.49 -2.01,4.5 -4.5,4.5c-2.48,0 -4.5,-2.01 -4.5,-4.5c0,-2.48 2.02,-4.5 4.5,-4.5c2.49,0 4.5,2.02 4.5,4.5z" fill="#c27ba0" fill-rule="nonzero" id="svg_122"/>
   <path clip-path="url(#id_0)" d="m393.24,399.59c0,2.48 -2.02,4.5 -4.5,4.5c-2.49,0 -4.5,-2.02 -4.5,-4.5c0,-2.49 2.01,-4.5 4.5,-4.5c2.48,0 4.5,2.01 4.5,4.5z" fill="#c27ba0" fill-rule="nonzero" id="svg_123"/>
   <path clip-path="url(#id_0)" d="m403.8,398.34c0,2.49 -2.02,4.5 -4.5,4.5c-2.49,0 -4.5,-2.01 -4.5,-4.5c0,-2.48 2.01,-4.5 4.5,-4.5c2.48,0 4.5,2.02 4.5,4.5z" fill="#c27ba0" fill-rule="nonzero" id="svg_124"/>
   <path clip-path="url(#id_0)" d="m413.68,395.86c0,2.48 -2.01,4.5 -4.5,4.5c-2.48,0 -4.5,-2.02 -4.5,-4.5c0,-2.49 2.02,-4.5 4.5,-4.5c2.49,0 4.5,2.01 4.5,4.5z" fill="#c27ba0" fill-rule="nonzero" id="svg_125"/>
   <path clip-path="url(#id_0)" d="m424.24,395.86c0,2.48 -2.01,4.5 -4.5,4.5c-2.48,0 -4.5,-2.02 -4.5,-4.5c0,-2.49 2.02,-4.5 4.5,-4.5c2.49,0 4.5,2.01 4.5,4.5z" fill="#c27ba0" fill-rule="nonzero" id="svg_126"/>
   <path clip-path="url(#id_0)" d="m434.47,398.34c0,2.49 -2.02,4.5 -4.5,4.5c-2.49,0 -4.5,-2.01 -4.5,-4.5c0,-2.48 2.01,-4.5 4.5,-4.5c2.48,0 4.5,2.02 4.5,4.5z" fill="#c27ba0" fill-rule="nonzero" id="svg_127"/>
   <path clip-path="url(#id_0)" d="m445.03,400.83c0,2.48 -2.01,4.5 -4.5,4.5c-2.48,0 -4.5,-2.02 -4.5,-4.5c0,-2.49 2.02,-4.5 4.5,-4.5c2.49,0 4.5,2.01 4.5,4.5z" fill="#c27ba0" fill-rule="nonzero" id="svg_128"/>
   <path clip-path="url(#id_0)" d="m455.25,273.68c0,2.48 -2.01,4.5 -4.5,4.5c-2.48,0 -4.5,-2.02 -4.5,-4.5c0,-2.49 2.02,-4.5 4.5,-4.5c2.49,0 4.5,2.01 4.5,4.5z" fill="#c27ba0" fill-rule="nonzero" id="svg_129"/>
   <path clip-path="url(#id_0)" d="m465.82,292.95c0,2.48 -2.02,4.5 -4.5,4.5c-2.49,0 -4.5,-2.02 -4.5,-4.5c0,-2.49 2.01,-4.5 4.5,-4.5c2.48,0 4.5,2.01 4.5,4.5z" fill="#c27ba0" fill-rule="nonzero" id="svg_130"/>
   <path clip-path="url(#id_0)" d="m476.38,279.16c0,2.48 -2.01,4.5 -4.5,4.5c-2.49,0 -4.5,-2.02 -4.5,-4.5c0,-2.49 2.01,-4.5 4.5,-4.5c2.49,0 4.5,2.01 4.5,4.5z" fill="#c27ba0" fill-rule="nonzero" id="svg_131"/>
   <path clip-path="url(#id_0)" d="m486.6,281.25c0,2.49 -2.01,4.5 -4.5,4.5c-2.48,0 -4.5,-2.01 -4.5,-4.5c0,-2.48 2.02,-4.5 4.5,-4.5c2.49,0 4.5,2.02 4.5,4.5z" fill="#c27ba0" fill-rule="nonzero" id="svg_132"/>
   <path clip-path="url(#id_0)" d="m497.17,279.47c0,2.48 -2.02,4.5 -4.5,4.5c-2.49,0 -4.5,-2.02 -4.5,-4.5c0,-2.49 2.01,-4.5 4.5,-4.5c2.48,0 4.5,2.01 4.5,4.5z" fill="#c27ba0" fill-rule="nonzero" id="svg_133"/>
   <path clip-path="url(#id_0)" d="m507.39,263.96c0,2.48 -2.02,4.5 -4.5,4.5c-2.49,0 -4.5,-2.02 -4.5,-4.5c0,-2.49 2.01,-4.5 4.5,-4.5c2.48,0 4.5,2.01 4.5,4.5z" fill="#c27ba0" fill-rule="nonzero" id="svg_134"/>
   <path clip-path="url(#id_0)" d="m517.95,285.48c0,2.49 -2.01,4.5 -4.5,4.5c-2.48,0 -4.5,-2.01 -4.5,-4.5c0,-2.48 2.02,-4.5 4.5,-4.5c2.49,0 4.5,2.02 4.5,4.5z" fill="#c27ba0" fill-rule="nonzero" id="svg_135"/>
   <path clip-path="url(#id_0)" d="m528.52,259.37c0,2.49 -2.02,4.5 -4.5,4.5c-2.49,0 -4.5,-2.01 -4.5,-4.5c0,-2.48 2.01,-4.5 4.5,-4.5c2.48,0 4.5,2.02 4.5,4.5z" fill="#c27ba0" fill-rule="nonzero" id="svg_136"/>
   <path clip-path="url(#id_0)" d="m538.06,266.98c0,2.49 -2.02,4.5 -4.5,4.5c-2.49,0 -4.5,-2.01 -4.5,-4.5c0,-2.48 2.01,-4.5 4.5,-4.5c2.48,0 4.5,2.02 4.5,4.5z" fill="#c27ba0" fill-rule="nonzero" id="svg_137"/>
   <path clip-path="url(#id_0)" d="m548.62,269.91c0,2.49 -2.01,4.5 -4.5,4.5c-2.49,0 -4.5,-2.01 -4.5,-4.5c0,-2.48 2.01,-4.5 4.5,-4.5c2.49,0 4.5,2.02 4.5,4.5z" fill="#c27ba0" fill-rule="nonzero" id="svg_138"/>
   <path clip-path="url(#id_0)" d="m558.84,270.37c0,2.49 -2.01,4.5 -4.5,4.5c-2.48,0 -4.5,-2.01 -4.5,-4.5c0,-2.48 2.02,-4.5 4.5,-4.5c2.49,0 4.5,2.02 4.5,4.5z" fill="#c27ba0" fill-rule="nonzero" id="svg_139"/>
   <path clip-path="url(#id_0)" d="m569.41,266.15c0,2.48 -2.02,4.5 -4.5,4.5c-2.49,0 -4.5,-2.02 -4.5,-4.5c0,-2.49 2.01,-4.5 4.5,-4.5c2.48,0 4.5,2.01 4.5,4.5z" fill="#c27ba0" fill-rule="nonzero" id="svg_140"/>
   <path clip-path="url(#id_0)" d="m579.63,261.9c0,2.48 -2.02,4.5 -4.5,4.5c-2.49,0 -4.5,-2.02 -4.5,-4.5c0,-2.49 2.01,-4.5 4.5,-4.5c2.48,0 4.5,2.01 4.5,4.5z" fill="#c27ba0" fill-rule="nonzero" id="svg_141"/>
   <path clip-path="url(#id_0)" d="m590.19,266.08c0,2.48 -2.01,4.5 -4.5,4.5c-2.48,0 -4.5,-2.02 -4.5,-4.5c0,-2.49 2.02,-4.5 4.5,-4.5c2.49,0 4.5,2.01 4.5,4.5z" fill="#c27ba0" fill-rule="nonzero" id="svg_142"/>
   <path clip-path="url(#id_0)" d="m600.76,269.63c0,2.48 -2.02,4.5 -4.5,4.5c-2.49,0 -4.5,-2.02 -4.5,-4.5c0,-2.49 2.01,-4.5 4.5,-4.5c2.48,0 4.5,2.01 4.5,4.5z" fill="#c27ba0" fill-rule="nonzero" id="svg_143"/>
   <path clip-path="url(#id_0)" d="m610.98,267.97c0,2.48 -2.02,4.5 -4.5,4.5c-2.49,0 -4.5,-2.02 -4.5,-4.5c0,-2.49 2.01,-4.5 4.5,-4.5c2.48,0 4.5,2.01 4.5,4.5z" fill="#c27ba0" fill-rule="nonzero" id="svg_144"/>
   <path clip-path="url(#id_0)" d="m621.54,266.99c0,2.49 -2.01,4.5 -4.5,4.5c-2.48,0 -4.5,-2.01 -4.5,-4.5c0,-2.48 2.02,-4.5 4.5,-4.5c2.49,0 4.5,2.02 4.5,4.5z" fill="#c27ba0" fill-rule="nonzero" id="svg_145"/>
   <path clip-path="url(#id_0)" d="m631.76,264.39c0,2.49 -2.01,4.5 -4.5,4.5c-2.48,0 -4.5,-2.01 -4.5,-4.5c0,-2.48 2.02,-4.5 4.5,-4.5c2.49,0 4.5,2.02 4.5,4.5z" fill="#c27ba0" fill-rule="nonzero" id="svg_146"/>
   <path clip-path="url(#id_0)" d="m642.33,263.91c0,2.49 -2.02,4.5 -4.5,4.5c-2.49,0 -4.5,-2.01 -4.5,-4.5c0,-2.49 2.01,-4.5 4.5,-4.5c2.48,0 4.5,2.01 4.5,4.5z" fill="#c27ba0" fill-rule="nonzero" id="svg_147"/>
   <path clip-path="url(#id_0)" d="m652.89,248.66c0,2.49 -2.01,4.5 -4.5,4.5c-2.48,0 -4.5,-2.01 -4.5,-4.5c0,-2.48 2.02,-4.5 4.5,-4.5c2.49,0 4.5,2.02 4.5,4.5z" fill="#c27ba0" fill-rule="nonzero" id="svg_148"/>
   <path clip-path="url(#id_0)" d="m662.43,251.94c0,2.49 -2.01,4.5 -4.5,4.5c-2.48,0 -4.5,-2.01 -4.5,-4.5c0,-2.48 2.02,-4.5 4.5,-4.5c2.49,0 4.5,2.02 4.5,4.5z" fill="#c27ba0" fill-rule="nonzero" id="svg_149"/>
   <path clip-path="url(#id_0)" d="m673,255.89c0,2.48 -2.02,4.5 -4.5,4.5c-2.49,0 -4.5,-2.02 -4.5,-4.5c0,-2.49 2.01,-4.5 4.5,-4.5c2.48,0 4.5,2.01 4.5,4.5z" fill="#c27ba0" fill-rule="nonzero" id="svg_150"/>
   <path clip-path="url(#id_0)" d="m683.22,249.05c0,2.48 -2.02,4.5 -4.5,4.5c-2.49,0 -4.5,-2.02 -4.5,-4.5c0,-2.49 2.01,-4.5 4.5,-4.5c2.48,0 4.5,2.01 4.5,4.5z" fill="#c27ba0" fill-rule="nonzero" id="svg_151"/>
   <path clip-path="url(#id_0)" d="m693.78,257.4c0,2.48 -2.01,4.5 -4.5,4.5c-2.48,0 -4.5,-2.02 -4.5,-4.5c0,-2.49 2.02,-4.5 4.5,-4.5c2.49,0 4.5,2.01 4.5,4.5z" fill="#c27ba0" fill-rule="nonzero" id="svg_152"/>
   <path clip-path="url(#id_0)" d="m704,271.59c0,2.49 -2.01,4.5 -4.5,4.5c-2.48,0 -4.5,-2.01 -4.5,-4.5c0,-2.48 2.02,-4.5 4.5,-4.5c2.49,0 4.5,2.02 4.5,4.5z" fill="#c27ba0" fill-rule="nonzero" id="svg_153"/>
   <path clip-path="url(#id_0)" d="m714.57,276.64c0,2.49 -2.02,4.5 -4.5,4.5c-2.49,0 -4.5,-2.01 -4.5,-4.5c0,-2.48 2.01,-4.5 4.5,-4.5c2.48,0 4.5,2.02 4.5,4.5z" fill="#c27ba0" fill-rule="nonzero" id="svg_154"/>
   <path clip-path="url(#id_0)" d="m725.13,260.15c0,2.49 -2.01,4.5 -4.5,4.5c-2.48,0 -4.5,-2.01 -4.5,-4.5c0,-2.48 2.02,-4.5 4.5,-4.5c2.49,0 4.5,2.02 4.5,4.5z" fill="#c27ba0" fill-rule="nonzero" id="svg_155"/>
   <path clip-path="url(#id_0)" d="m735.35,262.15c0,2.49 -2.01,4.5 -4.5,4.5c-2.48,0 -4.5,-2.01 -4.5,-4.5c0,-2.48 2.02,-4.5 4.5,-4.5c2.49,0 4.5,2.02 4.5,4.5z" fill="#c27ba0" fill-rule="nonzero" id="svg_156"/>
   <path clip-path="url(#id_0)" d="m745.92,250.82c0,2.49 -2.02,4.5 -4.5,4.5c-2.49,0 -4.5,-2.01 -4.5,-4.5c0,-2.48 2.01,-4.5 4.5,-4.5c2.48,0 4.5,2.02 4.5,4.5z" fill="#c27ba0" fill-rule="nonzero" id="svg_157"/>
   <path clip-path="url(#id_0)" d="m756.14,276.18c0,2.49 -2.01,4.5 -4.5,4.5c-2.49,0 -4.5,-2.01 -4.5,-4.5c0,-2.48 2.01,-4.5 4.5,-4.5c2.49,0 4.5,2.02 4.5,4.5z" fill="#c27ba0" fill-rule="nonzero" id="svg_158"/>
   <path clip-path="url(#id_0)" d="m268.86,400.21c0,2.48 -2.02,4.5 -4.5,4.5c-2.49,0 -4.5,-2.02 -4.5,-4.5c0,-2.49 2.01,-4.5 4.5,-4.5c2.48,0 4.5,2.01 4.5,4.5z" fill="#fbbc04" fill-rule="nonzero" id="svg_159"/>
   <path clip-path="url(#id_0)" d="m279.42,395.24c0,2.48 -2.01,4.5 -4.5,4.5c-2.48,0 -4.5,-2.02 -4.5,-4.5c0,-2.49 2.02,-4.5 4.5,-4.5c2.49,0 4.5,2.01 4.5,4.5z" fill="#fbbc04" fill-rule="nonzero" id="svg_160"/>
   <path clip-path="url(#id_0)" d="m288.96,395.24c0,2.48 -2.01,4.5 -4.5,4.5c-2.48,0 -4.5,-2.02 -4.5,-4.5c0,-2.49 2.02,-4.5 4.5,-4.5c2.49,0 4.5,2.01 4.5,4.5z" fill="#fbbc04" fill-rule="nonzero" id="svg_161"/>
   <path clip-path="url(#id_0)" d="m299.53,396.48c0,2.48 -2.02,4.5 -4.5,4.5c-2.49,0 -4.5,-2.02 -4.5,-4.5c0,-2.49 2.01,-4.5 4.5,-4.5c2.48,0 4.5,2.01 4.5,4.5z" fill="#fbbc04" fill-rule="nonzero" id="svg_162"/>
   <path clip-path="url(#id_0)" d="m309.75,400.21c0,2.48 -2.01,4.5 -4.5,4.5c-2.48,0 -4.5,-2.02 -4.5,-4.5c0,-2.49 2.02,-4.5 4.5,-4.5c2.49,0 4.5,2.01 4.5,4.5z" fill="#fbbc04" fill-rule="nonzero" id="svg_163"/>
   <path clip-path="url(#id_0)" d="m320.31,400.83c0,2.48 -2.01,4.5 -4.5,4.5c-2.48,0 -4.5,-2.02 -4.5,-4.5c0,-2.49 2.02,-4.5 4.5,-4.5c2.49,0 4.5,2.01 4.5,4.5z" fill="#fbbc04" fill-rule="nonzero" id="svg_164"/>
   <path clip-path="url(#id_0)" d="m330.54,395.86c0,2.48 -2.02,4.5 -4.5,4.5c-2.49,0 -4.5,-2.02 -4.5,-4.5c0,-2.49 2.01,-4.5 4.5,-4.5c2.48,0 4.5,2.01 4.5,4.5z" fill="#fbbc04" fill-rule="nonzero" id="svg_165"/>
   <path clip-path="url(#id_0)" d="m341.1,400.21c0,2.48 -2.01,4.5 -4.5,4.5c-2.49,0 -4.5,-2.02 -4.5,-4.5c0,-2.49 2.01,-4.5 4.5,-4.5c2.49,0 4.5,2.01 4.5,4.5z" fill="#fbbc04" fill-rule="nonzero" id="svg_166"/>
   <path clip-path="url(#id_0)" d="m351.66,400.83c0,2.48 -2.01,4.5 -4.5,4.5c-2.48,0 -4.5,-2.02 -4.5,-4.5c0,-2.49 2.02,-4.5 4.5,-4.5c2.49,0 4.5,2.01 4.5,4.5z" fill="#fbbc04" fill-rule="nonzero" id="svg_167"/>
   <path clip-path="url(#id_0)" d="m361.89,397.72c0,2.49 -2.02,4.5 -4.5,4.5c-2.49,0 -4.5,-2.01 -4.5,-4.5c0,-2.48 2.01,-4.5 4.5,-4.5c2.48,0 4.5,2.02 4.5,4.5z" fill="#fbbc04" fill-rule="nonzero" id="svg_168"/>
   <path clip-path="url(#id_0)" d="m372.45,397.1c0,2.49 -2.02,4.5 -4.5,4.5c-2.49,0 -4.5,-2.01 -4.5,-4.5c0,-2.48 2.01,-4.5 4.5,-4.5c2.48,0 4.5,2.02 4.5,4.5z" fill="#fbbc04" fill-rule="nonzero" id="svg_169"/>
   <path clip-path="url(#id_0)" d="m382.67,398.96c0,2.49 -2.01,4.5 -4.5,4.5c-2.48,0 -4.5,-2.01 -4.5,-4.5c0,-2.48 2.02,-4.5 4.5,-4.5c2.49,0 4.5,2.02 4.5,4.5z" fill="#fbbc04" fill-rule="nonzero" id="svg_170"/>
   <path clip-path="url(#id_0)" d="m393.24,397.72c0,2.49 -2.02,4.5 -4.5,4.5c-2.49,0 -4.5,-2.01 -4.5,-4.5c0,-2.48 2.01,-4.5 4.5,-4.5c2.48,0 4.5,2.02 4.5,4.5z" fill="#fbbc04" fill-rule="nonzero" id="svg_171"/>
   <path clip-path="url(#id_0)" d="m403.8,395.24c0,2.48 -2.02,4.5 -4.5,4.5c-2.49,0 -4.5,-2.02 -4.5,-4.5c0,-2.49 2.01,-4.5 4.5,-4.5c2.48,0 4.5,2.01 4.5,4.5z" fill="#fbbc04" fill-rule="nonzero" id="svg_172"/>
   <path clip-path="url(#id_0)" d="m413.68,398.34c0,2.49 -2.01,4.5 -4.5,4.5c-2.48,0 -4.5,-2.01 -4.5,-4.5c0,-2.48 2.02,-4.5 4.5,-4.5c2.49,0 4.5,2.02 4.5,4.5z" fill="#fbbc04" fill-rule="nonzero" id="svg_173"/>
   <path clip-path="url(#id_0)" d="m424.24,396.48c0,2.48 -2.01,4.5 -4.5,4.5c-2.48,0 -4.5,-2.02 -4.5,-4.5c0,-2.49 2.02,-4.5 4.5,-4.5c2.49,0 4.5,2.01 4.5,4.5z" fill="#fbbc04" fill-rule="nonzero" id="svg_174"/>
   <path clip-path="url(#id_0)" d="m434.47,399.59c0,2.48 -2.02,4.5 -4.5,4.5c-2.49,0 -4.5,-2.02 -4.5,-4.5c0,-2.49 2.01,-4.5 4.5,-4.5c2.48,0 4.5,2.01 4.5,4.5z" fill="#fbbc04" fill-rule="nonzero" id="svg_175"/>
   <path clip-path="url(#id_0)" d="m445.03,399.59c0,2.48 -2.01,4.5 -4.5,4.5c-2.48,0 -4.5,-2.02 -4.5,-4.5c0,-2.49 2.02,-4.5 4.5,-4.5c2.49,0 4.5,2.01 4.5,4.5z" fill="#fbbc04" fill-rule="nonzero" id="svg_176"/>
   <path clip-path="url(#id_0)" d="m455.25,236.83c0,2.49 -2.01,4.5 -4.5,4.5c-2.48,0 -4.5,-2.01 -4.5,-4.5c0,-2.48 2.02,-4.5 4.5,-4.5c2.49,0 4.5,2.02 4.5,4.5z" fill="#fbbc04" fill-rule="nonzero" id="svg_177"/>
   <path clip-path="url(#id_0)" d="m465.82,235.7c0,2.48 -2.02,4.5 -4.5,4.5c-2.49,0 -4.5,-2.02 -4.5,-4.5c0,-2.49 2.01,-4.5 4.5,-4.5c2.48,0 4.5,2.01 4.5,4.5z" fill="#fbbc04" fill-rule="nonzero" id="svg_178"/>
   <path clip-path="url(#id_0)" d="m476.38,230.17c0,2.49 -2.01,4.5 -4.5,4.5c-2.49,0 -4.5,-2.01 -4.5,-4.5c0,-2.48 2.01,-4.5 4.5,-4.5c2.49,0 4.5,2.02 4.5,4.5z" fill="#fbbc04" fill-rule="nonzero" id="svg_179"/>
   <path clip-path="url(#id_0)" d="m486.6,238.04c0,2.48 -2.01,4.5 -4.5,4.5c-2.48,0 -4.5,-2.02 -4.5,-4.5c0,-2.49 2.02,-4.5 4.5,-4.5c2.49,0 4.5,2.01 4.5,4.5z" fill="#fbbc04" fill-rule="nonzero" id="svg_180"/>
   <path clip-path="url(#id_0)" d="m497.17,228.18c0,2.49 -2.02,4.5 -4.5,4.5c-2.49,0 -4.5,-2.01 -4.5,-4.5c0,-2.48 2.01,-4.5 4.5,-4.5c2.48,0 4.5,2.02 4.5,4.5z" fill="#fbbc04" fill-rule="nonzero" id="svg_181"/>
   <path clip-path="url(#id_0)" d="m507.39,244.96c0,2.49 -2.02,4.5 -4.5,4.5c-2.49,0 -4.5,-2.01 -4.5,-4.5c0,-2.48 2.01,-4.5 4.5,-4.5c2.48,0 4.5,2.02 4.5,4.5z" fill="#fbbc04" fill-rule="nonzero" id="svg_182"/>
   <path clip-path="url(#id_0)" d="m517.95,233.5c0,2.48 -2.01,4.5 -4.5,4.5c-2.48,0 -4.5,-2.02 -4.5,-4.5c0,-2.49 2.02,-4.5 4.5,-4.5c2.49,0 4.5,2.01 4.5,4.5z" fill="#fbbc04" fill-rule="nonzero" id="svg_183"/>
   <path clip-path="url(#id_0)" d="m528.52,224.07c0,2.48 -2.02,4.5 -4.5,4.5c-2.49,0 -4.5,-2.02 -4.5,-4.5c0,-2.49 2.01,-4.5 4.5,-4.5c2.48,0 4.5,2.01 4.5,4.5z" fill="#fbbc04" fill-rule="nonzero" id="svg_184"/>
   <path clip-path="url(#id_0)" d="m538.06,223.53c0,2.48 -2.02,4.5 -4.5,4.5c-2.49,0 -4.5,-2.02 -4.5,-4.5c0,-2.49 2.01,-4.5 4.5,-4.5c2.48,0 4.5,2.01 4.5,4.5z" fill="#fbbc04" fill-rule="nonzero" id="svg_185"/>
   <path clip-path="url(#id_0)" d="m548.62,226.01c0,2.49 -2.01,4.5 -4.5,4.5c-2.49,0 -4.5,-2.01 -4.5,-4.5c0,-2.48 2.01,-4.5 4.5,-4.5c2.49,0 4.5,2.02 4.5,4.5z" fill="#fbbc04" fill-rule="nonzero" id="svg_186"/>
   <path clip-path="url(#id_0)" d="m558.84,228.47c0,2.48 -2.01,4.5 -4.5,4.5c-2.48,0 -4.5,-2.02 -4.5,-4.5c0,-2.49 2.02,-4.5 4.5,-4.5c2.49,0 4.5,2.01 4.5,4.5z" fill="#fbbc04" fill-rule="nonzero" id="svg_187"/>
   <path clip-path="url(#id_0)" d="m569.41,220.03c0,2.49 -2.02,4.5 -4.5,4.5c-2.49,0 -4.5,-2.01 -4.5,-4.5c0,-2.49 2.01,-4.5 4.5,-4.5c2.48,0 4.5,2.01 4.5,4.5z" fill="#fbbc04" fill-rule="nonzero" id="svg_188"/>
   <path clip-path="url(#id_0)" d="m579.63,221.37c0,2.48 -2.02,4.5 -4.5,4.5c-2.49,0 -4.5,-2.02 -4.5,-4.5c0,-2.49 2.01,-4.5 4.5,-4.5c2.48,0 4.5,2.01 4.5,4.5z" fill="#fbbc04" fill-rule="nonzero" id="svg_189"/>
   <path clip-path="url(#id_0)" d="m590.19,230.32c0,2.48 -2.01,4.5 -4.5,4.5c-2.48,0 -4.5,-2.02 -4.5,-4.5c0,-2.49 2.02,-4.5 4.5,-4.5c2.49,0 4.5,2.01 4.5,4.5z" fill="#fbbc04" fill-rule="nonzero" id="svg_190"/>
   <path clip-path="url(#id_0)" d="m600.76,226.81c0,2.49 -2.02,4.5 -4.5,4.5c-2.49,0 -4.5,-2.01 -4.5,-4.5c0,-2.48 2.01,-4.5 4.5,-4.5c2.48,0 4.5,2.02 4.5,4.5z" fill="#fbbc04" fill-rule="nonzero" id="svg_191"/>
   <path clip-path="url(#id_0)" d="m610.98,224.16c0,2.49 -2.02,4.5 -4.5,4.5c-2.49,0 -4.5,-2.01 -4.5,-4.5c0,-2.48 2.01,-4.5 4.5,-4.5c2.48,0 4.5,2.02 4.5,4.5z" fill="#fbbc04" fill-rule="nonzero" id="svg_192"/>
   <path clip-path="url(#id_0)" d="m621.54,223.45c0,2.48 -2.01,4.5 -4.5,4.5c-2.48,0 -4.5,-2.02 -4.5,-4.5c0,-2.49 2.02,-4.5 4.5,-4.5c2.49,0 4.5,2.01 4.5,4.5z" fill="#fbbc04" fill-rule="nonzero" id="svg_193"/>
   <path clip-path="url(#id_0)" d="m631.76,220.15c0,2.49 -2.01,4.5 -4.5,4.5c-2.48,0 -4.5,-2.01 -4.5,-4.5c0,-2.48 2.02,-4.5 4.5,-4.5c2.49,0 4.5,2.02 4.5,4.5z" fill="#fbbc04" fill-rule="nonzero" id="svg_194"/>
   <path clip-path="url(#id_0)" d="m642.33,221.7c0,2.49 -2.02,4.5 -4.5,4.5c-2.49,0 -4.5,-2.01 -4.5,-4.5c0,-2.48 2.01,-4.5 4.5,-4.5c2.48,0 4.5,2.02 4.5,4.5z" fill="#fbbc04" fill-rule="nonzero" id="svg_195"/>
   <path clip-path="url(#id_0)" d="m652.89,212.33c0,2.49 -2.01,4.5 -4.5,4.5c-2.48,0 -4.5,-2.01 -4.5,-4.5c0,-2.48 2.02,-4.5 4.5,-4.5c2.49,0 4.5,2.02 4.5,4.5z" fill="#fbbc04" fill-rule="nonzero" id="svg_196"/>
   <path clip-path="url(#id_0)" d="m662.43,216.61c0,2.49 -2.01,4.5 -4.5,4.5c-2.48,0 -4.5,-2.01 -4.5,-4.5c0,-2.48 2.02,-4.5 4.5,-4.5c2.49,0 4.5,2.02 4.5,4.5z" fill="#fbbc04" fill-rule="nonzero" id="svg_197"/>
   <path clip-path="url(#id_0)" d="m673,224.27c0,2.49 -2.02,4.5 -4.5,4.5c-2.49,0 -4.5,-2.01 -4.5,-4.5c0,-2.48 2.01,-4.5 4.5,-4.5c2.48,0 4.5,2.02 4.5,4.5z" fill="#fbbc04" fill-rule="nonzero" id="svg_198"/>
   <path clip-path="url(#id_0)" d="m683.22,222.11c0,2.49 -2.02,4.5 -4.5,4.5c-2.49,0 -4.5,-2.01 -4.5,-4.5c0,-2.48 2.01,-4.5 4.5,-4.5c2.48,0 4.5,2.02 4.5,4.5z" fill="#fbbc04" fill-rule="nonzero" id="svg_199"/>
   <path clip-path="url(#id_0)" d="m693.78,210.86c0,2.48 -2.01,4.5 -4.5,4.5c-2.48,0 -4.5,-2.02 -4.5,-4.5c0,-2.49 2.02,-4.5 4.5,-4.5c2.49,0 4.5,2.01 4.5,4.5z" fill="#fbbc04" fill-rule="nonzero" id="svg_200"/>
   <path clip-path="url(#id_0)" d="m704,216.92c0,2.48 -2.01,4.5 -4.5,4.5c-2.48,0 -4.5,-2.02 -4.5,-4.5c0,-2.49 2.02,-4.5 4.5,-4.5c2.49,0 4.5,2.01 4.5,4.5z" fill="#fbbc04" fill-rule="nonzero" id="svg_201"/>
   <path clip-path="url(#id_0)" d="m714.57,218.06c0,2.49 -2.02,4.5 -4.5,4.5c-2.49,0 -4.5,-2.01 -4.5,-4.5c0,-2.48 2.01,-4.5 4.5,-4.5c2.48,0 4.5,2.02 4.5,4.5z" fill="#fbbc04" fill-rule="nonzero" id="svg_202"/>
   <path clip-path="url(#id_0)" d="m725.13,220.15c0,2.49 -2.01,4.5 -4.5,4.5c-2.48,0 -4.5,-2.01 -4.5,-4.5c0,-2.49 2.02,-4.5 4.5,-4.5c2.49,0 4.5,2.01 4.5,4.5z" fill="#fbbc04" fill-rule="nonzero" id="svg_203"/>
   <path clip-path="url(#id_0)" d="m735.35,216.38c0,2.48 -2.01,4.5 -4.5,4.5c-2.48,0 -4.5,-2.02 -4.5,-4.5c0,-2.49 2.02,-4.5 4.5,-4.5c2.49,0 4.5,2.01 4.5,4.5z" fill="#fbbc04" fill-rule="nonzero" id="svg_204"/>
   <path clip-path="url(#id_0)" d="m745.92,223.68c0,2.49 -2.02,4.5 -4.5,4.5c-2.49,0 -4.5,-2.01 -4.5,-4.5c0,-2.48 2.01,-4.5 4.5,-4.5c2.48,0 4.5,2.02 4.5,4.5z" fill="#fbbc04" fill-rule="nonzero" id="svg_205"/>
   <path clip-path="url(#id_0)" d="m756.14,227.98c0,2.48 -2.01,4.5 -4.5,4.5c-2.49,0 -4.5,-2.02 -4.5,-4.5c0,-2.49 2.01,-4.5 4.5,-4.5c2.49,0 4.5,2.01 4.5,4.5z" fill="#fbbc04" fill-rule="nonzero" id="svg_206"/>
   <path clip-path="url(#id_0)" d="m268.86,395.24c0,2.48 -2.02,4.5 -4.5,4.5c-2.49,0 -4.5,-2.02 -4.5,-4.5c0,-2.49 2.01,-4.5 4.5,-4.5c2.48,0 4.5,2.01 4.5,4.5z" fill="#34a853" fill-rule="nonzero" id="svg_207"/>
   <path clip-path="url(#id_0)" d="m279.42,395.86c0,2.48 -2.01,4.5 -4.5,4.5c-2.48,0 -4.5,-2.02 -4.5,-4.5c0,-2.49 2.02,-4.5 4.5,-4.5c2.49,0 4.5,2.01 4.5,4.5z" fill="#34a853" fill-rule="nonzero" id="svg_208"/>
   <path clip-path="url(#id_0)" d="m288.96,399.59c0,2.48 -2.01,4.5 -4.5,4.5c-2.48,0 -4.5,-2.02 -4.5,-4.5c0,-2.49 2.02,-4.5 4.5,-4.5c2.49,0 4.5,2.01 4.5,4.5z" fill="#34a853" fill-rule="nonzero" id="svg_209"/>
   <path clip-path="url(#id_0)" d="m299.53,399.59c0,2.48 -2.02,4.5 -4.5,4.5c-2.49,0 -4.5,-2.02 -4.5,-4.5c0,-2.49 2.01,-4.5 4.5,-4.5c2.48,0 4.5,2.01 4.5,4.5z" fill="#34a853" fill-rule="nonzero" id="svg_210"/>
   <path clip-path="url(#id_0)" d="m309.75,395.24c0,2.48 -2.01,4.5 -4.5,4.5c-2.48,0 -4.5,-2.02 -4.5,-4.5c0,-2.49 2.02,-4.5 4.5,-4.5c2.49,0 4.5,2.01 4.5,4.5z" fill="#34a853" fill-rule="nonzero" id="svg_211"/>
   <path clip-path="url(#id_0)" d="m320.31,395.86c0,2.48 -2.01,4.5 -4.5,4.5c-2.48,0 -4.5,-2.02 -4.5,-4.5c0,-2.49 2.02,-4.5 4.5,-4.5c2.49,0 4.5,2.01 4.5,4.5z" fill="#34a853" fill-rule="nonzero" id="svg_212"/>
   <path clip-path="url(#id_0)" d="m330.54,395.86c0,2.48 -2.02,4.5 -4.5,4.5c-2.49,0 -4.5,-2.02 -4.5,-4.5c0,-2.49 2.01,-4.5 4.5,-4.5c2.48,0 4.5,2.01 4.5,4.5z" fill="#34a853" fill-rule="nonzero" id="svg_213"/>
   <path clip-path="url(#id_0)" d="m341.1,400.83c0,2.48 -2.01,4.5 -4.5,4.5c-2.49,0 -4.5,-2.02 -4.5,-4.5c0,-2.49 2.01,-4.5 4.5,-4.5c2.49,0 4.5,2.01 4.5,4.5z" fill="#34a853" fill-rule="nonzero" id="svg_214"/>
   <path clip-path="url(#id_0)" d="m351.66,400.83c0,2.48 -2.01,4.5 -4.5,4.5c-2.48,0 -4.5,-2.02 -4.5,-4.5c0,-2.49 2.02,-4.5 4.5,-4.5c2.49,0 4.5,2.01 4.5,4.5z" fill="#34a853" fill-rule="nonzero" id="svg_215"/>
   <path clip-path="url(#id_0)" d="m361.89,400.21c0,2.48 -2.02,4.5 -4.5,4.5c-2.49,0 -4.5,-2.02 -4.5,-4.5c0,-2.49 2.01,-4.5 4.5,-4.5c2.48,0 4.5,2.01 4.5,4.5z" fill="#34a853" fill-rule="nonzero" id="svg_216"/>
   <path clip-path="url(#id_0)" d="m372.45,400.21c0,2.48 -2.02,4.5 -4.5,4.5c-2.49,0 -4.5,-2.02 -4.5,-4.5c0,-2.49 2.01,-4.5 4.5,-4.5c2.48,0 4.5,2.01 4.5,4.5z" fill="#34a853" fill-rule="nonzero" id="svg_217"/>
   <path clip-path="url(#id_0)" d="m382.67,398.34c0,2.49 -2.01,4.5 -4.5,4.5c-2.48,0 -4.5,-2.01 -4.5,-4.5c0,-2.48 2.02,-4.5 4.5,-4.5c2.49,0 4.5,2.02 4.5,4.5z" fill="#34a853" fill-rule="nonzero" id="svg_218"/>
   <path clip-path="url(#id_0)" d="m393.24,400.21c0,2.48 -2.02,4.5 -4.5,4.5c-2.49,0 -4.5,-2.02 -4.5,-4.5c0,-2.49 2.01,-4.5 4.5,-4.5c2.48,0 4.5,2.01 4.5,4.5z" fill="#34a853" fill-rule="nonzero" id="svg_219"/>
   <path clip-path="url(#id_0)" d="m403.8,400.83c0,2.48 -2.02,4.5 -4.5,4.5c-2.49,0 -4.5,-2.02 -4.5,-4.5c0,-2.49 2.01,-4.5 4.5,-4.5c2.48,0 4.5,2.01 4.5,4.5z" fill="#34a853" fill-rule="nonzero" id="svg_220"/>
   <path clip-path="url(#id_0)" d="m413.68,396.48c0,2.48 -2.01,4.5 -4.5,4.5c-2.48,0 -4.5,-2.02 -4.5,-4.5c0,-2.49 2.02,-4.5 4.5,-4.5c2.49,0 4.5,2.01 4.5,4.5z" fill="#34a853" fill-rule="nonzero" id="svg_221"/>
   <path clip-path="url(#id_0)" d="m424.24,395.86c0,2.48 -2.01,4.5 -4.5,4.5c-2.48,0 -4.5,-2.02 -4.5,-4.5c0,-2.49 2.02,-4.5 4.5,-4.5c2.49,0 4.5,2.01 4.5,4.5z" fill="#34a853" fill-rule="nonzero" id="svg_222"/>
   <path clip-path="url(#id_0)" d="m434.47,397.1c0,2.49 -2.02,4.5 -4.5,4.5c-2.49,0 -4.5,-2.01 -4.5,-4.5c0,-2.48 2.01,-4.5 4.5,-4.5c2.48,0 4.5,2.02 4.5,4.5z" fill="#34a853" fill-rule="nonzero" id="svg_223"/>
   <path clip-path="url(#id_0)" d="m445.03,395.86c0,2.48 -2.01,4.5 -4.5,4.5c-2.48,0 -4.5,-2.02 -4.5,-4.5c0,-2.49 2.02,-4.5 4.5,-4.5c2.49,0 4.5,2.01 4.5,4.5z" fill="#34a853" fill-rule="nonzero" id="svg_224"/>
   <path clip-path="url(#id_0)" d="m455.25,245.51c0,2.48 -2.01,4.5 -4.5,4.5c-2.48,0 -4.5,-2.02 -4.5,-4.5c0,-2.49 2.02,-4.5 4.5,-4.5c2.49,0 4.5,2.01 4.5,4.5z" fill="#34a853" fill-rule="nonzero" id="svg_225"/>
   <path clip-path="url(#id_0)" d="m465.82,244.84c0,2.49 -2.02,4.5 -4.5,4.5c-2.49,0 -4.5,-2.01 -4.5,-4.5c0,-2.48 2.01,-4.5 4.5,-4.5c2.48,0 4.5,2.02 4.5,4.5z" fill="#34a853" fill-rule="nonzero" id="svg_226"/>
   <path clip-path="url(#id_0)" d="m476.38,245.5c0,2.48 -2.01,4.5 -4.5,4.5c-2.49,0 -4.5,-2.02 -4.5,-4.5c0,-2.49 2.01,-4.5 4.5,-4.5c2.49,0 4.5,2.01 4.5,4.5z" fill="#34a853" fill-rule="nonzero" id="svg_227"/>
   <path clip-path="url(#id_0)" d="m486.6,244.2c0,2.48 -2.01,4.5 -4.5,4.5c-2.48,0 -4.5,-2.02 -4.5,-4.5c0,-2.49 2.02,-4.5 4.5,-4.5c2.49,0 4.5,2.01 4.5,4.5z" fill="#34a853" fill-rule="nonzero" id="svg_228"/>
   <path clip-path="url(#id_0)" d="m497.17,257.77c0,2.48 -2.02,4.5 -4.5,4.5c-2.49,0 -4.5,-2.02 -4.5,-4.5c0,-2.49 2.01,-4.5 4.5,-4.5c2.48,0 4.5,2.01 4.5,4.5z" fill="#34a853" fill-rule="nonzero" id="svg_229"/>
   <path clip-path="url(#id_0)" d="m507.39,248.41c0,2.49 -2.02,4.5 -4.5,4.5c-2.49,0 -4.5,-2.01 -4.5,-4.5c0,-2.48 2.01,-4.5 4.5,-4.5c2.48,0 4.5,2.02 4.5,4.5z" fill="#34a853" fill-rule="nonzero" id="svg_230"/>
   <path clip-path="url(#id_0)" d="m517.95,262.81c0,2.48 -2.01,4.5 -4.5,4.5c-2.48,0 -4.5,-2.02 -4.5,-4.5c0,-2.49 2.02,-4.5 4.5,-4.5c2.49,0 4.5,2.01 4.5,4.5z" fill="#34a853" fill-rule="nonzero" id="svg_231"/>
   <path clip-path="url(#id_0)" d="m528.52,239.23c0,2.49 -2.02,4.5 -4.5,4.5c-2.49,0 -4.5,-2.01 -4.5,-4.5c0,-2.49 2.01,-4.5 4.5,-4.5c2.48,0 4.5,2.01 4.5,4.5z" fill="#34a853" fill-rule="nonzero" id="svg_232"/>
   <path clip-path="url(#id_0)" d="m538.06,241.22c0,2.49 -2.02,4.5 -4.5,4.5c-2.49,0 -4.5,-2.01 -4.5,-4.5c0,-2.48 2.01,-4.5 4.5,-4.5c2.48,0 4.5,2.02 4.5,4.5z" fill="#34a853" fill-rule="nonzero" id="svg_233"/>
   <path clip-path="url(#id_0)" d="m548.62,263.22c0,2.49 -2.01,4.5 -4.5,4.5c-2.49,0 -4.5,-2.01 -4.5,-4.5c0,-2.48 2.01,-4.5 4.5,-4.5c2.49,0 4.5,2.02 4.5,4.5z" fill="#34a853" fill-rule="nonzero" id="svg_234"/>
   <path clip-path="url(#id_0)" d="m558.84,272.31c0,2.49 -2.01,4.5 -4.5,4.5c-2.48,0 -4.5,-2.01 -4.5,-4.5c0,-2.49 2.02,-4.5 4.5,-4.5c2.49,0 4.5,2.01 4.5,4.5z" fill="#34a853" fill-rule="nonzero" id="svg_235"/>
   <path clip-path="url(#id_0)" d="m569.41,257.98c0,2.48 -2.02,4.5 -4.5,4.5c-2.49,0 -4.5,-2.02 -4.5,-4.5c0,-2.49 2.01,-4.5 4.5,-4.5c2.48,0 4.5,2.01 4.5,4.5z" fill="#34a853" fill-rule="nonzero" id="svg_236"/>
   <path clip-path="url(#id_0)" d="m579.63,270.76c0,2.49 -2.02,4.5 -4.5,4.5c-2.49,0 -4.5,-2.01 -4.5,-4.5c0,-2.48 2.01,-4.5 4.5,-4.5c2.48,0 4.5,2.02 4.5,4.5z" fill="#34a853" fill-rule="nonzero" id="svg_237"/>
   <path clip-path="url(#id_0)" d="m590.19,247.19c0,2.48 -2.01,4.5 -4.5,4.5c-2.48,0 -4.5,-2.02 -4.5,-4.5c0,-2.49 2.02,-4.5 4.5,-4.5c2.49,0 4.5,2.01 4.5,4.5z" fill="#34a853" fill-rule="nonzero" id="svg_238"/>
   <path clip-path="url(#id_0)" d="m600.76,238.55c0,2.49 -2.02,4.5 -4.5,4.5c-2.49,0 -4.5,-2.01 -4.5,-4.5c0,-2.48 2.01,-4.5 4.5,-4.5c2.48,0 4.5,2.02 4.5,4.5z" fill="#34a853" fill-rule="nonzero" id="svg_239"/>
   <path clip-path="url(#id_0)" d="m610.98,246.7c0,2.49 -2.02,4.5 -4.5,4.5c-2.49,0 -4.5,-2.01 -4.5,-4.5c0,-2.48 2.01,-4.5 4.5,-4.5c2.48,0 4.5,2.02 4.5,4.5z" fill="#34a853" fill-rule="nonzero" id="svg_240"/>
   <path clip-path="url(#id_0)" d="m621.54,243.82c0,2.48 -2.01,4.5 -4.5,4.5c-2.48,0 -4.5,-2.02 -4.5,-4.5c0,-2.49 2.02,-4.5 4.5,-4.5c2.49,0 4.5,2.01 4.5,4.5z" fill="#34a853" fill-rule="nonzero" id="svg_241"/>
   <path clip-path="url(#id_0)" d="m631.76,236.76c0,2.48 -2.01,4.5 -4.5,4.5c-2.48,0 -4.5,-2.02 -4.5,-4.5c0,-2.49 2.02,-4.5 4.5,-4.5c2.49,0 4.5,2.01 4.5,4.5z" fill="#34a853" fill-rule="nonzero" id="svg_242"/>
   <path clip-path="url(#id_0)" d="m642.33,238.66c0,2.48 -2.02,4.5 -4.5,4.5c-2.49,0 -4.5,-2.02 -4.5,-4.5c0,-2.49 2.01,-4.5 4.5,-4.5c2.48,0 4.5,2.01 4.5,4.5z" fill="#34a853" fill-rule="nonzero" id="svg_243"/>
   <path clip-path="url(#id_0)" d="m652.89,257.85c0,2.49 -2.01,4.5 -4.5,4.5c-2.48,0 -4.5,-2.01 -4.5,-4.5c0,-2.48 2.02,-4.5 4.5,-4.5c2.49,0 4.5,2.02 4.5,4.5z" fill="#34a853" fill-rule="nonzero" id="svg_244"/>
   <path clip-path="url(#id_0)" d="m662.43,220.51c0,2.49 -2.01,4.5 -4.5,4.5c-2.48,0 -4.5,-2.01 -4.5,-4.5c0,-2.48 2.02,-4.5 4.5,-4.5c2.49,0 4.5,2.02 4.5,4.5z" fill="#34a853" fill-rule="nonzero" id="svg_245"/>
   <path clip-path="url(#id_0)" d="m673,238.2c0,2.48 -2.02,4.5 -4.5,4.5c-2.49,0 -4.5,-2.02 -4.5,-4.5c0,-2.49 2.01,-4.5 4.5,-4.5c2.48,0 4.5,2.01 4.5,4.5z" fill="#34a853" fill-rule="nonzero" id="svg_246"/>
   <path clip-path="url(#id_0)" d="m683.22,228.86c0,2.48 -2.02,4.5 -4.5,4.5c-2.49,0 -4.5,-2.02 -4.5,-4.5c0,-2.49 2.01,-4.5 4.5,-4.5c2.48,0 4.5,2.01 4.5,4.5z" fill="#34a853" fill-rule="nonzero" id="svg_247"/>
   <path clip-path="url(#id_0)" d="m693.78,242.3c0,2.48 -2.01,4.5 -4.5,4.5c-2.48,0 -4.5,-2.02 -4.5,-4.5c0,-2.49 2.02,-4.5 4.5,-4.5c2.49,0 4.5,2.01 4.5,4.5z" fill="#34a853" fill-rule="nonzero" id="svg_248"/>
   <path clip-path="url(#id_0)" d="m704,253.07c0,2.49 -2.01,4.5 -4.5,4.5c-2.48,0 -4.5,-2.01 -4.5,-4.5c0,-2.48 2.02,-4.5 4.5,-4.5c2.49,0 4.5,2.02 4.5,4.5z" fill="#34a853" fill-rule="nonzero" id="svg_249"/>
   <path clip-path="url(#id_0)" d="m714.57,227.1c0,2.48 -2.02,4.5 -4.5,4.5c-2.49,0 -4.5,-2.02 -4.5,-4.5c0,-2.49 2.01,-4.5 4.5,-4.5c2.48,0 4.5,2.01 4.5,4.5z" fill="#34a853" fill-rule="nonzero" id="svg_250"/>
   <path clip-path="url(#id_0)" d="m725.13,229.77c0,2.48 -2.01,4.5 -4.5,4.5c-2.48,0 -4.5,-2.02 -4.5,-4.5c0,-2.49 2.02,-4.5 4.5,-4.5c2.49,0 4.5,2.01 4.5,4.5z" fill="#34a853" fill-rule="nonzero" id="svg_251"/>
   <path clip-path="url(#id_0)" d="m735.35,246.79c0,2.48 -2.01,4.5 -4.5,4.5c-2.48,0 -4.5,-2.02 -4.5,-4.5c0,-2.49 2.02,-4.5 4.5,-4.5c2.49,0 4.5,2.01 4.5,4.5z" fill="#34a853" fill-rule="nonzero" id="svg_252"/>
   <path clip-path="url(#id_0)" d="m745.92,248.46c0,2.48 -2.02,4.5 -4.5,4.5c-2.49,0 -4.5,-2.02 -4.5,-4.5c0,-2.49 2.01,-4.5 4.5,-4.5c2.48,0 4.5,2.01 4.5,4.5z" fill="#34a853" fill-rule="nonzero" id="svg_253"/>
   <path clip-path="url(#id_0)" d="m756.14,233.38c0,2.49 -2.01,4.5 -4.5,4.5c-2.49,0 -4.5,-2.01 -4.5,-4.5c0,-2.48 2.01,-4.5 4.5,-4.5c2.49,0 4.5,2.02 4.5,4.5z" fill="#34a853" fill-rule="nonzero" id="svg_254"/>
   <path d="m464.88,447.29l1.67,0.53q-0.38,1.41 -1.28,2.1q-0.91,0.67 -2.29,0.67q-1.71,0 -2.82,-1.16q-1.1,-1.17 -1.1,-3.2q0,-2.14 1.11,-3.33q1.11,-1.18 2.92,-1.18q1.58,0 2.57,0.92q0.57,0.56 0.87,1.59l-1.72,0.41q-0.15,-0.67 -0.64,-1.05q-0.48,-0.39 -1.17,-0.39q-0.95,0 -1.55,0.69q-0.59,0.67 -0.59,2.22q0,1.62 0.58,2.31q0.59,0.69 1.53,0.69q0.69,0 1.19,-0.44q0.5,-0.44 0.72,-1.38zm4.12,-5.43l0,3.15q0.8,-0.92 1.91,-0.92q0.56,0 1.01,0.22q0.47,0.2 0.71,0.53q0.23,0.33 0.31,0.73q0.08,0.4 0.08,1.22l0,3.66l-1.64,0l0,-3.28q0,-0.99 -0.1,-1.25q-0.09,-0.27 -0.33,-0.42q-0.23,-0.16 -0.59,-0.16q-0.41,0 -0.73,0.2q-0.33,0.21 -0.49,0.61q-0.14,0.39 -0.14,1.17l0,3.13l-1.64,0l0,-8.59l1.64,0zm5.36,1.53l0,-1.53l1.66,0l0,1.53l-1.66,0zm0,7.06l0,-6.22l1.66,0l0,6.22l-1.66,0zm3,0l0,-8.59l1.66,0l0,8.59l-1.66,0zm8.7,0l-1.51,0l0,-0.92q-0.39,0.54 -0.91,0.81q-0.51,0.25 -1.05,0.25q-1.07,0 -1.84,-0.86q-0.75,-0.87 -0.75,-2.42q0,-1.58 0.73,-2.39q0.75,-0.83 1.9,-0.83q1.03,0 1.79,0.86l0,-3.09l1.64,0l0,8.59zm-4.39,-3.25q0,1 0.28,1.44q0.39,0.65 1.11,0.65q0.57,0 0.96,-0.48q0.4,-0.49 0.4,-1.45q0,-1.07 -0.39,-1.54q-0.37,-0.48 -0.98,-0.48q-0.58,0 -0.99,0.47q-0.39,0.47 -0.39,1.39zm14.39,3.25l-1.51,0l0,-0.92q-0.39,0.54 -0.91,0.81q-0.51,0.25 -1.05,0.25q-1.07,0 -1.84,-0.86q-0.75,-0.87 -0.75,-2.42q0,-1.58 0.73,-2.39q0.75,-0.83 1.9,-0.83q1.03,0 1.79,0.86l0,-3.09l1.64,0l0,8.59zm-4.39,-3.25q0,1 0.28,1.44q0.39,0.65 1.11,0.65q0.57,0 0.96,-0.48q0.4,-0.49 0.4,-1.45q0,-1.07 -0.39,-1.54q-0.37,-0.48 -0.98,-0.48q-0.58,0 -0.99,0.47q-0.39,0.47 -0.39,1.39zm6.92,-1.08l-1.5,-0.26q0.25,-0.91 0.86,-1.33q0.63,-0.44 1.85,-0.44q1.09,0 1.62,0.27q0.55,0.25 0.77,0.65q0.22,0.39 0.22,1.47l-0.02,1.92q0,0.83 0.08,1.22q0.08,0.38 0.3,0.83l-1.63,0q-0.06,-0.17 -0.16,-0.48q-0.04,-0.16 -0.06,-0.21q-0.42,0.42 -0.9,0.63q-0.47,0.2 -1.02,0.2q-0.97,0 -1.53,-0.52q-0.55,-0.53 -0.55,-1.32q0,-0.53 0.25,-0.94q0.27,-0.41 0.72,-0.63q0.45,-0.23 1.31,-0.39q1.14,-0.22 1.6,-0.4l0,-0.16q0,-0.48 -0.24,-0.69q-0.23,-0.2 -0.89,-0.2q-0.44,0 -0.69,0.17q-0.23,0.17 -0.39,0.61zm2.21,1.35q-0.32,0.09 -1,0.25q-0.69,0.14 -0.91,0.28q-0.31,0.23 -0.31,0.57q0,0.35 0.25,0.61q0.26,0.25 0.65,0.25q0.46,0 0.86,-0.29q0.3,-0.22 0.39,-0.55q0.07,-0.2 0.07,-0.8l0,-0.32zm6.42,-3.24l0,1.31l-1.13,0l0,2.5q0,0.77 0.04,0.89q0.03,0.13 0.14,0.22q0.12,0.08 0.28,0.08q0.23,0 0.65,-0.17l0.14,1.28q-0.56,0.25 -1.29,0.25q-0.44,0 -0.8,-0.14q-0.36,-0.16 -0.53,-0.39q-0.16,-0.25 -0.24,-0.64q-0.04,-0.3 -0.04,-1.17l0,-2.71l-0.75,0l0,-1.31l0.75,0l0,-1.23l1.65,-0.97l0,2.2l1.13,0zm4.75,4.24l1.64,0.28q-0.31,0.9 -1,1.37q-0.69,0.47 -1.7,0.47q-1.63,0 -2.41,-1.06q-0.62,-0.85 -0.62,-2.14q0,-1.55 0.81,-2.42q0.81,-0.88 2.04,-0.88q1.4,0 2.19,0.92q0.81,0.91 0.77,2.8l-4.13,0q0.03,0.73 0.41,1.14q0.37,0.41 0.95,0.41q0.38,0 0.64,-0.21q0.27,-0.22 0.41,-0.68zm0.09,-1.66q-0.01,-0.72 -0.37,-1.09q-0.35,-0.38 -0.86,-0.38q-0.53,0 -0.89,0.39q-0.35,0.41 -0.35,1.08l2.47,0zm5.92,0.44q0,-0.82 0.41,-1.58q0.41,-0.78 1.14,-1.17q0.74,-0.41 1.66,-0.41q1.4,0 2.31,0.92q0.91,0.91 0.91,2.31q0,1.41 -0.93,2.35q-0.9,0.92 -2.28,0.92q-0.86,0 -1.64,-0.39q-0.76,-0.39 -1.17,-1.13q-0.41,-0.75 -0.41,-1.82zm1.69,0.09q0,0.92 0.44,1.42q0.44,0.49 1.08,0.49q0.65,0 1.08,-0.49q0.43,-0.5 0.43,-1.44q0,-0.9 -0.43,-1.39q-0.43,-0.5 -1.08,-0.5q-0.64,0 -1.08,0.5q-0.44,0.49 -0.44,1.41zm4.97,-3.11l0.92,0l0,-0.47q0,-0.79 0.16,-1.17q0.17,-0.39 0.61,-0.62q0.45,-0.25 1.14,-0.25q0.7,0 1.37,0.2l-0.21,1.15q-0.4,-0.09 -0.75,-0.09q-0.36,0 -0.52,0.17q-0.16,0.16 -0.16,0.64l0,0.44l1.24,0l0,1.3l-1.24,0l0,4.92l-1.64,0l0,-4.92l-0.92,0l0,-1.3zm7.66,6.22l0,-8.59l1.64,0l0,3.09q0.76,-0.86 1.81,-0.86q1.13,0 1.88,0.83q0.75,0.81 0.75,2.36q0,1.59 -0.77,2.45q-0.77,0.86 -1.84,0.86q-0.54,0 -1.05,-0.27q-0.52,-0.26 -0.89,-0.79l0,0.92l-1.53,0zm1.62,-3.25q0,0.97 0.31,1.44q0.43,0.65 1.15,0.65q0.53,0 0.92,-0.47q0.39,-0.46 0.39,-1.46q0,-1.07 -0.39,-1.54q-0.39,-0.48 -1,-0.48q-0.58,0 -0.99,0.47q-0.39,0.45 -0.39,1.39zm5.44,-3.81l0,-1.53l1.66,0l0,1.53l-1.66,0zm0,7.06l0,-6.22l1.66,0l0,6.22l-1.66,0zm4.58,0l-1.64,0l0,-6.22l1.53,0l0,0.88q0.39,-0.63 0.7,-0.82q0.31,-0.2 0.7,-0.2q0.57,0 1.1,0.31l-0.52,1.42q-0.42,-0.26 -0.76,-0.26q-0.36,0 -0.6,0.2q-0.23,0.19 -0.37,0.69q-0.14,0.48 -0.14,2.08l0,1.92zm6.28,-6.22l0,1.31l-1.13,0l0,2.5q0,0.77 0.04,0.89q0.03,0.13 0.14,0.22q0.12,0.08 0.28,0.08q0.23,0 0.65,-0.17l0.14,1.28q-0.56,0.25 -1.29,0.25q-0.44,0 -0.8,-0.14q-0.36,-0.16 -0.53,-0.39q-0.16,-0.25 -0.24,-0.64q-0.04,-0.3 -0.04,-1.17l0,-2.71l-0.75,0l0,-1.31l0.75,0l0,-1.23l1.65,-0.97l0,2.2l1.13,0zm2.78,-2.37l0,3.15q0.8,-0.92 1.91,-0.92q0.56,0 1.01,0.22q0.47,0.2 0.71,0.53q0.23,0.33 0.31,0.73q0.08,0.4 0.08,1.22l0,3.66l-1.64,0l0,-3.28q0,-0.99 -0.1,-1.25q-0.09,-0.27 -0.33,-0.42q-0.23,-0.16 -0.59,-0.16q-0.41,0 -0.73,0.2q-0.33,0.21 -0.49,0.61q-0.14,0.39 -0.14,1.17l0,3.13l-1.64,0l0,-8.59l1.64,0z" fill="#000000" fill-rule="nonzero" id="svg_255"/>
   <path d="m206.55,316.87l-7.14,0l0,2.55l-1.45,0l0,-6.81l1.45,0l0,2.53l7.14,0l0,1.73zm-4.33,-6.28l-0.26,1.5q-0.91,-0.25 -1.33,-0.86q-0.44,-0.62 -0.44,-1.84q0,-1.1 0.27,-1.63q0.25,-0.55 0.65,-0.76q0.39,-0.22 1.47,-0.22l1.92,0.01q0.83,0 1.22,-0.08q0.38,-0.07 0.83,-0.29l0,1.62q-0.17,0.07 -0.48,0.16q-0.16,0.05 -0.21,0.06q0.42,0.42 0.63,0.91q0.2,0.47 0.2,1.01q0,0.97 -0.51,1.53q-0.54,0.55 -1.33,0.55q-0.53,0 -0.94,-0.25q-0.41,-0.26 -0.63,-0.72q-0.23,-0.45 -0.39,-1.31q-0.21,-1.14 -0.4,-1.59l-0.16,0q-0.48,0 -0.69,0.23q-0.2,0.24 -0.2,0.89q0,0.44 0.17,0.69q0.17,0.23 0.61,0.39zm1.35,-2.2q0.09,0.31 0.25,1q0.14,0.68 0.28,0.9q0.23,0.32 0.58,0.32q0.34,0 0.6,-0.25q0.25,-0.27 0.25,-0.66q0,-0.45 -0.29,-0.86q-0.22,-0.3 -0.55,-0.39q-0.2,-0.06 -0.8,-0.06l-0.32,0zm2.98,-3.5l-8.59,0l0,-1.66l4.56,0l-2.19,-1.92l0,-2.03l2.27,2.12l3.95,-2.28l0,1.78l-2.8,1.56l0.8,0.77l2,0l0,1.66zm-1.98,-10.68l0.28,-1.64q0.9,0.32 1.37,1q0.47,0.69 0.47,1.71q0,1.62 -1.06,2.4q-0.85,0.63 -2.14,0.63q-1.55,0 -2.42,-0.81q-0.88,-0.82 -0.88,-2.05q0,-1.39 0.92,-2.19q0.91,-0.81 2.8,-0.76l0,4.12q0.73,-0.03 1.14,-0.41q0.41,-0.37 0.41,-0.95q0,-0.37 -0.21,-0.64q-0.22,-0.26 -0.68,-0.41zm-1.66,-0.09q-0.72,0.02 -1.09,0.38q-0.38,0.34 -0.38,0.86q0,0.53 0.39,0.89q0.41,0.34 1.08,0.34l0,-2.47zm1.34,-3.11l-1.64,0l0,-3.23l1.64,0l0,3.23zm2.3,-8.28l-0.94,0q0.5,0.33 0.8,0.89q0.28,0.55 0.28,1.17q0,0.63 -0.26,1.13q-0.29,0.5 -0.79,0.72q-0.5,0.22 -1.37,0.22l-3.94,0l0,-1.65l2.86,0q1.31,0 1.61,-0.09q0.3,-0.09 0.47,-0.33q0.17,-0.25 0.17,-0.61q0,-0.42 -0.23,-0.75q-0.24,-0.34 -0.58,-0.47q-0.35,-0.12 -1.67,-0.12l-2.63,0l0,-1.64l6.22,0l0,1.53zm-6.22,-2.86l0,-1.53l0.91,0q-0.47,-0.31 -0.75,-0.81q-0.3,-0.52 -0.3,-1.14q0,-1.08 0.84,-1.83q0.85,-0.77 2.38,-0.77q1.55,0 2.42,0.77q0.86,0.76 0.86,1.84q0,0.52 -0.2,0.94q-0.21,0.42 -0.71,0.87l3.15,0l0,1.66l-8.6,0zm3,-1.62q1.05,0 1.55,-0.43q0.5,-0.42 0.5,-1.01q0,-0.58 -0.45,-0.95q-0.47,-0.38 -1.52,-0.38q-0.97,0 -1.44,0.39q-0.48,0.39 -0.48,0.97q0,0.61 0.47,1.02q0.47,0.39 1.37,0.39zm3.22,-10l0,1.64l-6.22,0l0,-1.53l0.88,0q-0.63,-0.4 -0.82,-0.71q-0.2,-0.31 -0.2,-0.7q0,-0.56 0.31,-1.09l1.43,0.51q-0.27,0.42 -0.27,0.77q0,0.36 0.2,0.59q0.19,0.23 0.69,0.38q0.48,0.14 2.08,0.14l1.92,0zm-4.33,-4.66l-0.26,1.5q-0.91,-0.25 -1.33,-0.86q-0.44,-0.62 -0.44,-1.84q0,-1.1 0.27,-1.63q0.25,-0.55 0.65,-0.76q0.39,-0.22 1.47,-0.22l1.92,0.01q0.83,0 1.22,-0.08q0.38,-0.07 0.83,-0.29l0,1.62q-0.17,0.07 -0.48,0.16q-0.16,0.05 -0.21,0.06q0.42,0.42 0.63,0.91q0.2,0.47 0.2,1.01q0,0.97 -0.51,1.53q-0.54,0.55 -1.33,0.55q-0.53,0 -0.94,-0.25q-0.41,-0.26 -0.63,-0.72q-0.23,-0.45 -0.39,-1.31q-0.21,-1.14 -0.4,-1.59l-0.16,0q-0.48,0 -0.69,0.23q-0.2,0.24 -0.2,0.89q0,0.44 0.17,0.69q0.17,0.23 0.61,0.39zm1.35,-2.2q0.09,0.31 0.25,1q0.14,0.68 0.28,0.9q0.23,0.32 0.58,0.32q0.34,0 0.6,-0.25q0.25,-0.27 0.25,-0.66q0,-0.45 -0.29,-0.86q-0.22,-0.3 -0.55,-0.39q-0.2,-0.06 -0.8,-0.06l-0.32,0zm-3.24,-6.43l1.31,0l0,1.13l2.5,0q0.77,0 0.89,-0.03q0.13,-0.03 0.22,-0.14q0.08,-0.13 0.08,-0.28q0,-0.24 -0.17,-0.66l1.28,-0.14q0.25,0.56 0.25,1.3q0,0.43 -0.14,0.79q-0.16,0.36 -0.39,0.53q-0.25,0.16 -0.64,0.24q-0.3,0.05 -1.17,0.05l-2.71,0l0,0.75l-1.31,0l0,-0.75l-1.23,0l-0.97,-1.66l2.2,0l0,-1.13zm4.24,-4.75l0.28,-1.64q0.9,0.32 1.37,1q0.47,0.69 0.47,1.71q0,1.62 -1.06,2.4q-0.85,0.63 -2.14,0.63q-1.55,0 -2.42,-0.81q-0.88,-0.82 -0.88,-2.05q0,-1.39 0.92,-2.19q0.91,-0.81 2.8,-0.76l0,4.12q0.73,-0.03 1.14,-0.41q0.41,-0.37 0.41,-0.95q0,-0.37 -0.21,-0.64q-0.22,-0.26 -0.68,-0.41zm-1.66,-0.09q-0.72,0.02 -1.09,0.38q-0.38,0.34 -0.38,0.86q0,0.53 0.39,0.89q0.41,0.34 1.08,0.34l0,-2.47z" fill="#000000" fill-rule="nonzero" id="svg_256"/>
   <path d="m228.05,401.22q0,-1.54 0.31,-2.46q0.31,-0.94 0.92,-1.44q0.63,-0.5 1.57,-0.5q0.68,0 1.2,0.29q0.53,0.28 0.87,0.81q0.35,0.51 0.54,1.26q0.18,0.75 0.18,2.04q0,1.51 -0.31,2.43q-0.3,0.92 -0.92,1.44q-0.61,0.5 -1.56,0.5q-1.24,0 -1.96,-0.89q-0.84,-1.06 -0.84,-3.48zm1.08,0q0,2.1 0.5,2.81q0.5,0.7 1.22,0.7q0.73,0 1.22,-0.7q0.5,-0.71 0.5,-2.81q0,-2.13 -0.5,-2.82q-0.49,-0.7 -1.24,-0.7q-0.72,0 -1.16,0.61q-0.54,0.78 -0.54,2.91zm6.51,4.23l0,-1.2l1.21,0l0,1.2l-1.21,0zm2.41,-4.23q0,-1.54 0.31,-2.46q0.31,-0.94 0.92,-1.44q0.63,-0.5 1.57,-0.5q0.68,0 1.2,0.29q0.53,0.28 0.87,0.81q0.35,0.51 0.54,1.26q0.18,0.75 0.18,2.04q0,1.51 -0.31,2.43q-0.3,0.92 -0.92,1.44q-0.61,0.5 -1.56,0.5q-1.24,0 -1.96,-0.89q-0.84,-1.06 -0.84,-3.48zm1.08,0q0,2.1 0.5,2.81q0.5,0.7 1.22,0.7q0.73,0 1.22,-0.7q0.5,-0.71 0.5,-2.81q0,-2.13 -0.5,-2.82q-0.49,-0.7 -1.24,-0.7q-0.72,0 -1.16,0.61q-0.54,0.78 -0.54,2.91zm5.92,0q0,-1.54 0.31,-2.46q0.31,-0.94 0.92,-1.44q0.63,-0.5 1.57,-0.5q0.68,0 1.2,0.29q0.53,0.28 0.87,0.81q0.35,0.51 0.54,1.26q0.18,0.75 0.18,2.04q0,1.51 -0.31,2.43q-0.3,0.92 -0.92,1.44q-0.61,0.5 -1.56,0.5q-1.24,0 -1.96,-0.89q-0.84,-1.06 -0.84,-3.48zm1.08,0q0,2.1 0.5,2.81q0.5,0.7 1.22,0.7q0.73,0 1.22,-0.7q0.5,-0.71 0.5,-2.81q0,-2.13 -0.5,-2.82q-0.49,-0.7 -1.24,-0.7q-0.72,0 -1.16,0.61q-0.54,0.78 -0.54,2.91z" fill="#000000" fill-rule="nonzero" id="svg_257"/>
   <path d="m228.05,339.08q0,-1.53 0.31,-2.45q0.31,-0.94 0.92,-1.44q0.63,-0.5 1.57,-0.5q0.68,0 1.2,0.28q0.53,0.28 0.87,0.82q0.35,0.51 0.54,1.26q0.18,0.75 0.18,2.03q0,1.52 -0.31,2.44q-0.3,0.92 -0.92,1.44q-0.61,0.5 -1.56,0.5q-1.24,0 -1.96,-0.89q-0.84,-1.07 -0.84,-3.49zm1.08,0q0,2.11 0.5,2.81q0.5,0.71 1.22,0.71q0.73,0 1.22,-0.71q0.5,-0.7 0.5,-2.81q0,-2.12 -0.5,-2.81q-0.49,-0.7 -1.24,-0.7q-0.72,0 -1.16,0.61q-0.54,0.78 -0.54,2.9zm6.51,4.24l0,-1.21l1.21,0l0,1.21l-1.21,0zm7.96,-1.02l0,1.02l-5.69,0q0,-0.38 0.12,-0.74q0.22,-0.58 0.69,-1.14q0.49,-0.56 1.39,-1.3q1.41,-1.15 1.89,-1.82q0.5,-0.68 0.5,-1.27q0,-0.62 -0.45,-1.05q-0.45,-0.43 -1.17,-0.43q-0.77,0 -1.22,0.45q-0.45,0.45 -0.47,1.27l-1.08,-0.11q0.11,-1.22 0.83,-1.85q0.73,-0.64 1.97,-0.64q1.23,0 1.95,0.69q0.72,0.69 0.72,1.7q0,0.52 -0.22,1.02q-0.2,0.48 -0.7,1.04q-0.49,0.55 -1.61,1.5q-0.95,0.8 -1.23,1.1q-0.27,0.28 -0.44,0.56l4.22,0zm1.45,-3.22q0,-1.53 0.31,-2.45q0.31,-0.94 0.92,-1.44q0.63,-0.5 1.57,-0.5q0.68,0 1.2,0.28q0.53,0.28 0.87,0.82q0.35,0.51 0.54,1.26q0.18,0.75 0.18,2.03q0,1.52 -0.31,2.44q-0.3,0.92 -0.92,1.44q-0.61,0.5 -1.56,0.5q-1.24,0 -1.96,-0.89q-0.84,-1.07 -0.84,-3.49zm1.08,0q0,2.11 0.5,2.81q0.5,0.71 1.22,0.71q0.73,0 1.22,-0.71q0.5,-0.7 0.5,-2.81q0,-2.12 -0.5,-2.81q-0.49,-0.7 -1.24,-0.7q-0.72,0 -1.16,0.61q-0.54,0.78 -0.54,2.9z" fill="#000000" fill-rule="nonzero" id="svg_258"/>
   <path d="m228.05,276.95q0,-1.53 0.31,-2.45q0.31,-0.94 0.92,-1.44q0.63,-0.5 1.57,-0.5q0.68,0 1.2,0.28q0.53,0.28 0.87,0.81q0.35,0.52 0.54,1.27q0.18,0.75 0.18,2.03q0,1.51 -0.31,2.44q-0.3,0.92 -0.92,1.43q-0.61,0.5 -1.56,0.5q-1.24,0 -1.96,-0.89q-0.84,-1.06 -0.84,-3.48zm1.08,0q0,2.11 0.5,2.81q0.5,0.7 1.22,0.7q0.73,0 1.22,-0.7q0.5,-0.7 0.5,-2.81q0,-2.13 -0.5,-2.81q-0.49,-0.71 -1.24,-0.71q-0.72,0 -1.16,0.61q-0.54,0.78 -0.54,2.91zm6.51,4.23l0,-1.2l1.21,0l0,1.2l-1.21,0zm5.78,0l0,-2.06l-3.71,0l0,-0.97l3.92,-5.56l0.86,0l0,5.56l1.15,0l0,0.97l-1.15,0l0,2.06l-1.07,0zm0,-3.03l0,-3.86l-2.68,3.86l2.68,0zm3.63,-1.2q0,-1.53 0.31,-2.45q0.31,-0.94 0.92,-1.44q0.63,-0.5 1.57,-0.5q0.68,0 1.2,0.28q0.53,0.28 0.87,0.81q0.35,0.52 0.54,1.27q0.18,0.75 0.18,2.03q0,1.51 -0.31,2.44q-0.3,0.92 -0.92,1.43q-0.61,0.5 -1.56,0.5q-1.24,0 -1.96,-0.89q-0.84,-1.06 -0.84,-3.48zm1.08,0q0,2.11 0.5,2.81q0.5,0.7 1.22,0.7q0.73,0 1.22,-0.7q0.5,-0.7 0.5,-2.81q0,-2.13 -0.5,-2.81q-0.49,-0.71 -1.24,-0.71q-0.72,0 -1.16,0.61q-0.54,0.78 -0.54,2.91z" fill="#000000" fill-rule="nonzero" id="svg_259"/>
   <path d="m228.05,214.82q0,-1.54 0.31,-2.46q0.31,-0.94 0.92,-1.44q0.63,-0.5 1.57,-0.5q0.68,0 1.2,0.29q0.53,0.28 0.87,0.81q0.35,0.51 0.54,1.26q0.18,0.75 0.18,2.04q0,1.51 -0.31,2.43q-0.3,0.92 -0.92,1.44q-0.61,0.5 -1.56,0.5q-1.24,0 -1.96,-0.89q-0.84,-1.06 -0.84,-3.48zm1.08,0q0,2.1 0.5,2.81q0.5,0.7 1.22,0.7q0.73,0 1.22,-0.7q0.5,-0.71 0.5,-2.81q0,-2.13 -0.5,-2.82q-0.49,-0.7 -1.24,-0.7q-0.72,0 -1.16,0.61q-0.54,0.78 -0.54,2.91zm6.51,4.23l0,-1.2l1.21,0l0,1.2l-1.21,0zm7.88,-6.48l-1.05,0.07q-0.14,-0.62 -0.39,-0.9q-0.44,-0.46 -1.06,-0.46q-0.5,0 -0.89,0.29q-0.49,0.37 -0.78,1.07q-0.28,0.69 -0.3,1.97q0.37,-0.58 0.92,-0.86q0.56,-0.28 1.17,-0.28q1.05,0 1.78,0.78q0.75,0.78 0.75,2q0,0.82 -0.35,1.52q-0.35,0.69 -0.96,1.06q-0.61,0.36 -1.37,0.36q-1.33,0 -2.16,-0.97q-0.83,-0.97 -0.83,-3.19q0,-2.5 0.92,-3.62q0.8,-0.99 2.16,-0.99q1.02,0 1.66,0.58q0.65,0.57 0.78,1.57zm-4.3,3.7q0,0.55 0.22,1.05q0.23,0.48 0.64,0.75q0.42,0.26 0.89,0.26q0.66,0 1.14,-0.53q0.49,-0.55 0.49,-1.47q0,-0.89 -0.49,-1.41q-0.47,-0.51 -1.19,-0.51q-0.71,0 -1.21,0.51q-0.49,0.52 -0.49,1.35zm5.83,-1.45q0,-1.54 0.31,-2.46q0.31,-0.94 0.92,-1.44q0.63,-0.5 1.57,-0.5q0.68,0 1.2,0.29q0.53,0.28 0.87,0.81q0.35,0.51 0.54,1.26q0.18,0.75 0.18,2.04q0,1.51 -0.31,2.43q-0.3,0.92 -0.92,1.44q-0.61,0.5 -1.56,0.5q-1.24,0 -1.96,-0.89q-0.84,-1.06 -0.84,-3.48zm1.08,0q0,2.1 0.5,2.81q0.5,0.7 1.22,0.7q0.73,0 1.22,-0.7q0.5,-0.71 0.5,-2.81q0,-2.13 -0.5,-2.82q-0.49,-0.7 -1.24,-0.7q-0.72,0 -1.16,0.61q-0.54,0.78 -0.54,2.91z" fill="#000000" fill-rule="nonzero" id="svg_260"/>
   <path d="m228.05,152.68q0,-1.53 0.31,-2.45q0.31,-0.94 0.92,-1.44q0.63,-0.5 1.57,-0.5q0.68,0 1.2,0.28q0.53,0.28 0.87,0.82q0.35,0.51 0.54,1.26q0.18,0.75 0.18,2.03q0,1.52 -0.31,2.44q-0.3,0.92 -0.92,1.44q-0.61,0.5 -1.56,0.5q-1.24,0 -1.96,-0.89q-0.84,-1.07 -0.84,-3.49zm1.08,0q0,2.11 0.5,2.81q0.5,0.71 1.22,0.71q0.73,0 1.22,-0.71q0.5,-0.7 0.5,-2.81q0,-2.12 -0.5,-2.81q-0.49,-0.7 -1.24,-0.7q-0.72,0 -1.16,0.61q-0.54,0.78 -0.54,2.9zm6.51,4.24l0,-1.21l1.21,0l0,1.21l-1.21,0zm4.03,-4.66q-0.65,-0.25 -0.98,-0.69q-0.31,-0.45 -0.31,-1.06q0,-0.94 0.67,-1.58q0.69,-0.64 1.8,-0.64q1.12,0 1.81,0.66q0.69,0.65 0.69,1.59q0,0.6 -0.32,1.03q-0.31,0.44 -0.95,0.69q0.8,0.25 1.2,0.83q0.41,0.58 0.41,1.37q0,1.1 -0.78,1.85q-0.77,0.75 -2.05,0.75q-1.26,0 -2.04,-0.75q-0.79,-0.75 -0.79,-1.88q0,-0.84 0.43,-1.4q0.43,-0.57 1.21,-0.77zm-0.21,-1.8q0,0.61 0.39,1q0.4,0.39 1.03,0.39q0.61,0 1,-0.37q0.39,-0.39 0.39,-0.95q0,-0.58 -0.41,-0.97q-0.4,-0.41 -1,-0.41q-0.61,0 -1.01,0.39q-0.39,0.39 -0.39,0.92zm-0.33,3.97q0,0.46 0.2,0.88q0.22,0.42 0.64,0.65q0.42,0.24 0.91,0.24q0.75,0 1.23,-0.49q0.5,-0.48 0.5,-1.23q0,-0.77 -0.5,-1.27q-0.5,-0.5 -1.26,-0.5q-0.75,0 -1.24,0.5q-0.48,0.49 -0.48,1.22zm5.92,-1.75q0,-1.53 0.31,-2.45q0.31,-0.94 0.92,-1.44q0.63,-0.5 1.57,-0.5q0.68,0 1.2,0.28q0.53,0.28 0.87,0.82q0.35,0.51 0.54,1.26q0.18,0.75 0.18,2.03q0,1.52 -0.31,2.44q-0.3,0.92 -0.92,1.44q-0.61,0.5 -1.56,0.5q-1.24,0 -1.96,-0.89q-0.84,-1.07 -0.84,-3.49zm1.08,0q0,2.11 0.5,2.81q0.5,0.71 1.22,0.71q0.73,0 1.22,-0.71q0.5,-0.7 0.5,-2.81q0,-2.12 -0.5,-2.81q-0.49,-0.7 -1.24,-0.7q-0.72,0 -1.16,0.61q-0.54,0.78 -0.54,2.9z" fill="#000000" fill-rule="nonzero" id="svg_261"/>
   <path d="m239.2,416.01l1.03,-0.14q0.04,0.99 0.36,1.35q0.33,0.35 0.93,0.35q0.42,0 0.73,-0.18q0.31,-0.21 0.42,-0.53q0.13,-0.35 0.13,-1.08l0,-5.92l1.12,0l0,5.86q0,1.07 -0.26,1.67q-0.25,0.59 -0.82,0.9q-0.56,0.3 -1.32,0.3q-1.13,0 -1.74,-0.64q-0.59,-0.66 -0.58,-1.94zm10.52,1.67q-0.59,0.5 -1.14,0.71q-0.53,0.2 -1.16,0.2q-1.03,0 -1.58,-0.5q-0.54,-0.5 -0.54,-1.28q0,-0.45 0.2,-0.83q0.2,-0.39 0.55,-0.61q0.34,-0.23 0.76,-0.34q0.3,-0.1 0.94,-0.17q1.27,-0.14 1.88,-0.36q0,-0.22 0,-0.27q0,-0.66 -0.3,-0.92q-0.41,-0.34 -1.2,-0.34q-0.74,0 -1.1,0.26q-0.36,0.25 -0.53,0.91l-1.03,-0.14q0.14,-0.66 0.47,-1.07q0.33,-0.4 0.94,-0.62q0.6,-0.22 1.4,-0.22q0.8,0 1.3,0.19q0.5,0.19 0.73,0.47q0.24,0.28 0.33,0.72q0.05,0.26 0.05,0.96l0,1.41q0,1.47 0.06,1.86q0.08,0.39 0.28,0.75l-1.11,0q-0.15,-0.33 -0.2,-0.77zm-0.09,-2.36q-0.58,0.24 -1.72,0.41q-0.66,0.09 -0.93,0.22q-0.26,0.11 -0.42,0.33q-0.14,0.22 -0.14,0.5q0,0.42 0.31,0.7q0.33,0.28 0.94,0.28q0.61,0 1.08,-0.26q0.48,-0.27 0.7,-0.74q0.18,-0.36 0.18,-1.04l0,-0.4zm3.03,3.13l0,-6.22l0.93,0l0,0.88q0.69,-1.02 1.99,-1.02q0.56,0 1.03,0.2q0.48,0.21 0.72,0.53q0.23,0.33 0.33,0.77q0.04,0.3 0.04,1.03l0,3.83l-1.04,0l0,-3.78q0,-0.66 -0.13,-0.97q-0.12,-0.31 -0.44,-0.5q-0.31,-0.2 -0.73,-0.2q-0.67,0 -1.17,0.43q-0.49,0.43 -0.49,1.61l0,3.41l-1.04,0zm15.25,-1.02l0,1.02l-5.69,0q0,-0.38 0.12,-0.73q0.22,-0.58 0.69,-1.15q0.49,-0.56 1.39,-1.29q1.41,-1.16 1.89,-1.83q0.5,-0.67 0.5,-1.27q0,-0.62 -0.45,-1.04q-0.45,-0.44 -1.17,-0.44q-0.77,0 -1.22,0.45q-0.45,0.46 -0.47,1.27l-1.08,-0.11q0.11,-1.22 0.83,-1.84q0.73,-0.65 1.97,-0.65q1.23,0 1.95,0.69q0.72,0.69 0.72,1.71q0,0.51 -0.22,1.01q-0.2,0.49 -0.7,1.05q-0.49,0.54 -1.61,1.5q-0.95,0.79 -1.23,1.09q-0.27,0.28 -0.44,0.56l4.22,0zm1.45,-3.21q0,-1.54 0.31,-2.46q0.31,-0.94 0.92,-1.44q0.63,-0.5 1.57,-0.5q0.68,0 1.2,0.29q0.53,0.28 0.87,0.81q0.35,0.51 0.54,1.26q0.18,0.75 0.18,2.04q0,1.51 -0.31,2.43q-0.3,0.92 -0.92,1.44q-0.61,0.5 -1.56,0.5q-1.24,0 -1.96,-0.89q-0.84,-1.06 -0.84,-3.48zm1.08,0q0,2.1 0.5,2.81q0.5,0.7 1.22,0.7q0.73,0 1.22,-0.7q0.5,-0.71 0.5,-2.81q0,-2.13 -0.5,-2.82q-0.49,-0.7 -1.24,-0.7q-0.72,0 -1.16,0.61q-0.54,0.78 -0.54,2.91zm9.89,4.23l-1.05,0l0,-6.72q-0.39,0.36 -1.01,0.74q-0.61,0.35 -1.1,0.53l0,-1.02q0.88,-0.42 1.53,-1q0.68,-0.59 0.96,-1.16l0.67,0l0,8.63zm3.19,-1.98l1.01,-0.1q0.13,0.72 0.49,1.05q0.37,0.31 0.93,0.31q0.49,0 0.85,-0.22q0.37,-0.23 0.61,-0.59q0.23,-0.38 0.39,-1q0.15,-0.64 0.15,-1.3q0,-0.08 0,-0.22q-0.31,0.5 -0.86,0.83q-0.54,0.31 -1.18,0.31q-1.08,0 -1.82,-0.76q-0.73,-0.78 -0.73,-2.05q0,-1.31 0.77,-2.11q0.78,-0.8 1.93,-0.8q0.83,0 1.52,0.46q0.7,0.45 1.06,1.29q0.36,0.83 0.36,2.41q0,1.64 -0.36,2.63q-0.34,0.96 -1.06,1.48q-0.7,0.5 -1.64,0.5q-1.02,0 -1.66,-0.55q-0.64,-0.56 -0.76,-1.57zm4.31,-3.8q0,-0.91 -0.49,-1.44q-0.46,-0.53 -1.15,-0.53q-0.71,0 -1.24,0.58q-0.51,0.56 -0.51,1.48q0,0.81 0.5,1.33q0.5,0.52 1.22,0.52q0.73,0 1.2,-0.52q0.47,-0.52 0.47,-1.42z" fill="#000000" fill-rule="nonzero" id="svg_262"/>
   <path d="m302.88,416.01l1.03,-0.14q0.03,0.99 0.36,1.35q0.33,0.35 0.92,0.35q0.42,0 0.74,-0.18q0.31,-0.21 0.42,-0.53q0.12,-0.35 0.12,-1.08l0,-5.92l1.13,0l0,5.86q0,1.07 -0.27,1.67q-0.25,0.59 -0.81,0.9q-0.56,0.3 -1.33,0.3q-1.12,0 -1.73,-0.64q-0.6,-0.66 -0.58,-1.94zm10.53,2.44l0,-0.92q-0.73,1.06 -1.98,1.06q-0.55,0 -1.03,-0.2q-0.47,-0.22 -0.71,-0.53q-0.23,-0.33 -0.33,-0.8q-0.06,-0.3 -0.06,-0.99l0,-3.84l1.06,0l0,3.45q0,0.82 0.07,1.11q0.09,0.41 0.4,0.66q0.33,0.23 0.82,0.23q0.46,0 0.87,-0.23q0.42,-0.25 0.59,-0.67q0.19,-0.42 0.19,-1.22l0,-3.33l1.05,0l0,6.22l-0.94,0zm2.89,0l0,-8.59l1.06,0l0,8.59l-1.06,0zm11.28,-1.02l0,1.02l-5.68,0q0,-0.38 0.12,-0.73q0.22,-0.58 0.69,-1.15q0.48,-0.56 1.39,-1.29q1.41,-1.16 1.89,-1.83q0.5,-0.67 0.5,-1.27q0,-0.62 -0.45,-1.04q-0.46,-0.44 -1.18,-0.44q-0.76,0 -1.21,0.45q-0.46,0.46 -0.47,1.27l-1.08,-0.11q0.11,-1.22 0.83,-1.84q0.73,-0.65 1.97,-0.65q1.23,0 1.95,0.69q0.72,0.69 0.72,1.71q0,0.51 -0.22,1.01q-0.2,0.49 -0.7,1.05q-0.49,0.54 -1.61,1.5q-0.96,0.79 -1.24,1.09q-0.26,0.28 -0.44,0.56l4.22,0zm1.46,-3.21q0,-1.54 0.31,-2.46q0.31,-0.94 0.92,-1.44q0.63,-0.5 1.56,-0.5q0.69,0 1.21,0.29q0.53,0.28 0.87,0.81q0.35,0.51 0.53,1.26q0.19,0.75 0.19,2.04q0,1.51 -0.31,2.43q-0.3,0.92 -0.92,1.44q-0.61,0.5 -1.57,0.5q-1.23,0 -1.95,-0.89q-0.84,-1.06 -0.84,-3.48zm1.07,0q0,2.1 0.5,2.81q0.5,0.7 1.22,0.7q0.74,0 1.22,-0.7q0.5,-0.71 0.5,-2.81q0,-2.13 -0.5,-2.82q-0.48,-0.7 -1.23,-0.7q-0.72,0 -1.16,0.61q-0.55,0.78 -0.55,2.91zm9.9,4.23l-1.05,0l0,-6.72q-0.39,0.36 -1.02,0.74q-0.61,0.35 -1.09,0.53l0,-1.02q0.87,-0.42 1.53,-1q0.67,-0.59 0.95,-1.16l0.68,0l0,8.63zm3.18,-1.98l1.02,-0.1q0.12,0.72 0.48,1.05q0.38,0.31 0.94,0.31q0.48,0 0.84,-0.22q0.38,-0.23 0.61,-0.59q0.24,-0.38 0.39,-1q0.16,-0.64 0.16,-1.3q0,-0.08 0,-0.22q-0.31,0.5 -0.86,0.83q-0.55,0.31 -1.19,0.31q-1.07,0 -1.81,-0.76q-0.73,-0.78 -0.73,-2.05q0,-1.31 0.76,-2.11q0.78,-0.8 1.94,-0.8q0.83,0 1.52,0.46q0.7,0.45 1.06,1.29q0.36,0.83 0.36,2.41q0,1.64 -0.36,2.63q-0.35,0.96 -1.06,1.48q-0.71,0.5 -1.65,0.5q-1.01,0 -1.65,-0.55q-0.64,-0.56 -0.77,-1.57zm4.32,-3.8q0,-0.91 -0.49,-1.44q-0.47,-0.53 -1.16,-0.53q-0.7,0 -1.23,0.58q-0.52,0.56 -0.52,1.48q0,0.81 0.5,1.33q0.5,0.52 1.22,0.52q0.74,0 1.21,-0.52q0.47,-0.52 0.47,-1.42z" fill="#000000" fill-rule="nonzero" id="svg_263"/>
   <path d="m363.58,416.01l1.03,-0.14q0.03,0.99 0.36,1.35q0.33,0.35 0.92,0.35q0.42,0 0.74,-0.18q0.31,-0.21 0.42,-0.53q0.12,-0.35 0.12,-1.08l0,-5.92l1.13,0l0,5.86q0,1.07 -0.27,1.67q-0.25,0.59 -0.81,0.9q-0.56,0.3 -1.33,0.3q-1.12,0 -1.73,-0.64q-0.6,-0.66 -0.58,-1.94zm10.51,1.67q-0.59,0.5 -1.14,0.71q-0.53,0.2 -1.15,0.2q-1.03,0 -1.58,-0.5q-0.55,-0.5 -0.55,-1.28q0,-0.45 0.21,-0.83q0.2,-0.39 0.54,-0.61q0.35,-0.23 0.77,-0.34q0.3,-0.1 0.94,-0.17q1.26,-0.14 1.87,-0.36q0,-0.22 0,-0.27q0,-0.66 -0.3,-0.92q-0.4,-0.34 -1.2,-0.34q-0.73,0 -1.09,0.26q-0.36,0.25 -0.53,0.91l-1.04,-0.14q0.15,-0.66 0.47,-1.07q0.33,-0.4 0.94,-0.62q0.61,-0.22 1.41,-0.22q0.79,0 1.29,0.19q0.5,0.19 0.74,0.47q0.23,0.28 0.33,0.72q0.04,0.26 0.04,0.96l0,1.41q0,1.47 0.07,1.86q0.07,0.39 0.28,0.75l-1.11,0q-0.16,-0.33 -0.21,-0.77zm-0.09,-2.36q-0.58,0.24 -1.72,0.41q-0.65,0.09 -0.92,0.22q-0.27,0.11 -0.42,0.33q-0.14,0.22 -0.14,0.5q0,0.42 0.31,0.7q0.33,0.28 0.94,0.28q0.61,0 1.08,-0.26q0.48,-0.27 0.7,-0.74q0.17,-0.36 0.17,-1.04l0,-0.4zm3.03,3.13l0,-6.22l0.94,0l0,0.88q0.69,-1.02 1.98,-1.02q0.57,0 1.04,0.2q0.48,0.21 0.71,0.53q0.24,0.33 0.33,0.77q0.05,0.3 0.05,1.03l0,3.83l-1.05,0l0,-3.78q0,-0.66 -0.12,-0.97q-0.13,-0.31 -0.44,-0.5q-0.31,-0.2 -0.73,-0.2q-0.68,0 -1.18,0.43q-0.48,0.43 -0.48,1.61l0,3.41l-1.05,0zm15.25,-1.02l0,1.02l-5.69,0q0,-0.38 0.13,-0.73q0.22,-0.58 0.69,-1.15q0.48,-0.56 1.39,-1.29q1.4,-1.16 1.89,-1.83q0.5,-0.67 0.5,-1.27q0,-0.62 -0.45,-1.04q-0.46,-0.44 -1.18,-0.44q-0.76,0 -1.22,0.45q-0.45,0.46 -0.46,1.27l-1.08,-0.11q0.11,-1.22 0.83,-1.84q0.73,-0.65 1.96,-0.65q1.24,0 1.96,0.69q0.72,0.69 0.72,1.71q0,0.51 -0.22,1.01q-0.21,0.49 -0.71,1.05q-0.48,0.54 -1.6,1.5q-0.96,0.79 -1.24,1.09q-0.26,0.28 -0.44,0.56l4.22,0zm1.46,-3.21q0,-1.54 0.31,-2.46q0.31,-0.94 0.92,-1.44q0.62,-0.5 1.56,-0.5q0.69,0 1.21,0.29q0.53,0.28 0.87,0.81q0.34,0.51 0.53,1.26q0.19,0.75 0.19,2.04q0,1.51 -0.31,2.43q-0.3,0.92 -0.93,1.44q-0.6,0.5 -1.56,0.5q-1.23,0 -1.95,-0.89q-0.84,-1.06 -0.84,-3.48zm1.07,0q0,2.1 0.5,2.81q0.5,0.7 1.22,0.7q0.74,0 1.22,-0.7q0.5,-0.71 0.5,-2.81q0,-2.13 -0.5,-2.82q-0.48,-0.7 -1.23,-0.7q-0.72,0 -1.16,0.61q-0.55,0.78 -0.55,2.91zm11.47,3.21l0,1.02l-5.69,0q0,-0.38 0.13,-0.73q0.22,-0.58 0.69,-1.15q0.48,-0.56 1.39,-1.29q1.4,-1.16 1.89,-1.83q0.5,-0.67 0.5,-1.27q0,-0.62 -0.45,-1.04q-0.46,-0.44 -1.18,-0.44q-0.76,0 -1.22,0.45q-0.45,0.46 -0.46,1.27l-1.08,-0.11q0.11,-1.22 0.83,-1.84q0.73,-0.65 1.96,-0.65q1.24,0 1.96,0.69q0.72,0.69 0.72,1.71q0,0.51 -0.22,1.01q-0.21,0.49 -0.71,1.05q-0.48,0.54 -1.6,1.5q-0.96,0.79 -1.24,1.09q-0.26,0.28 -0.44,0.56l4.22,0zm1.46,-3.21q0,-1.54 0.31,-2.46q0.31,-0.94 0.92,-1.44q0.62,-0.5 1.56,-0.5q0.69,0 1.21,0.29q0.53,0.28 0.87,0.81q0.34,0.51 0.53,1.26q0.19,0.75 0.19,2.04q0,1.51 -0.31,2.43q-0.3,0.92 -0.93,1.44q-0.6,0.5 -1.56,0.5q-1.23,0 -1.95,-0.89q-0.84,-1.06 -0.84,-3.48zm1.07,0q0,2.1 0.5,2.81q0.5,0.7 1.22,0.7q0.74,0 1.22,-0.7q0.5,-0.71 0.5,-2.81q0,-2.13 -0.5,-2.82q-0.48,-0.7 -1.23,-0.7q-0.72,0 -1.16,0.61q-0.55,0.78 -0.55,2.91z" fill="#000000" fill-rule="nonzero" id="svg_264"/>
   <path d="m427.6,416.01l1.03,-0.14q0.03,0.99 0.36,1.35q0.33,0.35 0.92,0.35q0.42,0 0.73,-0.18q0.32,-0.21 0.43,-0.53q0.12,-0.35 0.12,-1.08l0,-5.92l1.13,0l0,5.86q0,1.07 -0.27,1.67q-0.25,0.59 -0.81,0.9q-0.57,0.3 -1.33,0.3q-1.13,0 -1.74,-0.64q-0.59,-0.66 -0.57,-1.94zm10.53,2.44l0,-0.92q-0.74,1.06 -1.99,1.06q-0.54,0 -1.03,-0.2q-0.47,-0.22 -0.7,-0.53q-0.24,-0.33 -0.33,-0.8q-0.06,-0.3 -0.06,-0.99l0,-3.84l1.06,0l0,3.45q0,0.82 0.06,1.11q0.1,0.41 0.41,0.66q0.33,0.23 0.81,0.23q0.47,0 0.88,-0.23q0.42,-0.25 0.59,-0.67q0.19,-0.42 0.19,-1.22l0,-3.33l1.05,0l0,6.22l-0.94,0zm2.89,0l0,-8.59l1.06,0l0,8.59l-1.06,0zm11.28,-1.02l0,1.02l-5.69,0q0,-0.38 0.13,-0.73q0.22,-0.58 0.68,-1.15q0.49,-0.56 1.4,-1.29q1.4,-1.16 1.89,-1.83q0.5,-0.67 0.5,-1.27q0,-0.62 -0.46,-1.04q-0.45,-0.44 -1.17,-0.44q-0.76,0 -1.22,0.45q-0.45,0.46 -0.47,1.27l-1.07,-0.11q0.1,-1.22 0.82,-1.84q0.74,-0.65 1.97,-0.65q1.24,0 1.96,0.69q0.71,0.69 0.71,1.71q0,0.51 -0.21,1.01q-0.21,0.49 -0.71,1.05q-0.48,0.54 -1.61,1.5q-0.95,0.79 -1.23,1.09q-0.27,0.28 -0.44,0.56l4.22,0zm1.45,-3.21q0,-1.54 0.32,-2.46q0.31,-0.94 0.92,-1.44q0.62,-0.5 1.56,-0.5q0.69,0 1.2,0.29q0.53,0.28 0.88,0.81q0.34,0.51 0.53,1.26q0.19,0.75 0.19,2.04q0,1.51 -0.32,2.43q-0.29,0.92 -0.92,1.44q-0.61,0.5 -1.56,0.5q-1.23,0 -1.95,-0.89q-0.85,-1.06 -0.85,-3.48zm1.08,0q0,2.1 0.5,2.81q0.5,0.7 1.22,0.7q0.73,0 1.22,-0.7q0.5,-0.71 0.5,-2.81q0,-2.13 -0.5,-2.82q-0.49,-0.7 -1.24,-0.7q-0.71,0 -1.15,0.61q-0.55,0.78 -0.55,2.91zm11.47,3.21l0,1.02l-5.69,0q0,-0.38 0.13,-0.73q0.22,-0.58 0.68,-1.15q0.49,-0.56 1.4,-1.29q1.4,-1.16 1.89,-1.83q0.5,-0.67 0.5,-1.27q0,-0.62 -0.46,-1.04q-0.45,-0.44 -1.17,-0.44q-0.76,0 -1.22,0.45q-0.45,0.46 -0.47,1.27l-1.07,-0.11q0.1,-1.22 0.82,-1.84q0.74,-0.65 1.97,-0.65q1.24,0 1.96,0.69q0.71,0.69 0.71,1.71q0,0.51 -0.21,1.01q-0.21,0.49 -0.71,1.05q-0.48,0.54 -1.61,1.5q-0.95,0.79 -1.23,1.09q-0.27,0.28 -0.44,0.56l4.22,0zm1.45,-3.21q0,-1.54 0.32,-2.46q0.31,-0.94 0.92,-1.44q0.62,-0.5 1.56,-0.5q0.69,0 1.2,0.29q0.53,0.28 0.88,0.81q0.34,0.51 0.53,1.26q0.19,0.75 0.19,2.04q0,1.51 -0.32,2.43q-0.29,0.92 -0.92,1.44q-0.61,0.5 -1.56,0.5q-1.23,0 -1.95,-0.89q-0.85,-1.06 -0.85,-3.48zm1.08,0q0,2.1 0.5,2.81q0.5,0.7 1.22,0.7q0.73,0 1.22,-0.7q0.5,-0.71 0.5,-2.81q0,-2.13 -0.5,-2.82q-0.49,-0.7 -1.24,-0.7q-0.71,0 -1.15,0.61q-0.55,0.78 -0.55,2.91z" fill="#000000" fill-rule="nonzero" id="svg_265"/>
   <path d="m488.3,416.01l1.03,-0.14q0.03,0.99 0.36,1.35q0.32,0.35 0.92,0.35q0.42,0 0.73,-0.18q0.32,-0.21 0.42,-0.53q0.13,-0.35 0.13,-1.08l0,-5.92l1.12,0l0,5.86q0,1.07 -0.26,1.67q-0.25,0.59 -0.81,0.9q-0.57,0.3 -1.33,0.3q-1.13,0 -1.74,-0.64q-0.59,-0.66 -0.57,-1.94zm10.51,1.67q-0.59,0.5 -1.14,0.71q-0.53,0.2 -1.16,0.2q-1.03,0 -1.57,-0.5q-0.55,-0.5 -0.55,-1.28q0,-0.45 0.2,-0.83q0.21,-0.39 0.55,-0.61q0.34,-0.23 0.77,-0.34q0.29,-0.1 0.93,-0.17q1.27,-0.14 1.88,-0.36q0,-0.22 0,-0.27q0,-0.66 -0.3,-0.92q-0.41,-0.34 -1.2,-0.34q-0.74,0 -1.1,0.26q-0.36,0.25 -0.53,0.91l-1.03,-0.14q0.14,-0.66 0.47,-1.07q0.33,-0.4 0.94,-0.62q0.61,-0.22 1.4,-0.22q0.8,0 1.3,0.19q0.5,0.19 0.74,0.47q0.23,0.28 0.32,0.72q0.05,0.26 0.05,0.96l0,1.41q0,1.47 0.06,1.86q0.08,0.39 0.28,0.75l-1.11,0q-0.15,-0.33 -0.2,-0.77zm-0.09,-2.36q-0.58,0.24 -1.72,0.41q-0.66,0.09 -0.92,0.22q-0.27,0.11 -0.42,0.33q-0.15,0.22 -0.15,0.5q0,0.42 0.32,0.7q0.33,0.28 0.93,0.28q0.61,0 1.08,-0.26q0.49,-0.27 0.71,-0.74q0.17,-0.36 0.17,-1.04l0,-0.4zm3.03,3.13l0,-6.22l0.94,0l0,0.88q0.68,-1.02 1.98,-1.02q0.56,0 1.03,0.2q0.49,0.21 0.72,0.53q0.24,0.33 0.33,0.77q0.05,0.3 0.05,1.03l0,3.83l-1.05,0l0,-3.78q0,-0.66 -0.13,-0.97q-0.12,-0.31 -0.43,-0.5q-0.32,-0.2 -0.74,-0.2q-0.67,0 -1.17,0.43q-0.48,0.43 -0.48,1.61l0,3.41l-1.05,0zm15.25,-1.02l0,1.02l-5.69,0q0,-0.38 0.13,-0.73q0.22,-0.58 0.68,-1.15q0.49,-0.56 1.39,-1.29q1.41,-1.16 1.9,-1.83q0.5,-0.67 0.5,-1.27q0,-0.62 -0.46,-1.04q-0.45,-0.44 -1.17,-0.44q-0.77,0 -1.22,0.45q-0.45,0.46 -0.47,1.27l-1.08,-0.11q0.11,-1.22 0.83,-1.84q0.74,-0.65 1.97,-0.65q1.24,0 1.95,0.69q0.72,0.69 0.72,1.71q0,0.51 -0.22,1.01q-0.2,0.49 -0.7,1.05q-0.48,0.54 -1.61,1.5q-0.95,0.79 -1.23,1.09q-0.27,0.28 -0.44,0.56l4.22,0zm1.45,-3.21q0,-1.54 0.31,-2.46q0.32,-0.94 0.93,-1.44q0.62,-0.5 1.56,-0.5q0.69,0 1.2,0.29q0.53,0.28 0.88,0.81q0.34,0.51 0.53,1.26q0.19,0.75 0.19,2.04q0,1.51 -0.32,2.43q-0.29,0.92 -0.92,1.44q-0.61,0.5 -1.56,0.5q-1.24,0 -1.95,-0.89q-0.85,-1.06 -0.85,-3.48zm1.08,0q0,2.1 0.5,2.81q0.5,0.7 1.22,0.7q0.73,0 1.22,-0.7q0.5,-0.71 0.5,-2.81q0,-2.13 -0.5,-2.82q-0.49,-0.7 -1.24,-0.7q-0.72,0 -1.15,0.61q-0.55,0.78 -0.55,2.91zm11.47,3.21l0,1.02l-5.69,0q0,-0.38 0.13,-0.73q0.22,-0.58 0.68,-1.15q0.49,-0.56 1.39,-1.29q1.41,-1.16 1.9,-1.83q0.5,-0.67 0.5,-1.27q0,-0.62 -0.46,-1.04q-0.45,-0.44 -1.17,-0.44q-0.77,0 -1.22,0.45q-0.45,0.46 -0.47,1.27l-1.08,-0.11q0.11,-1.22 0.83,-1.84q0.74,-0.65 1.97,-0.65q1.24,0 1.95,0.69q0.72,0.69 0.72,1.71q0,0.51 -0.22,1.01q-0.2,0.49 -0.7,1.05q-0.48,0.54 -1.61,1.5q-0.95,0.79 -1.23,1.09q-0.27,0.28 -0.44,0.56l4.22,0zm5.42,1.02l-1.05,0l0,-6.72q-0.39,0.36 -1.01,0.74q-0.61,0.35 -1.1,0.53l0,-1.02q0.88,-0.42 1.54,-1q0.67,-0.59 0.95,-1.16l0.67,0l0,8.63z" fill="#000000" fill-rule="nonzero" id="svg_266"/>
   <path d="m551.97,416.01l1.03,-0.14q0.04,0.99 0.36,1.35q0.33,0.35 0.93,0.35q0.42,0 0.73,-0.18q0.31,-0.21 0.42,-0.53q0.13,-0.35 0.13,-1.08l0,-5.92l1.12,0l0,5.86q0,1.07 -0.26,1.67q-0.25,0.59 -0.82,0.9q-0.56,0.3 -1.32,0.3q-1.13,0 -1.74,-0.64q-0.59,-0.66 -0.58,-1.94zm10.53,2.44l0,-0.92q-0.73,1.06 -1.98,1.06q-0.55,0 -1.03,-0.2q-0.47,-0.22 -0.7,-0.53q-0.24,-0.33 -0.33,-0.8q-0.07,-0.3 -0.07,-0.99l0,-3.84l1.07,0l0,3.45q0,0.82 0.06,1.11q0.09,0.41 0.41,0.66q0.32,0.23 0.81,0.23q0.47,0 0.87,-0.23q0.43,-0.25 0.6,-0.67q0.18,-0.42 0.18,-1.22l0,-3.33l1.05,0l0,6.22l-0.94,0zm2.89,0l0,-8.59l1.07,0l0,8.59l-1.07,0zm11.29,-1.02l0,1.02l-5.69,0q0,-0.38 0.12,-0.73q0.22,-0.58 0.69,-1.15q0.49,-0.56 1.39,-1.29q1.41,-1.16 1.89,-1.83q0.5,-0.67 0.5,-1.27q0,-0.62 -0.45,-1.04q-0.45,-0.44 -1.17,-0.44q-0.77,0 -1.22,0.45q-0.45,0.46 -0.47,1.27l-1.08,-0.11q0.11,-1.22 0.83,-1.84q0.73,-0.65 1.97,-0.65q1.23,0 1.95,0.69q0.72,0.69 0.72,1.71q0,0.51 -0.22,1.01q-0.2,0.49 -0.7,1.05q-0.49,0.54 -1.61,1.5q-0.95,0.79 -1.24,1.09q-0.26,0.28 -0.43,0.56l4.22,0zm1.45,-3.21q0,-1.54 0.31,-2.46q0.31,-0.94 0.92,-1.44q0.63,-0.5 1.57,-0.5q0.68,0 1.2,0.29q0.53,0.28 0.87,0.81q0.35,0.51 0.54,1.26q0.18,0.75 0.18,2.04q0,1.51 -0.31,2.43q-0.3,0.92 -0.92,1.44q-0.61,0.5 -1.56,0.5q-1.24,0 -1.96,-0.89q-0.84,-1.06 -0.84,-3.48zm1.08,0q0,2.1 0.5,2.81q0.5,0.7 1.22,0.7q0.73,0 1.21,-0.7q0.5,-0.71 0.5,-2.81q0,-2.13 -0.5,-2.82q-0.48,-0.7 -1.23,-0.7q-0.72,0 -1.16,0.61q-0.54,0.78 -0.54,2.91zm11.47,3.21l0,1.02l-5.69,0q0,-0.38 0.12,-0.73q0.22,-0.58 0.69,-1.15q0.49,-0.56 1.39,-1.29q1.41,-1.16 1.89,-1.83q0.5,-0.67 0.5,-1.27q0,-0.62 -0.45,-1.04q-0.45,-0.44 -1.17,-0.44q-0.77,0 -1.22,0.45q-0.45,0.46 -0.47,1.27l-1.08,-0.11q0.11,-1.22 0.83,-1.84q0.73,-0.65 1.97,-0.65q1.23,0 1.95,0.69q0.72,0.69 0.72,1.71q0,0.51 -0.22,1.01q-0.2,0.49 -0.7,1.05q-0.49,0.54 -1.61,1.5q-0.95,0.79 -1.24,1.09q-0.26,0.28 -0.43,0.56l4.22,0zm5.42,1.02l-1.05,0l0,-6.72q-0.39,0.36 -1.01,0.74q-0.61,0.35 -1.1,0.53l0,-1.02q0.88,-0.42 1.53,-1q0.67,-0.59 0.96,-1.16l0.67,0l0,8.63z" fill="#000000" fill-rule="nonzero" id="svg_267"/>
   <path d="m612.67,416.01l1.03,-0.14q0.03,0.99 0.36,1.35q0.33,0.35 0.92,0.35q0.43,0 0.74,-0.18q0.31,-0.21 0.42,-0.53q0.13,-0.35 0.13,-1.08l0,-5.92l1.12,0l0,5.86q0,1.07 -0.27,1.67q-0.25,0.59 -0.81,0.9q-0.56,0.3 -1.33,0.3q-1.12,0 -1.73,-0.64q-0.59,-0.66 -0.58,-1.94zm10.52,1.67q-0.6,0.5 -1.14,0.71q-0.53,0.2 -1.16,0.2q-1.03,0 -1.58,-0.5q-0.54,-0.5 -0.54,-1.28q0,-0.45 0.2,-0.83q0.2,-0.39 0.55,-0.61q0.34,-0.23 0.76,-0.34q0.3,-0.1 0.94,-0.17q1.26,-0.14 1.87,-0.36q0,-0.22 0,-0.27q0,-0.66 -0.29,-0.92q-0.41,-0.34 -1.21,-0.34q-0.73,0 -1.09,0.26q-0.36,0.25 -0.53,0.91l-1.03,-0.14q0.14,-0.66 0.47,-1.07q0.32,-0.4 0.93,-0.62q0.61,-0.22 1.41,-0.22q0.8,0 1.3,0.19q0.5,0.19 0.73,0.47q0.24,0.28 0.33,0.72q0.05,0.26 0.05,0.96l0,1.41q0,1.47 0.06,1.86q0.08,0.39 0.28,0.75l-1.11,0q-0.16,-0.33 -0.2,-0.77zm-0.1,-2.36q-0.57,0.24 -1.72,0.41q-0.65,0.09 -0.92,0.22q-0.26,0.11 -0.42,0.33q-0.14,0.22 -0.14,0.5q0,0.42 0.31,0.7q0.33,0.28 0.94,0.28q0.61,0 1.08,-0.26q0.48,-0.27 0.7,-0.74q0.17,-0.36 0.17,-1.04l0,-0.4zm3.03,3.13l0,-6.22l0.94,0l0,0.88q0.69,-1.02 1.99,-1.02q0.56,0 1.03,0.2q0.48,0.21 0.72,0.53q0.23,0.33 0.32,0.77q0.05,0.3 0.05,1.03l0,3.83l-1.05,0l0,-3.78q0,-0.66 -0.12,-0.97q-0.13,-0.31 -0.44,-0.5q-0.31,-0.2 -0.73,-0.2q-0.67,0 -1.17,0.43q-0.49,0.43 -0.49,1.61l0,3.41l-1.05,0zm15.25,-1.02l0,1.02l-5.68,0q0,-0.38 0.12,-0.73q0.22,-0.58 0.69,-1.15q0.48,-0.56 1.39,-1.29q1.41,-1.16 1.89,-1.83q0.5,-0.67 0.5,-1.27q0,-0.62 -0.45,-1.04q-0.46,-0.44 -1.17,-0.44q-0.77,0 -1.22,0.45q-0.46,0.46 -0.47,1.27l-1.08,-0.11q0.11,-1.22 0.83,-1.84q0.73,-0.65 1.97,-0.65q1.23,0 1.95,0.69q0.72,0.69 0.72,1.71q0,0.51 -0.22,1.01q-0.2,0.49 -0.7,1.05q-0.49,0.54 -1.61,1.5q-0.96,0.79 -1.24,1.09q-0.26,0.28 -0.43,0.56l4.21,0zm1.46,-3.21q0,-1.54 0.31,-2.46q0.31,-0.94 0.92,-1.44q0.63,-0.5 1.56,-0.5q0.69,0 1.21,0.29q0.53,0.28 0.87,0.81q0.35,0.51 0.53,1.26q0.19,0.75 0.19,2.04q0,1.51 -0.31,2.43q-0.3,0.92 -0.92,1.44q-0.61,0.5 -1.57,0.5q-1.23,0 -1.95,-0.89q-0.84,-1.06 -0.84,-3.48zm1.08,0q0,2.1 0.5,2.81q0.5,0.7 1.21,0.7q0.74,0 1.22,-0.7q0.5,-0.71 0.5,-2.81q0,-2.13 -0.5,-2.82q-0.48,-0.7 -1.23,-0.7q-0.72,0 -1.16,0.61q-0.54,0.78 -0.54,2.91zm11.46,3.21l0,1.02l-5.68,0q0,-0.38 0.12,-0.73q0.22,-0.58 0.69,-1.15q0.48,-0.56 1.39,-1.29q1.41,-1.16 1.89,-1.83q0.5,-0.67 0.5,-1.27q0,-0.62 -0.45,-1.04q-0.46,-0.44 -1.17,-0.44q-0.77,0 -1.22,0.45q-0.46,0.46 -0.47,1.27l-1.08,-0.11q0.11,-1.22 0.83,-1.84q0.73,-0.65 1.97,-0.65q1.23,0 1.95,0.69q0.72,0.69 0.72,1.71q0,0.51 -0.22,1.01q-0.2,0.49 -0.7,1.05q-0.49,0.54 -1.61,1.5q-0.96,0.79 -1.24,1.09q-0.26,0.28 -0.43,0.56l4.21,0zm7,0l0,1.02l-5.68,0q0,-0.38 0.12,-0.73q0.22,-0.58 0.69,-1.15q0.48,-0.56 1.39,-1.29q1.41,-1.16 1.89,-1.83q0.5,-0.67 0.5,-1.27q0,-0.62 -0.45,-1.04q-0.46,-0.44 -1.17,-0.44q-0.77,0 -1.22,0.45q-0.46,0.46 -0.47,1.27l-1.08,-0.11q0.11,-1.22 0.83,-1.84q0.73,-0.65 1.97,-0.65q1.23,0 1.95,0.69q0.72,0.69 0.72,1.71q0,0.51 -0.22,1.01q-0.2,0.49 -0.7,1.05q-0.49,0.54 -1.61,1.5q-0.96,0.79 -1.24,1.09q-0.26,0.28 -0.43,0.56l4.21,0z" fill="#000000" fill-rule="nonzero" id="svg_268"/>
   <path d="m676.35,416.01l1.03,-0.14q0.03,0.99 0.36,1.35q0.33,0.35 0.92,0.35q0.42,0 0.74,-0.18q0.31,-0.21 0.42,-0.53q0.12,-0.35 0.12,-1.08l0,-5.92l1.13,0l0,5.86q0,1.07 -0.27,1.67q-0.25,0.59 -0.81,0.9q-0.56,0.3 -1.33,0.3q-1.12,0 -1.73,-0.64q-0.6,-0.66 -0.58,-1.94zm10.53,2.44l0,-0.92q-0.73,1.06 -1.98,1.06q-0.55,0 -1.04,-0.2q-0.46,-0.22 -0.7,-0.53q-0.23,-0.33 -0.33,-0.8q-0.06,-0.3 -0.06,-0.99l0,-3.84l1.06,0l0,3.45q0,0.82 0.07,1.11q0.09,0.41 0.4,0.66q0.33,0.23 0.81,0.23q0.47,0 0.88,-0.23q0.42,-0.25 0.59,-0.67q0.19,-0.42 0.19,-1.22l0,-3.33l1.05,0l0,6.22l-0.94,0zm2.89,0l0,-8.59l1.06,0l0,8.59l-1.06,0zm11.28,-1.02l0,1.02l-5.69,0q0,-0.38 0.13,-0.73q0.22,-0.58 0.69,-1.15q0.48,-0.56 1.39,-1.29q1.4,-1.16 1.89,-1.83q0.5,-0.67 0.5,-1.27q0,-0.62 -0.46,-1.04q-0.45,-0.44 -1.17,-0.44q-0.76,0 -1.22,0.45q-0.45,0.46 -0.46,1.27l-1.08,-0.11q0.11,-1.22 0.83,-1.84q0.73,-0.65 1.96,-0.65q1.24,0 1.96,0.69q0.72,0.69 0.72,1.71q0,0.51 -0.22,1.01q-0.21,0.49 -0.71,1.05q-0.48,0.54 -1.61,1.5q-0.95,0.79 -1.23,1.09q-0.27,0.28 -0.44,0.56l4.22,0zm1.45,-3.21q0,-1.54 0.32,-2.46q0.31,-0.94 0.92,-1.44q0.62,-0.5 1.56,-0.5q0.69,0 1.2,0.29q0.54,0.28 0.88,0.81q0.34,0.51 0.53,1.26q0.19,0.75 0.19,2.04q0,1.51 -0.31,2.43q-0.3,0.92 -0.93,1.44q-0.61,0.5 -1.56,0.5q-1.23,0 -1.95,-0.89q-0.85,-1.06 -0.85,-3.48zm1.08,0q0,2.1 0.5,2.81q0.5,0.7 1.22,0.7q0.74,0 1.22,-0.7q0.5,-0.71 0.5,-2.81q0,-2.13 -0.5,-2.82q-0.48,-0.7 -1.23,-0.7q-0.72,0 -1.16,0.61q-0.55,0.78 -0.55,2.91zm11.47,3.21l0,1.02l-5.69,0q0,-0.38 0.13,-0.73q0.22,-0.58 0.69,-1.15q0.48,-0.56 1.39,-1.29q1.4,-1.16 1.89,-1.83q0.5,-0.67 0.5,-1.27q0,-0.62 -0.46,-1.04q-0.45,-0.44 -1.17,-0.44q-0.76,0 -1.22,0.45q-0.45,0.46 -0.46,1.27l-1.08,-0.11q0.11,-1.22 0.83,-1.84q0.73,-0.65 1.96,-0.65q1.24,0 1.96,0.69q0.72,0.69 0.72,1.71q0,0.51 -0.22,1.01q-0.21,0.49 -0.71,1.05q-0.48,0.54 -1.61,1.5q-0.95,0.79 -1.23,1.09q-0.27,0.28 -0.44,0.56l4.22,0zm7,0l0,1.02l-5.69,0q0,-0.38 0.13,-0.73q0.22,-0.58 0.69,-1.15q0.48,-0.56 1.39,-1.29q1.4,-1.16 1.89,-1.83q0.5,-0.67 0.5,-1.27q0,-0.62 -0.46,-1.04q-0.45,-0.44 -1.17,-0.44q-0.76,0 -1.22,0.45q-0.45,0.46 -0.46,1.27l-1.08,-0.11q0.11,-1.22 0.83,-1.84q0.73,-0.65 1.96,-0.65q1.24,0 1.96,0.69q0.72,0.69 0.72,1.71q0,0.51 -0.22,1.01q-0.21,0.49 -0.71,1.05q-0.48,0.54 -1.61,1.5q-0.95,0.79 -1.23,1.09q-0.27,0.28 -0.44,0.56l4.22,0z" fill="#000000" fill-rule="nonzero" id="svg_269"/>
   <path d="m320.5,126.55c0,3.31 -2.69,6 -6,6c-3.31,0 -6,-2.69 -6,-6c0,-3.31 2.69,-6 6,-6c3.31,0 6,2.69 6,6z" fill="#4285f4" fill-rule="nonzero" id="svg_270"/>
   <path d="m329.42,130.55l0,-8.59l2.97,0q1,0 1.53,0.12q0.74,0.17 1.25,0.61q0.69,0.58 1.02,1.49q0.34,0.89 0.34,2.03q0,0.98 -0.23,1.73q-0.22,0.75 -0.58,1.25q-0.36,0.5 -0.8,0.78q-0.42,0.28 -1.01,0.44q-0.6,0.14 -1.38,0.14l-3.11,0zm1.14,-1.02l1.83,0q0.86,0 1.34,-0.15q0.49,-0.16 0.77,-0.45q0.41,-0.4 0.63,-1.08q0.23,-0.69 0.23,-1.66q0,-1.34 -0.45,-2.06q-0.44,-0.74 -1.07,-0.99q-0.46,-0.17 -1.46,-0.17l-1.82,0l0,6.56zm11.82,1.02l0,-0.92q-0.74,1.06 -1.99,1.06q-0.55,0 -1.03,-0.2q-0.47,-0.22 -0.7,-0.53q-0.24,-0.33 -0.33,-0.8q-0.06,-0.3 -0.06,-0.98l0,-3.85l1.06,0l0,3.45q0,0.82 0.06,1.11q0.09,0.41 0.41,0.66q0.33,0.23 0.81,0.23q0.47,0 0.87,-0.23q0.43,-0.25 0.6,-0.67q0.19,-0.42 0.19,-1.22l0,-3.33l1.04,0l0,6.22l-0.93,0zm5.21,-0.94l0.16,0.92q-0.45,0.1 -0.8,0.1q-0.57,0 -0.89,-0.17q-0.31,-0.19 -0.45,-0.49q-0.13,-0.29 -0.13,-1.25l0,-3.58l-0.76,0l0,-0.81l0.76,0l0,-1.55l1.05,-0.62l0,2.17l1.06,0l0,0.81l-1.06,0l0,3.64q0,0.46 0.05,0.58q0.06,0.13 0.19,0.21q0.12,0.07 0.36,0.07q0.18,0 0.46,-0.03zm4.77,-1.34l1.03,0.14q-0.17,1.06 -0.87,1.67q-0.71,0.61 -1.72,0.61q-1.28,0 -2.07,-0.83q-0.76,-0.84 -0.76,-2.4q0,-1 0.33,-1.75q0.34,-0.77 1.01,-1.14q0.69,-0.38 1.5,-0.38q1,0 1.64,0.52q0.66,0.5 0.85,1.45l-1.03,0.16q-0.14,-0.63 -0.52,-0.94q-0.37,-0.33 -0.91,-0.33q-0.79,0 -1.29,0.58q-0.5,0.56 -0.5,1.8q0,1.26 0.48,1.82q0.49,0.57 1.25,0.57q0.63,0 1.03,-0.38q0.42,-0.37 0.55,-1.17zm1.94,2.28l0,-8.59l1.04,0l0,3.07q0.74,-0.84 1.86,-0.84q0.71,0 1.21,0.28q0.51,0.27 0.73,0.75q0.22,0.47 0.22,1.39l0,3.94l-1.05,0l0,-3.94q0,-0.79 -0.34,-1.15q-0.34,-0.36 -0.97,-0.36q-0.47,0 -0.89,0.25q-0.41,0.23 -0.59,0.65q-0.18,0.41 -0.18,1.14l0,3.41l-1.04,0z" fill="#1a1a1a" fill-rule="nonzero" id="svg_271"/>
   <path d="m388.5,126.55c0,3.31 -2.69,6 -6,6c-3.31,0 -6,-2.69 -6,-6c0,-3.31 2.69,-6 6,-6c3.31,0 6,2.69 6,6z" fill="#c27ba0" fill-rule="nonzero" id="svg_272"/>
   <path d="m397.39,130.55l0,-8.59l1.72,0l2.03,6.07q0.28,0.86 0.41,1.29q0.14,-0.47 0.45,-1.38l2.06,-5.98l1.53,0l0,8.59l-1.09,0l0,-7.19l-2.5,7.19l-1.03,0l-2.49,-7.31l0,7.31l-1.09,0zm8.52,-3.11q0,-1.73 0.95,-2.56q0.8,-0.69 1.95,-0.69q1.28,0 2.1,0.84q0.82,0.83 0.82,2.32q0,1.2 -0.35,1.89q-0.36,0.69 -1.07,1.08q-0.68,0.37 -1.5,0.37q-1.29,0 -2.11,-0.83q-0.79,-0.84 -0.79,-2.42zm1.07,0q0,1.19 0.52,1.78q0.53,0.6 1.31,0.6q0.8,0 1.32,-0.6q0.51,-0.59 0.51,-1.81q0,-1.16 -0.53,-1.75q-0.52,-0.59 -1.3,-0.59q-0.78,0 -1.31,0.59q-0.52,0.58 -0.52,1.78zm6.3,3.11l0,-6.22l0.95,0l0,0.94q0.36,-0.66 0.66,-0.86q0.31,-0.22 0.69,-0.22q0.53,0 1.08,0.33l-0.36,0.98q-0.39,-0.23 -0.77,-0.23q-0.36,0 -0.64,0.22q-0.26,0.2 -0.37,0.58q-0.19,0.56 -0.19,1.21l0,3.27l-1.05,0zm3.63,-3.11q0,-1.73 0.95,-2.56q0.8,-0.69 1.95,-0.69q1.28,0 2.1,0.84q0.82,0.83 0.82,2.32q0,1.2 -0.35,1.89q-0.36,0.69 -1.07,1.08q-0.68,0.37 -1.5,0.37q-1.29,0 -2.11,-0.83q-0.79,-0.84 -0.79,-2.42zm1.07,0q0,1.19 0.52,1.78q0.53,0.6 1.31,0.6q0.8,0 1.32,-0.6q0.51,-0.59 0.51,-1.81q0,-1.16 -0.53,-1.75q-0.52,-0.59 -1.3,-0.59q-0.78,0 -1.31,0.59q-0.52,0.58 -0.52,1.78zm10.38,0.83l1.03,0.14q-0.17,1.06 -0.87,1.67q-0.71,0.61 -1.72,0.61q-1.28,0 -2.07,-0.83q-0.76,-0.84 -0.76,-2.4q0,-1 0.33,-1.75q0.34,-0.77 1.01,-1.14q0.69,-0.38 1.5,-0.38q1,0 1.64,0.52q0.66,0.5 0.85,1.45l-1.03,0.16q-0.14,-0.63 -0.52,-0.94q-0.37,-0.33 -0.91,-0.33q-0.79,0 -1.29,0.58q-0.5,0.56 -0.5,1.8q0,1.26 0.48,1.82q0.49,0.57 1.25,0.57q0.63,0 1.03,-0.38q0.42,-0.37 0.55,-1.17zm6,0l1.03,0.14q-0.17,1.06 -0.87,1.67q-0.71,0.61 -1.72,0.61q-1.28,0 -2.07,-0.83q-0.76,-0.84 -0.76,-2.4q0,-1 0.33,-1.75q0.34,-0.77 1.01,-1.14q0.69,-0.38 1.5,-0.38q1,0 1.64,0.52q0.66,0.5 0.85,1.45l-1.03,0.16q-0.14,-0.63 -0.52,-0.94q-0.37,-0.33 -0.91,-0.33q-0.79,0 -1.29,0.58q-0.5,0.56 -0.5,1.8q0,1.26 0.48,1.82q0.49,0.57 1.25,0.57q0.63,0 1.03,-0.38q0.42,-0.37 0.55,-1.17zm1.55,-0.83q0,-1.73 0.95,-2.56q0.8,-0.69 1.95,-0.69q1.28,0 2.1,0.84q0.82,0.83 0.82,2.32q0,1.2 -0.35,1.89q-0.36,0.69 -1.07,1.08q-0.68,0.37 -1.5,0.37q-1.29,0 -2.11,-0.83q-0.79,-0.84 -0.79,-2.42zm1.07,0q0,1.19 0.52,1.78q0.53,0.6 1.31,0.6q0.8,0 1.32,-0.6q0.51,-0.59 0.51,-1.81q0,-1.16 -0.53,-1.75q-0.52,-0.59 -1.3,-0.59q-0.78,0 -1.31,0.59q-0.52,0.58 -0.52,1.78z" fill="#1a1a1a" fill-rule="nonzero" id="svg_273"/>
   <path d="m470.5,126.55c0,3.31 -2.69,6 -6,6c-3.31,0 -6,-2.69 -6,-6c0,-3.31 2.69,-6 6,-6c3.31,0 6,2.69 6,6z" fill="#fbbc04" fill-rule="nonzero" id="svg_274"/>
   <path d="m479.08,126.36q0,-2.14 1.14,-3.34q1.16,-1.22 2.97,-1.22q1.2,0 2.15,0.58q0.96,0.56 1.46,1.58q0.5,1.01 0.5,2.31q0,1.3 -0.53,2.33q-0.54,1.03 -1.5,1.56q-0.96,0.53 -2.08,0.53q-1.22,0 -2.17,-0.58q-0.96,-0.59 -1.46,-1.59q-0.48,-1.02 -0.48,-2.16zm1.17,0.02q0,1.56 0.83,2.45q0.84,0.89 2.11,0.89q1.28,0 2.11,-0.89q0.83,-0.9 0.83,-2.58q0,-1.04 -0.36,-1.82q-0.35,-0.79 -1.04,-1.21q-0.68,-0.44 -1.53,-0.44q-1.2,0 -2.07,0.83q-0.88,0.83 -0.88,2.77zm10.34,3.23l0.16,0.92q-0.45,0.1 -0.8,0.1q-0.57,0 -0.89,-0.17q-0.31,-0.19 -0.45,-0.49q-0.13,-0.29 -0.13,-1.25l0,-3.58l-0.76,0l0,-0.81l0.76,0l0,-1.55l1.05,-0.62l0,2.17l1.06,0l0,0.81l-1.06,0l0,3.64q0,0.46 0.05,0.58q0.06,0.13 0.19,0.21q0.12,0.07 0.36,0.07q0.18,0 0.46,-0.03zm0.71,0.94l0,-8.59l1.04,0l0,3.07q0.74,-0.84 1.86,-0.84q0.71,0 1.21,0.28q0.51,0.27 0.73,0.75q0.22,0.47 0.22,1.39l0,3.94l-1.05,0l0,-3.94q0,-0.79 -0.34,-1.15q-0.34,-0.36 -0.97,-0.36q-0.47,0 -0.89,0.25q-0.41,0.23 -0.59,0.65q-0.18,0.41 -0.18,1.14l0,3.41l-1.04,0zm11.25,-2l1.09,0.13q-0.25,0.95 -0.95,1.48q-0.71,0.53 -1.78,0.53q-1.36,0 -2.18,-0.84q-0.79,-0.85 -0.79,-2.36q0,-1.56 0.81,-2.42q0.81,-0.88 2.09,-0.88q1.25,0 2.04,0.84q0.79,0.85 0.79,2.4q0,0.09 0,0.28l-4.64,0q0.06,1.03 0.58,1.57q0.52,0.54 1.3,0.54q0.57,0 0.98,-0.3q0.42,-0.31 0.66,-0.97zm-3.46,-1.7l3.47,0q-0.06,-0.8 -0.39,-1.19q-0.51,-0.61 -1.31,-0.61q-0.73,0 -1.23,0.48q-0.49,0.49 -0.54,1.32zm6.19,3.7l0,-6.22l0.95,0l0,0.94q0.36,-0.66 0.66,-0.86q0.31,-0.22 0.69,-0.22q0.53,0 1.08,0.33l-0.36,0.98q-0.39,-0.23 -0.77,-0.23q-0.36,0 -0.64,0.22q-0.26,0.2 -0.37,0.58q-0.19,0.56 -0.19,1.21l0,3.27l-1.05,0zm8.16,0l-1.91,-6.22l1.1,0l0.98,3.6l0.37,1.32q0.04,-0.09 0.33,-1.28l0.99,-3.64l1.08,0l0.93,3.61l0.32,1.19l0.35,-1.2l1.07,-3.6l1.03,0l-1.95,6.22l-1.1,0l-0.98,-3.73l-0.25,-1.05l-1.25,4.78l-1.11,0zm12.11,-2l1.09,0.13q-0.25,0.95 -0.95,1.48q-0.71,0.53 -1.78,0.53q-1.36,0 -2.18,-0.84q-0.79,-0.85 -0.79,-2.36q0,-1.56 0.81,-2.42q0.81,-0.88 2.09,-0.88q1.25,0 2.04,0.84q0.79,0.85 0.79,2.4q0,0.09 0,0.28l-4.64,0q0.06,1.03 0.58,1.57q0.52,0.54 1.3,0.54q0.57,0 0.98,-0.3q0.42,-0.31 0.66,-0.97zm-3.46,-1.7l3.47,0q-0.06,-0.8 -0.39,-1.19q-0.51,-0.61 -1.31,-0.61q-0.73,0 -1.23,0.48q-0.49,0.49 -0.54,1.32zm5.79,1.84l1.03,-0.16q0.09,0.63 0.48,0.96q0.41,0.33 1.14,0.33q0.72,0 1.06,-0.29q0.36,-0.29 0.36,-0.7q0,-0.36 -0.31,-0.56q-0.22,-0.14 -1.08,-0.36q-1.15,-0.3 -1.61,-0.5q-0.43,-0.22 -0.67,-0.59q-0.23,-0.38 -0.23,-0.85q0,-0.4 0.18,-0.76q0.19,-0.36 0.52,-0.6q0.25,-0.17 0.67,-0.29q0.42,-0.13 0.92,-0.13q0.72,0 1.27,0.22q0.56,0.2 0.83,0.56q0.26,0.36 0.36,0.96l-1.03,0.14q-0.07,-0.47 -0.41,-0.74q-0.33,-0.28 -0.95,-0.28q-0.72,0 -1.03,0.25q-0.32,0.23 -0.32,0.56q0,0.21 0.13,0.36q0.14,0.17 0.4,0.28q0.16,0.07 0.94,0.27q1.13,0.31 1.56,0.5q0.44,0.19 0.69,0.55q0.25,0.36 0.25,0.9q0,0.53 -0.31,1q-0.3,0.46 -0.88,0.72q-0.57,0.25 -1.31,0.25q-1.22,0 -1.86,-0.5q-0.62,-0.51 -0.79,-1.5zm9.71,0.92l0.16,0.92q-0.45,0.1 -0.8,0.1q-0.57,0 -0.89,-0.17q-0.31,-0.19 -0.45,-0.49q-0.13,-0.29 -0.13,-1.25l0,-3.58l-0.76,0l0,-0.81l0.76,0l0,-1.55l1.05,-0.62l0,2.17l1.06,0l0,0.81l-1.06,0l0,3.64q0,0.46 0.05,0.58q0.06,0.13 0.19,0.21q0.12,0.07 0.36,0.07q0.18,0 0.46,-0.03zm4.96,-1.06l1.09,0.13q-0.25,0.95 -0.95,1.48q-0.71,0.53 -1.78,0.53q-1.36,0 -2.18,-0.84q-0.79,-0.85 -0.79,-2.36q0,-1.56 0.81,-2.42q0.81,-0.88 2.09,-0.88q1.25,0 2.04,0.84q0.79,0.85 0.79,2.4q0,0.09 0,0.28l-4.64,0q0.06,1.03 0.58,1.57q0.52,0.54 1.3,0.54q0.57,0 0.98,-0.3q0.42,-0.31 0.66,-0.97zm-3.46,-1.7l3.47,0q-0.06,-0.8 -0.39,-1.19q-0.51,-0.61 -1.31,-0.61q-0.73,0 -1.23,0.48q-0.49,0.49 -0.54,1.32zm6.19,3.7l0,-6.22l0.95,0l0,0.94q0.36,-0.66 0.66,-0.86q0.31,-0.22 0.69,-0.22q0.53,0 1.08,0.33l-0.36,0.98q-0.39,-0.23 -0.77,-0.23q-0.36,0 -0.64,0.22q-0.26,0.2 -0.37,0.58q-0.19,0.56 -0.19,1.21l0,3.27l-1.05,0zm4.02,0l0,-6.22l0.93,0l0,0.88q0.69,-1.02 1.99,-1.02q0.56,0 1.03,0.2q0.48,0.21 0.72,0.54q0.23,0.32 0.33,0.76q0.04,0.3 0.04,1.03l0,3.83l-1.04,0l0,-3.78q0,-0.66 -0.13,-0.97q-0.12,-0.31 -0.44,-0.5q-0.31,-0.2 -0.73,-0.2q-0.67,0 -1.17,0.43q-0.49,0.43 -0.49,1.61l0,3.41l-1.04,0z" fill="#1a1a1a" fill-rule="nonzero" id="svg_275"/>
   <path d="m583.5,126.55c0,3.31 -2.69,6 -6,6c-3.31,0 -6,-2.69 -6,-6c0,-3.31 2.69,-6 6,-6c3.31,0 6,2.69 6,6z" fill="#34a853" fill-rule="nonzero" id="svg_276"/>
   <path d="m592.05,127.78l1.06,-0.09q0.08,0.66 0.36,1.06q0.28,0.41 0.86,0.68q0.59,0.25 1.33,0.25q0.64,0 1.14,-0.19q0.5,-0.21 0.73,-0.53q0.25,-0.35 0.25,-0.74q0,-0.4 -0.23,-0.7q-0.24,-0.31 -0.77,-0.52q-0.36,-0.14 -1.55,-0.42q-1.17,-0.28 -1.64,-0.53q-0.62,-0.33 -0.92,-0.8q-0.29,-0.48 -0.29,-1.07q0,-0.65 0.35,-1.21q0.38,-0.58 1.08,-0.86q0.72,-0.29 1.58,-0.29q0.95,0 1.69,0.31q0.73,0.3 1.12,0.9q0.39,0.6 0.43,1.35l-1.1,0.08q-0.09,-0.82 -0.61,-1.22q-0.5,-0.42 -1.48,-0.42q-1.03,0 -1.5,0.37q-0.47,0.38 -0.47,0.91q0,0.47 0.33,0.76q0.33,0.3 1.7,0.61q1.39,0.31 1.91,0.55q0.75,0.36 1.11,0.89q0.36,0.52 0.36,1.22q0,0.69 -0.4,1.3q-0.39,0.59 -1.12,0.93q-0.73,0.33 -1.66,0.33q-1.17,0 -1.97,-0.33q-0.78,-0.34 -1.23,-1.03q-0.44,-0.69 -0.45,-1.55zm12.33,2.77l0,-0.92q-0.74,1.06 -1.99,1.06q-0.55,0 -1.03,-0.2q-0.47,-0.22 -0.7,-0.53q-0.24,-0.33 -0.33,-0.8q-0.06,-0.3 -0.06,-0.98l0,-3.85l1.06,0l0,3.45q0,0.82 0.06,1.11q0.09,0.41 0.41,0.66q0.33,0.23 0.81,0.23q0.47,0 0.87,-0.23q0.43,-0.25 0.6,-0.67q0.19,-0.42 0.19,-1.22l0,-3.33l1.04,0l0,6.22l-0.93,0zm2.9,0l0,-6.22l0.95,0l0,0.94q0.36,-0.66 0.66,-0.86q0.31,-0.22 0.69,-0.22q0.53,0 1.08,0.33l-0.36,0.98q-0.39,-0.23 -0.77,-0.23q-0.36,0 -0.64,0.22q-0.26,0.2 -0.37,0.58q-0.19,0.56 -0.19,1.21l0,3.27l-1.05,0zm4.02,-7.37l0,-1.22l1.06,0l0,1.22l-1.06,0zm0,7.37l0,-6.22l1.06,0l0,6.22l-1.06,0zm3,0l0,-6.22l0.93,0l0,0.88q0.69,-1.02 1.99,-1.02q0.56,0 1.03,0.2q0.48,0.21 0.72,0.54q0.23,0.32 0.33,0.76q0.04,0.3 0.04,1.03l0,3.83l-1.04,0l0,-3.78q0,-0.66 -0.13,-0.97q-0.12,-0.31 -0.44,-0.5q-0.31,-0.2 -0.73,-0.2q-0.67,0 -1.17,0.43q-0.49,0.43 -0.49,1.61l0,3.41l-1.04,0zm11.06,-0.77q-0.59,0.5 -1.14,0.71q-0.53,0.2 -1.16,0.2q-1.03,0 -1.58,-0.5q-0.54,-0.5 -0.54,-1.28q0,-0.45 0.2,-0.83q0.2,-0.39 0.55,-0.61q0.34,-0.23 0.76,-0.34q0.3,-0.1 0.94,-0.17q1.27,-0.14 1.88,-0.36q0,-0.22 0,-0.27q0,-0.65 -0.3,-0.92q-0.41,-0.34 -1.2,-0.34q-0.74,0 -1.1,0.26q-0.36,0.25 -0.53,0.91l-1.03,-0.14q0.14,-0.66 0.47,-1.07q0.33,-0.4 0.94,-0.62q0.61,-0.22 1.4,-0.22q0.8,0 1.3,0.19q0.5,0.19 0.73,0.47q0.24,0.28 0.33,0.72q0.05,0.26 0.05,0.96l0,1.41q0,1.47 0.06,1.86q0.08,0.39 0.28,0.75l-1.11,0q-0.15,-0.33 -0.2,-0.77zm-0.09,-2.35q-0.58,0.23 -1.72,0.4q-0.66,0.1 -0.92,0.22q-0.27,0.11 -0.43,0.33q-0.14,0.22 -0.14,0.5q0,0.42 0.32,0.7q0.32,0.28 0.93,0.28q0.61,0 1.08,-0.26q0.49,-0.27 0.7,-0.74q0.18,-0.36 0.18,-1.04l0,-0.39zm3.03,3.12l0,-6.22l0.93,0l0,0.88q0.3,-0.47 0.79,-0.74q0.48,-0.28 1.11,-0.28q0.68,0 1.12,0.28q0.45,0.28 0.63,0.8q0.75,-1.08 1.92,-1.08q0.93,0 1.42,0.52q0.5,0.5 0.5,1.57l0,4.27l-1.05,0l0,-3.92q0,-0.63 -0.11,-0.91q-0.09,-0.28 -0.36,-0.45q-0.26,-0.17 -0.64,-0.17q-0.65,0 -1.09,0.43q-0.42,0.44 -0.42,1.41l0,3.61l-1.07,0l0,-4.05q0,-0.7 -0.26,-1.04q-0.25,-0.36 -0.83,-0.36q-0.45,0 -0.83,0.23q-0.37,0.24 -0.54,0.69q-0.18,0.45 -0.18,1.3l0,3.23l-1.04,0zm15.25,-2l1.09,0.13q-0.25,0.95 -0.95,1.48q-0.71,0.53 -1.78,0.53q-1.36,0 -2.18,-0.84q-0.79,-0.85 -0.79,-2.36q0,-1.56 0.81,-2.42q0.81,-0.88 2.09,-0.88q1.25,0 2.04,0.84q0.79,0.85 0.79,2.4q0,0.09 0,0.28l-4.64,0q0.06,1.03 0.58,1.57q0.52,0.54 1.3,0.54q0.57,0 0.98,-0.3q0.42,-0.31 0.66,-0.97zm-3.46,-1.7l3.47,0q-0.06,-0.8 -0.39,-1.19q-0.51,-0.61 -1.31,-0.61q-0.73,0 -1.23,0.48q-0.49,0.49 -0.54,1.32z" fill="#1a1a1a" fill-rule="nonzero" id="svg_277"/>
   <line fill="none" id="line-pasted-1760277889997-0" stroke="#ff0000" stroke-dasharray="5,5" stroke-linecap="round" stroke-linejoin="round" stroke-width="3" x1="445" x2="445" y1="155" y2="399"/>
  </g>
 </g>
</svg>