<svg xmlns="http://www.w3.org/2000/svg" xmlns:xlink="http://www.w3.org/1999/xlink" viewBox="151.88 82.428 279.451 166.452" width="279.451" height="166.452">
<polygon points="0,0 0,340 558,340 558,0" fill="#00000000" stroke="none" />
<path d="M 260.000,92.500 C 260.000,96.250 260.000,96.250 260.000,100.000" stroke-width="10.072" stroke="#ffffff" fill="none" stroke-linecap="round"></path><path d="M 260.000,100.000 C 260.110,102.754 260.000,102.750 260.000,105.500" stroke-width="9.200" stroke="#ffffff" fill="none" stroke-linecap="round"></path><path d="M 260.000,105.500 C 260.114,109.064 259.860,109.004 259.500,112.500" stroke-width="9.143" stroke="#ffffff" fill="none" stroke-linecap="round"></path><path d="M 259.500,112.500 C 258.722,116.079 258.864,116.064 257.500,119.500" stroke-width="9.083" stroke="#ffffff" fill="none" stroke-linecap="round"></path><path d="M 257.500,119.500 C 255.821,122.934 256.222,123.079 254.500,126.500" stroke-width="8.487" stroke="#ffffff" fill="none" stroke-linecap="round"></path><path d="M 254.500,126.500 C 253.434,129.731 253.321,129.684 252.500,133.000" stroke-width="8.553" stroke="#ffffff" fill="none" stroke-linecap="round"></path><path d="M 252.500,133.000 C 251.500,136.750 251.434,136.731 250.500,140.500" stroke-width="8.464" stroke="#ffffff" fill="none" stroke-linecap="round"></path><path d="M 250.500,140.500 C 249.474,144.243 249.500,144.250 248.500,148.000" stroke-width="8.404" stroke="#ffffff" fill="none" stroke-linecap="round"></path><path d="M 248.500,148.000 C 247.908,151.048 247.724,150.993 247.000,154.000" stroke-width="8.648" stroke="#ffffff" fill="none" stroke-linecap="round"></path><path d="M 247.000,154.000 C 245.608,157.455 245.908,157.548 244.500,161.000" stroke-width="8.507" stroke="#ffffff" fill="none" stroke-linecap="round"></path><path d="M 244.500,161.000 C 243.318,165.520 243.108,165.455 242.000,170.000" stroke-width="8.194" stroke="#ffffff" fill="none" stroke-linecap="round"></path><path d="M 242.000,170.000 C 240.983,174.090 240.818,174.020 239.500,178.000" stroke-width="8.270" stroke="#ffffff" fill="none" stroke-linecap="round"></path><path d="M 239.500,178.000 C 237.941,181.224 238.233,181.340 236.500,184.500" stroke-width="8.433" stroke="#ffffff" fill="none" stroke-linecap="round"></path><path d="M 236.500,184.500 C 235.184,187.474 235.191,187.474 234.000,190.500" stroke-width="8.582" stroke="#ffffff" fill="none" stroke-linecap="round"></path><path d="M 234.000,190.500 C 233.151,193.315 232.934,193.224 232.000,196.000" stroke-width="8.754" stroke="#ffffff" fill="none" stroke-linecap="round"></path><path d="M 232.000,196.000 C 230.750,198.500 230.901,198.565 229.500,201.000" stroke-width="8.821" stroke="#ffffff" fill="none" stroke-linecap="round"></path><path d="M 229.500,201.000 C 228.206,203.479 228.250,203.500 227.000,206.000" stroke-width="8.868" stroke="#ffffff" fill="none" stroke-linecap="round"></path><path d="M 227.000,206.000 C 225.491,209.246 225.456,209.229 224.000,212.500" stroke-width="8.997" stroke="#ffffff" fill="none" stroke-linecap="round"></path><path d="M 224.000,212.500 C 222.759,215.254 222.741,215.246 221.500,218.000" stroke-width="9.148" stroke="#ffffff" fill="none" stroke-linecap="round"></path><path d="M 221.500,218.000 C 220.100,221.301 220.009,221.254 218.500,224.500" stroke-width="9.097" stroke="#ffffff" fill="none" stroke-linecap="round"></path><path d="M 218.500,224.500 C 217.324,226.794 217.350,226.801 216.000,229.000" stroke-width="8.969" stroke="#ffffff" fill="none" stroke-linecap="round"></path><path d="M 216.000,229.000 C 214.634,232.099 214.324,231.794 212.500,234.500" stroke-width="9.114" stroke="#ffffff" fill="none" stroke-linecap="round"></path><path d="M 212.500,234.500 C 210.480,236.695 210.634,236.599 208.000,238.000" stroke-width="9.399" stroke="#ffffff" fill="none" stroke-linecap="round"></path><path d="M 208.000,238.000 C 205.535,239.379 205.730,239.195 203.000,239.500" stroke-width="9.380" stroke="#ffffff" fill="none" stroke-linecap="round"></path><path d="M 203.000,239.500 C 199.739,239.925 200.285,239.629 197.500,238.500" stroke-width="9.330" stroke="#ffffff" fill="none" stroke-linecap="round"></path><path d="M 197.500,238.500 C 194.572,235.643 194.239,236.425 192.000,232.500" stroke-width="9.007" stroke="#ffffff" fill="none" stroke-linecap="round"></path><path d="M 192.000,232.500 C 190.166,230.055 190.072,230.143 188.500,227.500" stroke-width="8.843" stroke="#ffffff" fill="none" stroke-linecap="round"></path><path d="M 188.500,227.500 C 186.200,224.401 186.416,224.305 184.500,221.000" stroke-width="8.566" stroke="#ffffff" fill="none" stroke-linecap="round"></path><path d="M 184.500,221.000 C 182.857,217.300 182.700,217.401 181.500,213.500" stroke-width="8.389" stroke="#ffffff" fill="none" stroke-linecap="round"></path><path d="M 181.500,213.500 C 180.219,210.307 180.357,210.300 179.500,207.000" stroke-width="8.523" stroke="#ffffff" fill="none" stroke-linecap="round"></path><path d="M 179.500,207.000 C 179.000,204.501 178.969,204.557 179.000,202.000" stroke-width="8.863" stroke="#ffffff" fill="none" stroke-linecap="round"></path><path d="M 179.000,202.000 C 178.472,198.968 179.000,199.251 179.500,196.500" stroke-width="9.166" stroke="#ffffff" fill="none" stroke-linecap="round"></path><path d="M 179.500,196.500 C 181.459,192.990 180.972,192.968 184.000,190.000" stroke-width="9.004" stroke="#ffffff" fill="none" stroke-linecap="round"></path><path d="M 184.000,190.000 C 186.014,188.266 185.709,187.990 188.000,186.500" stroke-width="8.967" stroke="#ffffff" fill="none" stroke-linecap="round"></path><path d="M 188.000,186.500 C 190.500,184.250 190.514,184.266 193.000,182.000" stroke-width="8.736" stroke="#ffffff" fill="none" stroke-linecap="round"></path><path d="M 193.000,182.000 C 195.379,179.597 195.500,179.750 198.000,177.500" stroke-width="8.669" stroke="#ffffff" fill="none" stroke-linecap="round"></path><path d="M 198.000,177.500 C 200.380,175.548 200.379,175.597 203.000,174.000" stroke-width="8.654" stroke="#ffffff" fill="none" stroke-linecap="round"></path><path d="M 203.000,174.000 C 205.977,172.451 205.880,172.298 209.000,171.000" stroke-width="8.676" stroke="#ffffff" fill="none" stroke-linecap="round"></path><path d="M 209.000,171.000 C 212.246,169.491 212.227,169.451 215.500,168.000" stroke-width="8.522" stroke="#ffffff" fill="none" stroke-linecap="round"></path><path d="M 215.500,168.000 C 218.224,166.690 218.246,166.741 221.000,165.500" stroke-width="8.733" stroke="#ffffff" fill="none" stroke-linecap="round"></path><path d="M 221.000,165.500 C 223.471,164.420 223.474,164.440 226.000,163.500" stroke-width="8.848" stroke="#ffffff" fill="none" stroke-linecap="round"></path><path d="M 226.000,163.500 C 228.966,162.385 228.971,162.420 232.000,161.500" stroke-width="8.763" stroke="#ffffff" fill="none" stroke-linecap="round"></path><path d="M 232.000,161.500 C 234.985,160.685 234.966,160.635 238.000,160.000" stroke-width="8.700" stroke="#ffffff" fill="none" stroke-linecap="round"></path><path d="M 238.000,160.000 C 240.500,159.500 240.485,159.435 243.000,159.000" stroke-width="8.931" stroke="#ffffff" fill="none" stroke-linecap="round"></path><path d="M 243.000,159.000 C 245.500,158.500 245.500,158.500 248.000,158.000" stroke-width="8.955" stroke="#ffffff" fill="none" stroke-linecap="round"></path><path d="M 248.000,158.000 C 250.496,157.477 250.500,157.500 253.000,157.000" stroke-width="8.936" stroke="#ffffff" fill="none" stroke-linecap="round"></path><path d="M 253.000,157.000 C 255.735,156.395 255.746,156.477 258.500,156.000" stroke-width="8.876" stroke="#ffffff" fill="none" stroke-linecap="round"></path><path d="M 258.500,156.000 C 260.996,155.700 260.985,155.645 263.500,155.500" stroke-width="8.974" stroke="#ffffff" fill="none" stroke-linecap="round"></path><path d="M 263.500,155.500 C 267.252,155.278 267.246,155.200 271.000,155.000" stroke-width="9.022" stroke="#ffffff" fill="none" stroke-linecap="round"></path><path d="M 271.000,155.000 C 274.013,154.858 274.002,154.778 277.000,154.500" stroke-width="8.802" stroke="#ffffff" fill="none" stroke-linecap="round"></path><path d="M 277.000,154.500 C 280.273,154.121 280.263,154.108 283.500,153.500" stroke-width="8.649" stroke="#ffffff" fill="none" stroke-linecap="round"></path><path d="M 283.500,153.500 C 286.774,152.841 286.773,152.871 290.000,152.000" stroke-width="8.733" stroke="#ffffff" fill="none" stroke-linecap="round"></path><path d="M 290.000,152.000 C 292.539,151.361 292.524,151.341 295.000,150.500" stroke-width="8.874" stroke="#ffffff" fill="none" stroke-linecap="round"></path><path d="M 295.000,150.500 C 300.236,148.854 297.539,149.611 300.000,148.500" stroke-width="9.350" stroke="#ffffff" fill="none" stroke-linecap="round"></path><path d="M 300.000,148.500 C 296.794,148.111 299.736,148.104 294.000,149.000" stroke-width="9.784" stroke="#ffffff" fill="none" stroke-linecap="round"></path><path d="M 294.000,149.000 C 291.424,150.384 291.294,149.861 289.000,152.000" stroke-width="8.231" stroke="#ffffff" fill="none" stroke-linecap="round"></path><path d="M 289.000,152.000 C 282.524,154.117 285.424,154.384 282.000,157.000" stroke-width="8.216" stroke="#ffffff" fill="none" stroke-linecap="round"></path><path d="M 282.000,157.000 C 283.825,161.222 281.524,159.617 287.000,163.000" stroke-width="9.055" stroke="#ffffff" fill="none" stroke-linecap="round"></path><path d="M 287.000,163.000 C 290.737,163.636 290.075,164.722 294.500,164.000" stroke-width="7.533" stroke="#ffffff" fill="none" stroke-linecap="round"></path><path d="M 294.500,164.000 C 298.500,164.250 298.487,164.386 302.500,164.500" stroke-width="7.176" stroke="#ffffff" fill="none" stroke-linecap="round"></path><path d="M 302.500,164.500 C 306.517,165.137 306.500,164.750 310.500,165.000" stroke-width="6.977" stroke="#ffffff" fill="none" stroke-linecap="round"></path><path d="M 310.500,165.000 C 313.960,165.094 313.767,164.887 317.000,164.000" stroke-width="7.224" stroke="#ffffff" fill="none" stroke-linecap="round"></path><path d="M 317.000,164.000 C 319.985,162.223 320.210,162.844 323.000,160.500" stroke-width="8.158" stroke="#ffffff" fill="none" stroke-linecap="round"></path><path d="M 323.000,160.500 C 326.948,158.152 326.985,158.223 331.000,156.000" stroke-width="9.321" stroke="#ffffff" fill="none" stroke-linecap="round"></path><path d="M 331.000,156.000 C 335.115,154.202 334.948,153.902 339.000,152.000" stroke-width="7.266" stroke="#ffffff" fill="none" stroke-linecap="round"></path><path d="M 339.000,152.000 C 342.644,149.941 342.615,149.952 346.000,147.500" stroke-width="7.133" stroke="#ffffff" fill="none" stroke-linecap="round"></path><path d="M 346.000,147.500 C 347.672,145.109 348.144,145.941 350.000,144.000" stroke-width="7.643" stroke="#ffffff" fill="none" stroke-linecap="round"></path><path d="M 350.000,144.000 C 353.215,143.026 352.922,142.609 356.500,142.500" stroke-width="9.190" stroke="#ffffff" fill="none" stroke-linecap="round"></path><path d="M 356.500,142.500 C 362.902,141.296 359.465,142.026 362.500,142.000" stroke-width="8.880" stroke="#ffffff" fill="none" stroke-linecap="round"></path><path d="M 362.500,142.000 C 358.404,143.831 361.902,143.046 354.500,146.000" stroke-width="9.305" stroke="#ffffff" fill="none" stroke-linecap="round"></path><path d="M 354.500,146.000 C 348.355,148.424 351.654,147.581 349.000,149.500" stroke-width="8.831" stroke="#ffffff" fill="none" stroke-linecap="round"></path><path d="M 349.000,149.500 C 353.227,150.715 349.855,150.924 357.500,151.000" stroke-width="9.212" stroke="#ffffff" fill="none" stroke-linecap="round"></path><path d="M 357.500,151.000 C 360.793,151.013 360.727,151.215 364.000,150.500" stroke-width="7.827" stroke="#ffffff" fill="none" stroke-linecap="round"></path><path d="M 364.000,150.500 C 366.985,149.685 367.043,150.013 370.000,149.000" stroke-width="7.659" stroke="#ffffff" fill="none" stroke-linecap="round"></path><path d="M 370.000,149.000 C 374.568,146.920 372.485,148.435 375.000,148.000" stroke-width="7.791" stroke="#ffffff" fill="none" stroke-linecap="round"></path><path d="M 375.000,148.000 C 371.428,152.142 375.568,149.420 372.000,154.000" stroke-width="9.161" stroke="#ffffff" fill="none" stroke-linecap="round"></path><path d="M 372.000,154.000 C 374.557,154.819 372.428,155.392 377.000,154.500" stroke-width="9.764" stroke="#ffffff" fill="none" stroke-linecap="round"></path><path d="M 377.000,154.500 C 380.223,153.404 380.307,154.069 383.500,152.500" stroke-width="7.868" stroke="#ffffff" fill="none" stroke-linecap="round"></path><path d="M 383.500,152.500 C 387.452,151.236 387.473,151.404 391.500,150.500" stroke-width="7.217" stroke="#ffffff" fill="none" stroke-linecap="round"></path><path d="M 391.500,150.500 C 395.742,149.912 395.702,149.736 400.000,149.500" stroke-width="6.878" stroke="#ffffff" fill="none" stroke-linecap="round"></path><path d="M 400.000,149.500 C 403.496,149.135 403.492,149.162 407.000,149.000" stroke-width="7.267" stroke="#ffffff" fill="none" stroke-linecap="round"></path><path d="M 407.000,149.000 C 410.864,147.474 409.996,148.885 413.000,149.000" stroke-width="7.447" stroke="#ffffff" fill="none" stroke-linecap="round"></path><path d="M 413.000,149.000 C 416.393,152.405 416.114,151.224 417.500,156.500" stroke-width="8.566" stroke="#ffffff" fill="none" stroke-linecap="round"></path><path d="M 417.500,156.500 C 417.677,162.004 418.893,161.655 418.000,167.500" stroke-width="6.702" stroke="#ffffff" fill="none" stroke-linecap="round"></path><path d="M 418.000,167.500 C 418.265,174.774 418.427,174.754 419.000,182.000" stroke-width="5.875" stroke="#ffffff" fill="none" stroke-linecap="round"></path><path d="M 419.000,182.000 C 419.930,189.510 419.765,189.524 421.000,197.000" stroke-width="5.475" stroke="#ffffff" fill="none" stroke-linecap="round"></path><path d="M 421.000,197.000 C 422.112,203.485 421.930,203.510 423.000,210.000" stroke-width="5.722" stroke="#ffffff" fill="none" stroke-linecap="round"></path><path d="M 423.000,210.000 C 423.699,214.489 423.612,214.485 424.000,219.000" stroke-width="6.490" stroke="#ffffff" fill="none" stroke-linecap="round"></path><path d="M 424.000,219.000 C 424.522,222.080 424.199,221.989 424.000,225.000" stroke-width="7.331" stroke="#ffffff" fill="none" stroke-linecap="round"></path><path d="M 424.000,225.000 C 423.668,229.748 423.272,229.080 421.500,233.000" stroke-width="7.884" stroke="#ffffff" fill="none" stroke-linecap="round"></path><path d="M 421.500,233.000 C 419.386,234.621 420.168,234.998 417.000,235.500" stroke-width="7.926" stroke="#ffffff" fill="none" stroke-linecap="round"></path><path d="M 417.000,235.500 C 414.518,236.122 414.636,236.371 412.000,236.500" stroke-width="7.872" stroke="#ffffff" fill="none" stroke-linecap="round"></path><path d="M 412.000,236.500 C 409.452,237.245 409.518,236.872 407.000,237.000" stroke-width="7.953" stroke="#ffffff" fill="none" stroke-linecap="round"></path><path d="M 315.500,94.500 C 308.750,94.500 308.750,94.500 302.000,94.500" stroke-width="9.733" stroke="#ffffff" fill="none" stroke-linecap="round"></path><path d="M 302.000,94.500 C 291.500,94.500 291.500,94.500 281.000,94.500" stroke-width="5.638" stroke="#ffffff" fill="none" stroke-linecap="round"></path><path d="M 281.000,94.500 C 265.000,94.500 265.000,94.500 249.000,94.500" stroke-width="3.905" stroke="#ffffff" fill="none" stroke-linecap="round"></path><path d="M 249.000,94.500 C 230.500,94.500 230.500,94.500 212.000,94.500" stroke-width="3.429" stroke="#ffffff" fill="none" stroke-linecap="round"></path><path d="M 212.000,94.500 C 195.750,94.500 195.750,94.500 179.500,94.500" stroke-width="3.516" stroke="#ffffff" fill="none" stroke-linecap="round"></path><path d="M 179.500,94.500 C 168.250,94.500 168.250,94.500 157.000,94.500" stroke-width="4.124" stroke="#ffffff" fill="none" stroke-linecap="round"></path><path d="M 157.000,94.500 C 150.500,94.500 150.500,94.500 144.000,94.500" stroke-width="5.120" stroke="#ffffff" fill="none" stroke-linecap="round"></path></svg>