<svg xmlns="http://www.w3.org/2000/svg" xmlns:xlink="http://www.w3.org/1999/xlink" viewBox="127.373 69.143 301.293 172.992" width="301.293" height="172.992">
<polygon points="0,0 0,340 558,340 558,0" fill="#ffffff00" stroke="none" />
<path d="M 214.500,82.500 C 214.839,85.289 214.500,85.250 214.500,88.000" stroke-width="10.204" stroke="#000000" fill="none" stroke-linecap="round"></path><path d="M 214.500,88.000 C 213.978,91.320 214.089,91.289 213.000,94.500" stroke-width="9.429" stroke="#000000" fill="none" stroke-linecap="round"></path><path d="M 213.000,94.500 C 211.631,97.709 211.978,97.820 210.500,101.000" stroke-width="9.185" stroke="#000000" fill="none" stroke-linecap="round"></path><path d="M 210.500,101.000 C 208.986,105.746 208.881,105.709 207.500,110.500" stroke-width="8.284" stroke="#000000" fill="none" stroke-linecap="round"></path><path d="M 207.500,110.500 C 206.383,113.719 206.486,113.746 205.500,117.000" stroke-width="8.490" stroke="#000000" fill="none" stroke-linecap="round"></path><path d="M 205.500,117.000 C 204.841,120.274 204.633,120.219 204.000,123.500" stroke-width="8.603" stroke="#000000" fill="none" stroke-linecap="round"></path><path d="M 204.000,123.500 C 203.291,126.013 203.341,126.024 202.500,128.500" stroke-width="8.808" stroke="#000000" fill="none" stroke-linecap="round"></path><path d="M 202.500,128.500 C 201.398,131.469 201.541,131.513 200.500,134.500" stroke-width="8.778" stroke="#000000" fill="none" stroke-linecap="round"></path><path d="M 200.500,134.500 C 199.532,138.259 199.398,138.219 198.500,142.000" stroke-width="8.495" stroke="#000000" fill="none" stroke-linecap="round"></path><path d="M 198.500,142.000 C 197.519,145.506 197.532,145.509 196.500,149.000" stroke-width="8.484" stroke="#000000" fill="none" stroke-linecap="round"></path><path d="M 196.500,149.000 C 195.604,151.465 195.769,151.506 195.000,154.000" stroke-width="8.820" stroke="#000000" fill="none" stroke-linecap="round"></path><path d="M 195.000,154.000 C 194.593,156.770 194.354,156.715 194.000,159.500" stroke-width="9.001" stroke="#000000" fill="none" stroke-linecap="round"></path><path d="M 194.000,159.500 C 193.222,162.493 193.343,162.520 192.500,165.500" stroke-width="8.829" stroke="#000000" fill="none" stroke-linecap="round"></path><path d="M 192.500,165.500 C 191.654,168.731 191.722,168.743 191.000,172.000" stroke-width="8.812" stroke="#000000" fill="none" stroke-linecap="round"></path><path d="M 191.000,172.000 C 190.596,175.019 190.404,174.981 190.000,178.000" stroke-width="8.761" stroke="#000000" fill="none" stroke-linecap="round"></path><path d="M 190.000,178.000 C 189.154,181.231 189.346,181.269 188.500,184.500" stroke-width="8.654" stroke="#000000" fill="none" stroke-linecap="round"></path><path d="M 188.500,184.500 C 188.183,187.541 187.904,187.481 187.500,190.500" stroke-width="8.714" stroke="#000000" fill="none" stroke-linecap="round"></path><path d="M 187.500,190.500 C 186.534,194.010 186.683,194.041 185.500,197.500" stroke-width="8.514" stroke="#000000" fill="none" stroke-linecap="round"></path><path d="M 185.500,197.500 C 184.575,200.775 184.534,200.760 183.500,204.000" stroke-width="8.620" stroke="#000000" fill="none" stroke-linecap="round"></path><path d="M 183.500,204.000 C 182.624,206.801 182.575,206.775 181.500,209.500" stroke-width="8.766" stroke="#000000" fill="none" stroke-linecap="round"></path><path d="M 181.500,209.500 C 180.100,212.800 180.124,212.801 178.500,216.000" stroke-width="8.950" stroke="#000000" fill="none" stroke-linecap="round"></path><path d="M 178.500,216.000 C 177.178,218.863 177.100,218.800 175.500,221.500" stroke-width="9.122" stroke="#000000" fill="none" stroke-linecap="round"></path><path d="M 175.500,221.500 C 173.754,224.481 173.678,224.363 171.500,227.000" stroke-width="9.440" stroke="#000000" fill="none" stroke-linecap="round"></path><path d="M 171.500,227.000 C 169.568,229.587 169.504,229.231 167.000,231.000" stroke-width="9.503" stroke="#000000" fill="none" stroke-linecap="round"></path><path d="M 167.000,231.000 C 164.290,232.234 164.568,232.337 161.500,232.500" stroke-width="9.635" stroke="#000000" fill="none" stroke-linecap="round"></path><path d="M 161.500,232.500 C 158.617,233.058 159.040,232.734 156.500,232.000" stroke-width="9.784" stroke="#000000" fill="none" stroke-linecap="round"></path><path d="M 156.500,232.000 C 154.202,230.225 154.117,230.808 152.500,228.000" stroke-width="9.723" stroke="#000000" fill="none" stroke-linecap="round"></path><path d="M 152.500,228.000 C 150.993,225.858 150.952,225.975 150.000,223.500" stroke-width="9.739" stroke="#000000" fill="none" stroke-linecap="round"></path><path d="M 150.000,223.500 C 149.132,221.029 148.993,221.108 148.500,218.500" stroke-width="9.747" stroke="#000000" fill="none" stroke-linecap="round"></path><path d="M 148.500,218.500 C 147.730,216.027 147.882,216.029 147.500,213.500" stroke-width="9.642" stroke="#000000" fill="none" stroke-linecap="round"></path><path d="M 147.500,213.500 C 147.031,210.430 147.230,210.527 147.500,207.500" stroke-width="9.649" stroke="#000000" fill="none" stroke-linecap="round"></path><path d="M 147.500,207.500 C 148.000,204.000 148.031,204.180 149.500,201.000" stroke-width="9.281" stroke="#000000" fill="none" stroke-linecap="round"></path><path d="M 149.500,201.000 C 151.255,198.026 151.000,198.000 153.500,195.500" stroke-width="9.370" stroke="#000000" fill="none" stroke-linecap="round"></path><path d="M 153.500,195.500 C 155.562,193.817 155.255,193.526 157.500,192.000" stroke-width="8.989" stroke="#000000" fill="none" stroke-linecap="round"></path><path d="M 157.500,192.000 C 159.438,189.933 159.562,190.067 161.500,188.000" stroke-width="8.908" stroke="#000000" fill="none" stroke-linecap="round"></path><path d="M 161.500,188.000 C 163.367,186.072 163.438,186.183 165.500,184.500" stroke-width="8.885" stroke="#000000" fill="none" stroke-linecap="round"></path><path d="M 165.500,184.500 C 168.270,182.781 168.117,182.572 171.000,181.000" stroke-width="9.270" stroke="#000000" fill="none" stroke-linecap="round"></path><path d="M 171.000,181.000 C 173.959,178.935 174.020,179.031 177.000,177.000" stroke-width="9.127" stroke="#000000" fill="none" stroke-linecap="round"></path><path d="M 177.000,177.000 C 179.536,175.556 179.459,175.435 182.000,174.000" stroke-width="8.863" stroke="#000000" fill="none" stroke-linecap="round"></path><path d="M 182.000,174.000 C 184.183,172.390 184.286,172.556 186.500,171.000" stroke-width="8.910" stroke="#000000" fill="none" stroke-linecap="round"></path><path d="M 186.500,171.000 C 189.178,169.350 189.183,169.390 192.000,168.000" stroke-width="9.095" stroke="#000000" fill="none" stroke-linecap="round"></path><path d="M 192.000,168.000 C 194.916,166.487 194.928,166.600 198.000,165.500" stroke-width="9.154" stroke="#000000" fill="none" stroke-linecap="round"></path><path d="M 198.000,165.500 C 201.281,164.867 201.166,164.487 204.500,164.000" stroke-width="9.123" stroke="#000000" fill="none" stroke-linecap="round"></path><path d="M 204.500,164.000 C 207.747,162.990 207.781,163.117 211.000,162.000" stroke-width="9.129" stroke="#000000" fill="none" stroke-linecap="round"></path><path d="M 211.000,162.000 C 213.460,161.077 213.497,161.240 216.000,160.500" stroke-width="8.966" stroke="#000000" fill="none" stroke-linecap="round"></path><path d="M 216.000,160.500 C 219.014,160.074 218.960,159.827 222.000,159.500" stroke-width="8.835" stroke="#000000" fill="none" stroke-linecap="round"></path><path d="M 222.000,159.500 C 225.513,158.805 225.514,158.824 229.000,158.000" stroke-width="8.601" stroke="#000000" fill="none" stroke-linecap="round"></path><path d="M 229.000,158.000 C 232.091,157.512 232.013,157.305 235.000,156.500" stroke-width="8.736" stroke="#000000" fill="none" stroke-linecap="round"></path><path d="M 235.000,156.500 C 237.800,155.350 237.841,155.512 240.500,154.000" stroke-width="8.745" stroke="#000000" fill="none" stroke-linecap="round"></path><path d="M 240.500,154.000 C 243.383,152.707 243.300,152.600 246.000,151.000" stroke-width="8.682" stroke="#000000" fill="none" stroke-linecap="round"></path><path d="M 246.000,151.000 C 249.101,148.872 249.133,148.957 252.000,146.500" stroke-width="8.918" stroke="#000000" fill="none" stroke-linecap="round"></path><path d="M 252.000,146.500 C 254.626,144.374 254.601,144.372 257.000,142.000" stroke-width="9.075" stroke="#000000" fill="none" stroke-linecap="round"></path><path d="M 257.000,142.000 C 260.599,137.404 258.876,140.124 260.500,138.000" stroke-width="9.270" stroke="#000000" fill="none" stroke-linecap="round"></path><path d="M 260.500,138.000 C 258.484,141.491 260.349,138.904 256.500,145.000" stroke-width="9.604" stroke="#000000" fill="none" stroke-linecap="round"></path><path d="M 256.500,145.000 C 255.070,147.165 255.234,147.241 254.000,149.500" stroke-width="8.379" stroke="#000000" fill="none" stroke-linecap="round"></path><path d="M 254.000,149.500 C 249.930,154.860 252.320,153.165 251.000,157.000" stroke-width="8.334" stroke="#000000" fill="none" stroke-linecap="round"></path><path d="M 251.000,157.000 C 254.965,158.593 251.930,158.860 258.000,157.500" stroke-width="9.342" stroke="#000000" fill="none" stroke-linecap="round"></path><path d="M 258.000,157.500 C 260.285,153.915 261.215,156.343 263.500,152.500" stroke-width="8.731" stroke="#000000" fill="none" stroke-linecap="round"></path><path d="M 263.500,152.500 C 267.105,152.707 266.535,151.165 270.500,152.000" stroke-width="9.596" stroke="#000000" fill="none" stroke-linecap="round"></path><path d="M 270.500,152.000 C 273.000,151.000 273.105,151.457 275.500,150.000" stroke-width="8.394" stroke="#000000" fill="none" stroke-linecap="round"></path><path d="M 275.500,150.000 C 278.073,149.156 278.000,149.000 280.500,148.000" stroke-width="8.013" stroke="#000000" fill="none" stroke-linecap="round"></path><path d="M 280.500,148.000 C 285.871,145.000 283.323,146.656 286.000,145.000" stroke-width="8.534" stroke="#000000" fill="none" stroke-linecap="round"></path><path d="M 286.000,145.000 C 280.875,146.752 286.121,145.000 281.000,148.000" stroke-width="9.462" stroke="#000000" fill="none" stroke-linecap="round"></path><path d="M 281.000,148.000 C 283.750,150.000 281.125,149.252 286.500,150.000" stroke-width="9.861" stroke="#000000" fill="none" stroke-linecap="round"></path><path d="M 286.500,150.000 C 289.284,149.086 289.250,150.000 292.000,148.000" stroke-width="8.330" stroke="#000000" fill="none" stroke-linecap="round"></path><path d="M 292.000,148.000 C 295.601,146.700 295.534,146.586 299.000,145.000" stroke-width="7.466" stroke="#000000" fill="none" stroke-linecap="round"></path><path d="M 299.000,145.000 C 301.925,143.104 302.101,143.450 305.000,141.500" stroke-width="7.383" stroke="#000000" fill="none" stroke-linecap="round"></path><path d="M 305.000,141.500 C 307.800,140.350 307.675,140.104 310.500,139.000" stroke-width="7.380" stroke="#000000" fill="none" stroke-linecap="round"></path><path d="M 310.500,139.000 C 312.680,137.605 312.800,137.850 315.000,136.500" stroke-width="7.690" stroke="#000000" fill="none" stroke-linecap="round"></path><path d="M 315.000,136.500 C 319.627,133.001 317.930,135.105 321.000,134.000" stroke-width="8.363" stroke="#000000" fill="none" stroke-linecap="round"></path><path d="M 321.000,134.000 C 320.904,137.270 322.377,135.001 320.500,140.500" stroke-width="9.319" stroke="#000000" fill="none" stroke-linecap="round"></path><path d="M 320.500,140.500 C 320.070,143.264 320.154,143.270 319.500,146.000" stroke-width="7.998" stroke="#000000" fill="none" stroke-linecap="round"></path><path d="M 319.500,146.000 C 318.809,149.265 318.820,149.264 318.000,152.500" stroke-width="7.594" stroke="#000000" fill="none" stroke-linecap="round"></path><path d="M 318.000,152.500 C 317.191,155.235 317.309,155.265 316.500,158.000" stroke-width="7.703" stroke="#000000" fill="none" stroke-linecap="round"></path><path d="M 316.500,158.000 C 313.925,164.393 315.691,161.235 315.000,164.500" stroke-width="8.316" stroke="#000000" fill="none" stroke-linecap="round"></path><path d="M 315.000,164.500 C 318.078,161.288 316.425,164.643 321.500,158.500" stroke-width="9.321" stroke="#000000" fill="none" stroke-linecap="round"></path><path d="M 321.500,158.500 C 324.924,155.884 324.828,155.788 328.500,153.500" stroke-width="8.514" stroke="#000000" fill="none" stroke-linecap="round"></path><path d="M 328.500,153.500 C 330.793,151.515 330.924,151.884 333.500,150.500" stroke-width="9.584" stroke="#000000" fill="none" stroke-linecap="round"></path><path d="M 333.500,150.500 C 338.935,148.692 338.793,148.515 344.500,147.500" stroke-width="8.176" stroke="#000000" fill="none" stroke-linecap="round"></path><path d="M 344.500,147.500 C 349.468,146.426 349.435,146.442 354.500,146.000" stroke-width="6.918" stroke="#000000" fill="none" stroke-linecap="round"></path><path d="M 354.500,146.000 C 364.255,145.573 364.218,145.176 374.000,145.000" stroke-width="5.300" stroke="#000000" fill="none" stroke-linecap="round"></path><path d="M 374.000,145.000 C 376.994,144.611 377.005,144.823 380.000,144.500" stroke-width="6.681" stroke="#000000" fill="none" stroke-linecap="round"></path><path d="M 380.000,144.500 C 383.750,144.500 383.744,144.361 387.500,144.500" stroke-width="6.933" stroke="#000000" fill="none" stroke-linecap="round"></path><path d="M 387.500,144.500 C 390.503,144.400 390.500,144.500 393.500,144.500" stroke-width="7.493" stroke="#000000" fill="none" stroke-linecap="round"></path><path d="M 393.500,144.500 C 398.535,143.367 398.003,144.650 402.500,145.000" stroke-width="7.962" stroke="#000000" fill="none" stroke-linecap="round"></path><path d="M 402.500,145.000 C 406.798,147.959 407.035,146.867 410.500,151.500" stroke-width="7.909" stroke="#000000" fill="none" stroke-linecap="round"></path><path d="M 410.500,151.500 C 412.393,153.652 412.548,153.459 414.000,156.000" stroke-width="7.798" stroke="#000000" fill="none" stroke-linecap="round"></path><path d="M 414.000,156.000 C 415.752,158.380 415.643,158.402 417.000,161.000" stroke-width="7.553" stroke="#000000" fill="none" stroke-linecap="round"></path><path d="M 417.000,161.000 C 418.264,163.681 418.252,163.630 419.000,166.500" stroke-width="7.731" stroke="#000000" fill="none" stroke-linecap="round"></path><path d="M 419.000,166.500 C 419.479,169.504 419.764,169.431 420.000,172.500" stroke-width="7.655" stroke="#000000" fill="none" stroke-linecap="round"></path><path d="M 420.000,172.500 C 420.778,175.225 420.479,175.254 421.000,178.000" stroke-width="7.666" stroke="#000000" fill="none" stroke-linecap="round"></path><path d="M 421.000,178.000 C 421.000,181.500 421.278,181.475 421.000,185.000" stroke-width="7.334" stroke="#000000" fill="none" stroke-linecap="round"></path><path d="M 421.000,185.000 C 421.362,189.280 421.000,189.250 421.000,193.500" stroke-width="7.025" stroke="#000000" fill="none" stroke-linecap="round"></path><path d="M 421.000,193.500 C 420.662,198.110 420.612,198.030 419.500,202.500" stroke-width="6.716" stroke="#000000" fill="none" stroke-linecap="round"></path><path d="M 419.500,202.500 C 418.400,206.701 418.412,206.610 416.500,210.500" stroke-width="6.738" stroke="#000000" fill="none" stroke-linecap="round"></path><path d="M 416.500,210.500 C 414.488,214.182 414.650,214.201 412.000,217.500" stroke-width="6.972" stroke="#000000" fill="none" stroke-linecap="round"></path><path d="M 412.000,217.500 C 410.143,220.491 409.988,220.182 407.500,222.500" stroke-width="7.189" stroke="#000000" fill="none" stroke-linecap="round"></path><path d="M 407.500,222.500 C 403.710,225.346 403.893,225.241 399.500,227.000" stroke-width="7.836" stroke="#000000" fill="none" stroke-linecap="round"></path><path d="M 399.500,227.000 C 396.492,228.000 396.710,228.096 393.500,228.000" stroke-width="8.419" stroke="#000000" fill="none" stroke-linecap="round"></path><path d="M 257.000,79.000 C 252.000,79.000 252.000,79.000 247.000,79.000" stroke-width="9.857" stroke="#000000" fill="none" stroke-linecap="round"></path><path d="M 247.000,79.000 C 240.250,79.000 240.250,79.000 233.500,79.000" stroke-width="6.721" stroke="#000000" fill="none" stroke-linecap="round"></path><path d="M 233.500,79.000 C 224.500,79.000 224.500,79.000 215.500,79.000" stroke-width="5.309" stroke="#000000" fill="none" stroke-linecap="round"></path><path d="M 215.500,79.000 C 204.000,79.000 204.000,79.000 192.500,79.000" stroke-width="4.517" stroke="#000000" fill="none" stroke-linecap="round"></path><path d="M 192.500,79.000 C 181.000,79.000 181.000,79.000 169.500,79.000" stroke-width="4.536" stroke="#000000" fill="none" stroke-linecap="round"></path><path d="M 169.500,79.000 C 159.250,79.000 159.250,79.000 149.000,79.000" stroke-width="4.537" stroke="#000000" fill="none" stroke-linecap="round"></path><path d="M 149.000,79.000 C 141.250,79.000 141.250,79.000 133.500,79.000" stroke-width="5.018" stroke="#000000" fill="none" stroke-linecap="round"></path><path d="M 133.500,79.000 C 129.000,79.000 129.000,79.000 124.500,79.000" stroke-width="6.127" stroke="#000000" fill="none" stroke-linecap="round"></path></svg>