<svg version="1.1" viewBox="0.0 0.0 600.0 371.0" fill="none" stroke="none" stroke-linecap="square" stroke-miterlimit="10" width="600" height="371" xmlns:xlink="http://www.w3.org/1999/xlink" xmlns="http://www.w3.org/2000/svg"><path fill="#f3f3f3" d="M0 0L600.0 0L600.0 371.0L0 371.0L0 0Z" fill-rule="nonzero"/><path stroke="#c0c0c0" stroke-width="1.0" stroke-linecap="butt" d="M90.5 25.5L90.5 300.5" fill-rule="nonzero"/><path stroke="#c0c0c0" stroke-width="1.0" stroke-linecap="butt" d="M143.5 25.5L143.5 300.5" fill-rule="nonzero"/><path stroke="#c0c0c0" stroke-width="1.0" stroke-linecap="butt" d="M197.5 25.5L197.5 300.5" fill-rule="nonzero"/><path stroke="#c0c0c0" stroke-width="1.0" stroke-linecap="butt" d="M250.5 25.5L250.5 300.5" fill-rule="nonzero"/><path stroke="#c0c0c0" stroke-width="1.0" stroke-linecap="butt" d="M304.5 25.5L304.5 300.5" fill-rule="nonzero"/><path stroke="#c0c0c0" stroke-width="1.0" stroke-linecap="butt" d="M357.5 25.5L357.5 300.5" fill-rule="nonzero"/><path stroke="#c0c0c0" stroke-width="1.0" stroke-linecap="butt" d="M411.5 25.5L411.5 300.5" fill-rule="nonzero"/><path stroke="#c0c0c0" stroke-width="1.0" stroke-linecap="butt" d="M464.5 25.5L464.5 300.5" fill-rule="nonzero"/><path stroke="#c0c0c0" stroke-width="1.0" stroke-linecap="butt" d="M518.5 25.5L518.5 300.5" fill-rule="nonzero"/><path stroke="#c0c0c0" stroke-width="1.0" stroke-linecap="butt" d="M571.5 25.5L571.5 300.5" fill-rule="nonzero"/><path stroke="#272727" stroke-width="1.0" stroke-linecap="butt" d="M80.5 300.5L581.5 300.5" fill-rule="nonzero"/><path stroke="#c0c0c0" stroke-width="1.0" stroke-linecap="butt" d="M80.5 231.5L581.5 231.5" fill-rule="nonzero"/><path stroke="#c0c0c0" stroke-width="1.0" stroke-linecap="butt" d="M80.5 163.5L581.5 163.5" fill-rule="nonzero"/><path stroke="#c0c0c0" stroke-width="1.0" stroke-linecap="butt" d="M80.5 94.5L581.5 94.5" fill-rule="nonzero"/><path stroke="#c0c0c0" stroke-width="1.0" stroke-linecap="butt" d="M80.5 25.5L581.5 25.5" fill-rule="nonzero"/><clipPath id="id_0"><path d="M80.55 25.55L581.45 25.55L581.45 300.45L80.55 300.45L80.55 25.55Z" clip-rule="nonzero"/></clipPath><path fill="#4285f4" clip-path="url(#id_0)" d="M96.166046 209.76599C96.166046 213.0797 93.47976 215.76599 90.166046 215.76599C86.85234 215.76599 84.166046 213.0797 84.166046 209.76599C84.166046 206.45229 86.85234 203.76599 90.166046 203.76599C93.47976 203.76599 96.166046 206.45229 96.166046 209.76599Z" fill-rule="nonzero"/><path fill="#4285f4" clip-path="url(#id_0)" d="M149.68471 163.69641C149.68471 167.01012 146.99841 169.69641 143.68471 169.69641C140.371 169.69641 137.68471 167.01012 137.68471 163.69641C137.68471 160.3827 140.371 157.69641 143.68471 157.69641C146.99841 157.69641 149.68471 160.3827 149.68471 163.69641Z" fill-rule="nonzero"/><path fill="#4285f4" clip-path="url(#id_0)" d="M203.20335 148.15356C203.20335 151.46727 200.51707 154.15356 197.20335 154.15356C193.88965 154.15356 191.20335 151.46727 191.20335 148.15356C191.20335 144.83986 193.88965 142.15356 197.20335 142.15356C200.51707 142.15356 203.20335 144.83986 203.20335 148.15356Z" fill-rule="nonzero"/><path fill="#4285f4" clip-path="url(#id_0)" d="M256.72202 133.10095C256.72202 136.41467 254.03572 139.10095 250.72202 139.10095C247.40831 139.10095 244.72202 136.41467 244.72202 133.10095C244.72202 129.78725 247.40831 127.10096 250.72202 127.10096C254.03572 127.10096 256.72202 129.78725 256.72202 133.10095Z" fill-rule="nonzero"/><path fill="#4285f4" clip-path="url(#id_0)" d="M310.24066 124.04117C310.24066 127.35488 307.55438 130.04117 304.24066 130.04117C300.92697 130.04117 298.24066 127.35488 298.24066 124.04117C298.24066 120.72746 300.92697 118.04117 304.24066 118.04117C307.55438 118.04117 310.24066 120.72746 310.24066 124.04117Z" fill-rule="nonzero"/><path fill="#4285f4" clip-path="url(#id_0)" d="M363.75934 117.964966C363.75934 121.27867 361.07303 123.964966 357.75934 123.964966C354.44562 123.964966 351.75934 121.27867 351.75934 117.964966C351.75934 114.65126 354.44562 111.964966 357.75934 111.964966C361.07303 111.964966 363.75934 114.65126 363.75934 117.964966Z" fill-rule="nonzero"/><path fill="#4285f4" clip-path="url(#id_0)" d="M417.27798 114.208916C417.27798 117.52262 414.5917 120.208916 411.27798 120.208916C407.96426 120.208916 405.27798 117.52262 405.27798 114.208916C405.27798 110.89521 407.96426 108.208916 411.27798 108.208916C414.5917 108.208916 417.27798 110.89521 417.27798 114.208916Z" fill-rule="nonzero"/><path fill="#4285f4" clip-path="url(#id_0)" d="M470.79663 115.062935C470.79663 118.37665 468.11035 121.062935 464.79663 121.062935C461.48294 121.062935 458.79663 118.37665 458.79663 115.062935C458.79663 111.74923 461.48294 109.062935 464.79663 109.062935C468.11035 109.062935 470.79663 111.74923 470.79663 115.062935Z" fill-rule="nonzero"/><path fill="#4285f4" clip-path="url(#id_0)" d="M524.3153 120.326355C524.3153 123.64007 521.629 126.326355 518.3153 126.326355C515.0016 126.326355 512.3153 123.64007 512.3153 120.326355C512.3153 117.01265 515.0016 114.326355 518.3153 114.326355C521.629 114.326355 524.3153 117.01265 524.3153 120.326355Z" fill-rule="nonzero"/><path fill="#4285f4" clip-path="url(#id_0)" d="M577.8339 144.40302C577.8339 147.71672 575.14764 150.40302 571.8339 150.40302C568.52026 150.40302 565.8339 147.71672 565.8339 144.40302C565.8339 141.08931 568.52026 138.40302 571.8339 138.40302C575.14764 138.40302 577.8339 141.08931 577.8339 144.40302Z" fill-rule="nonzero"/><path fill="#000000" d="M292.32812 349.45L292.32812 340.85626L294.0625 340.85626L294.0625 349.45L292.32812 349.45ZM301.01562 349.45L299.375 349.45L299.375 346.27814Q299.375 345.2625 299.26562 344.96564Q299.17188 344.66876 298.92188 344.5125Q298.6875 344.34064 298.35938 344.34064Q297.92188 344.34064 297.57812 344.575Q297.25 344.8094 297.125 345.2Q297.0 345.59064 297.0 346.6375L297.0 349.45L295.34375 349.45L295.34375 343.23126L296.875 343.23126L296.875 344.1375Q297.6875 343.09064 298.9375 343.09064Q299.46875 343.09064 299.92188 343.29376Q300.375 343.48126 300.60938 343.79376Q300.84375 344.09064 300.92188 344.48126Q301.01562 344.85626 301.01562 345.575L301.01562 349.45ZM307.78125 345.0594L306.17188 345.35626Q306.07812 344.8719 305.78125 344.6375Q305.5 344.3875 305.04688 344.3875Q304.42188 344.3875 304.04688 344.8094Q303.6875 345.23126 303.6875 346.23126Q303.6875 347.34064 304.0625 347.79376Q304.4375 348.2469 305.0625 348.2469Q305.53125 348.2469 305.82812 347.98126Q306.125 347.71564 306.25 347.0594L307.875 347.34064Q307.625 348.45 306.90625 349.02814Q306.1875 349.59064 304.98438 349.59064Q303.625 349.59064 302.8125 348.73126Q302.0 347.8719 302.0 346.34064Q302.0 344.8094 302.8125 343.95Q303.625 343.09064 305.01562 343.09064Q306.15625 343.09064 306.82812 343.575Q307.5 344.0594 307.78125 345.0594ZM308.98438 346.2469Q308.98438 345.4344 309.39062 344.66876Q309.79688 343.8875 310.53125 343.4969Q311.26562 343.09064 312.1875 343.09064Q313.59375 343.09064 314.5 344.0125Q315.40625 344.91876 315.40625 346.325Q315.40625 347.73126 314.48438 348.66876Q313.57812 349.59064 312.20312 349.59064Q311.34375 349.59064 310.5625 349.2Q309.79688 348.8094 309.39062 348.075Q308.98438 347.325 308.98438 346.2469ZM310.67188 346.34064Q310.67188 347.2625 311.10938 347.7625Q311.54688 348.2469 312.1875 348.2469Q312.84375 348.2469 313.26562 347.7625Q313.70312 347.2625 313.70312 346.325Q313.70312 345.41876 313.26562 344.9344Q312.84375 344.4344 312.1875 344.4344Q311.54688 344.4344 311.10938 344.9344Q310.67188 345.41876 310.67188 346.34064ZM316.23438 343.23126L317.75 343.23126L317.75 344.075Q318.57812 343.09064 319.70312 343.09064Q320.29688 343.09064 320.73438 343.34064Q321.17188 343.575 321.45312 344.075Q321.85938 343.575 322.32812 343.34064Q322.8125 343.09064 323.35938 343.09064Q324.03125 343.09064 324.5 343.3719Q324.98438 343.6375 325.21875 344.1844Q325.39062 344.575 325.39062 345.46564L325.39062 349.45L323.75 349.45L323.75 345.8875Q323.75 344.96564 323.57812 344.7Q323.34375 344.34064 322.875 344.34064Q322.53125 344.34064 322.21875 344.5594Q321.92188 344.7625 321.78125 345.16876Q321.64062 345.575 321.64062 346.46564L321.64062 349.45L320.0 349.45L320.0 346.04376Q320.0 345.1375 319.90625 344.8719Q319.82812 344.60626 319.64062 344.48126Q319.45312 344.34064 319.14062 344.34064Q318.76562 344.34064 318.45312 344.5594Q318.15625 344.7625 318.01562 345.15314Q317.89062 345.52814 317.89062 346.41876L317.89062 349.45L316.23438 349.45L316.23438 343.23126ZM330.96875 347.46564L332.60938 347.7469Q332.29688 348.65314 331.60938 349.1219Q330.92188 349.59064 329.90625 349.59064Q328.28125 349.59064 327.5 348.52814Q326.875 347.6844 326.875 346.3875Q326.875 344.84064 327.6875 343.96564Q328.5 343.09064 329.73438 343.09064Q331.125 343.09064 331.92188 344.0125Q332.73438 344.91876 332.6875 346.8094L328.5625 346.8094Q328.59375 347.54376 328.96875 347.95Q329.34375 348.35626 329.92188 348.35626Q330.29688 348.35626 330.5625 348.15314Q330.82812 347.9344 330.96875 347.46564ZM331.0625 345.8094Q331.04688 345.09064 330.6875 344.71564Q330.34375 344.34064 329.82812 344.34064Q329.29688 344.34064 328.9375 344.73126Q328.59375 345.1375 328.59375 345.8094L331.0625 345.8094ZM343.0625 349.45L341.54688 349.45L341.54688 348.52814Q341.15625 349.075 340.64062 349.34064Q340.125 349.59064 339.59375 349.59064Q338.51562 349.59064 337.75 348.73126Q337.0 347.85626 337.0 346.3094Q337.0 344.73126 337.73438 343.91876Q338.48438 343.09064 339.625 343.09064Q340.65625 343.09064 341.42188 343.95L341.42188 340.85626L343.0625 340.85626L343.0625 349.45ZM338.67188 346.2Q338.67188 347.2 338.95312 347.6375Q339.34375 348.29376 340.0625 348.29376Q340.625 348.29376 341.01562 347.8094Q341.42188 347.325 341.42188 346.35626Q341.42188 345.29376 341.03125 344.825Q340.65625 344.34064 340.04688 344.34064Q339.46875 344.34064 339.0625 344.8094Q338.67188 345.27814 338.67188 346.2ZM347.96875 347.46564L349.60938 347.7469Q349.29688 348.65314 348.60938 349.1219Q347.92188 349.59064 346.90625 349.59064Q345.28125 349.59064 344.5 348.52814Q343.875 347.6844 343.875 346.3875Q343.875 344.84064 344.6875 343.96564Q345.5 343.09064 346.73438 343.09064Q348.125 343.09064 348.92188 344.0125Q349.73438 344.91876 349.6875 346.8094L345.5625 346.8094Q345.59375 347.54376 345.96875 347.95Q346.34375 348.35626 346.92188 348.35626Q347.29688 348.35626 347.5625 348.15314Q347.82812 347.9344 347.96875 347.46564ZM348.0625 345.8094Q348.04688 345.09064 347.6875 344.71564Q347.34375 344.34064 346.82812 344.34064Q346.29688 344.34064 345.9375 344.73126Q345.59375 345.1375 345.59375 345.8094L348.0625 345.8094ZM356.78125 345.0594L355.17188 345.35626Q355.07812 344.8719 354.78125 344.6375Q354.5 344.3875 354.04688 344.3875Q353.42188 344.3875 353.04688 344.8094Q352.6875 345.23126 352.6875 346.23126Q352.6875 347.34064 353.0625 347.79376Q353.4375 348.2469 354.0625 348.2469Q354.53125 348.2469 354.82812 347.98126Q355.125 347.71564 355.25 347.0594L356.875 347.34064Q356.625 348.45 355.90625 349.02814Q355.1875 349.59064 353.98438 349.59064Q352.625 349.59064 351.8125 348.73126Q351.0 347.8719 351.0 346.34064Q351.0 344.8094 351.8125 343.95Q352.625 343.09064 354.01562 343.09064Q355.15625 343.09064 355.82812 343.575Q356.5 344.0594 356.78125 345.0594ZM358.35938 342.3875L358.35938 340.85626L360.01562 340.85626L360.01562 342.3875L358.35938 342.3875ZM358.35938 349.45L358.35938 343.23126L360.01562 343.23126L360.01562 349.45L358.35938 349.45ZM361.35938 349.45L361.35938 340.85626L363.01562 340.85626L363.01562 349.45L361.35938 349.45ZM367.96875 347.46564L369.60938 347.7469Q369.29688 348.65314 368.60938 349.1219Q367.92188 349.59064 366.90625 349.59064Q365.28125 349.59064 364.5 348.52814Q363.875 347.6844 363.875 346.3875Q363.875 344.84064 364.6875 343.96564Q365.5 343.09064 366.73438 343.09064Q368.125 343.09064 368.92188 344.0125Q369.73438 344.91876 369.6875 346.8094L365.5625 346.8094Q365.59375 347.54376 365.96875 347.95Q366.34375 348.35626 366.92188 348.35626Q367.29688 348.35626 367.5625 348.15314Q367.82812 347.9344 367.96875 347.46564ZM368.0625 345.8094Q368.04688 345.09064 367.6875 344.71564Q367.34375 344.34064 366.82812 344.34064Q366.29688 344.34064 365.9375 344.73126Q365.59375 345.1375 365.59375 345.8094L368.0625 345.8094Z" fill-rule="nonzero"/><path fill="#000000" d="M29.550013 202.6875L22.409388 202.6875L22.409388 205.23438L20.956263 205.23438L20.956263 198.42188L22.409388 198.42188L22.409388 200.95312L29.550013 200.95312L29.550013 202.6875ZM25.221888 196.40625L24.956263 197.90625Q24.050013 197.65625 23.628138 197.04688Q23.190638 196.42188 23.190638 195.20312Q23.190638 194.10938 23.456263 193.57812Q23.706263 193.03125 24.112513 192.8125Q24.503138 192.59375 25.581263 192.59375L27.503138 192.60938Q28.331263 192.60938 28.721888 192.53125Q29.096888 192.45312 29.550013 192.23438L29.550013 193.85938Q29.378138 193.92188 29.065638 194.01562Q28.909388 194.0625 28.862513 194.07812Q29.284388 194.5 29.487513 194.98438Q29.690638 195.45312 29.690638 196.0Q29.690638 196.96875 29.175013 197.53125Q28.643763 198.07812 27.846888 198.07812Q27.315638 198.07812 26.909388 197.82812Q26.503138 197.5625 26.284388 197.10938Q26.050013 196.65625 25.893763 195.79688Q25.675013 194.65625 25.487513 194.20312L25.331263 194.20312Q24.846888 194.20312 24.643763 194.4375Q24.440638 194.67188 24.440638 195.32812Q24.440638 195.76562 24.612513 196.01562Q24.784388 196.25 25.221888 196.40625ZM26.565638 194.20312Q26.659388 194.51562 26.815638 195.20312Q26.956263 195.89062 27.096888 196.10938Q27.331263 196.42188 27.675013 196.42188Q28.018763 196.42188 28.284388 196.17188Q28.534388 195.90625 28.534388 195.51562Q28.534388 195.0625 28.237513 194.65625Q28.018763 194.35938 27.690638 194.26562Q27.487513 194.20312 26.893763 194.20312L26.565638 194.20312ZM29.550013 190.70312L20.956263 190.70312L20.956263 189.04688L25.518763 189.04688L23.331263 187.125L23.331263 185.09375L25.596888 187.21875L29.550013 184.9375L29.550013 186.71875L26.753138 188.28125L27.550013 189.04688L29.550013 189.04688L29.550013 190.70312ZM27.565638 180.03125L27.846888 178.39062Q28.753138 178.70312 29.221888 179.39062Q29.690638 180.07812 29.690638 181.09375Q29.690638 182.71875 28.628138 183.5Q27.784388 184.125 26.487513 184.125Q24.940638 184.125 24.065638 183.3125Q23.190638 182.5 23.190638 181.26562Q23.190638 179.875 24.112513 179.07812Q25.018763 178.26562 26.909388 178.3125L26.909388 182.4375Q27.643763 182.40625 28.050013 182.03125Q28.456263 181.65625 28.456263 181.07812Q28.456263 180.70312 28.253138 180.4375Q28.034388 180.17188 27.565638 180.03125ZM25.909388 179.9375Q25.190638 179.95312 24.815638 180.3125Q24.440638 180.65625 24.440638 181.17188Q24.440638 181.70312 24.831263 182.0625Q25.237513 182.40625 25.909388 182.40625L25.909388 179.9375ZM27.253138 176.82812L25.612513 176.82812L25.612513 173.59375L27.253138 173.59375L27.253138 176.82812ZM29.550013 168.54688L28.612513 168.54688Q29.112513 168.875 29.409388 169.4375Q29.690638 169.98438 29.690638 170.60938Q29.690638 171.23438 29.425013 171.73438Q29.143763 172.23438 28.643763 172.45312Q28.143763 172.67188 27.268763 172.67188L23.331263 172.67188L23.331263 171.03125L26.190638 171.03125Q27.503138 171.03125 27.800013 170.9375Q28.096888 170.84375 28.268763 170.60938Q28.440638 170.35938 28.440638 170.0Q28.440638 169.57812 28.206263 169.25Q27.971888 168.90625 27.628138 168.78125Q27.284388 168.65625 25.956263 168.65625L23.331263 168.65625L23.331263 167.01562L29.550013 167.01562L29.550013 168.54688ZM23.331263 165.6875L23.331263 164.15625L24.237513 164.15625Q23.768763 163.84375 23.487513 163.34375Q23.190638 162.82812 23.190638 162.20312Q23.190638 161.125 24.034388 160.375Q24.878138 159.60938 26.409388 159.60938Q27.956263 159.60938 28.831263 160.375Q29.690638 161.14062 29.690638 162.21875Q29.690638 162.73438 29.487513 163.15625Q29.284388 163.57812 28.784388 164.03125L31.925013 164.03125L31.925013 165.6875L23.331263 165.6875ZM26.331263 164.0625Q27.378138 164.0625 27.878138 163.64062Q28.378138 163.21875 28.378138 162.625Q28.378138 162.04688 27.925013 161.67188Q27.456263 161.29688 26.409388 161.29688Q25.440638 161.29688 24.971888 161.6875Q24.487513 162.07812 24.487513 162.65625Q24.487513 163.26562 24.956263 163.67188Q25.425013 164.0625 26.331263 164.0625ZM29.550013 154.0625L29.550013 155.70312L23.331263 155.70312L23.331263 154.17188L24.206263 154.17188Q23.581263 153.78125 23.393763 153.46875Q23.190638 153.15625 23.190638 152.76562Q23.190638 152.20312 23.503138 151.67188L24.925013 152.1875Q24.659388 152.60938 24.659388 152.95312Q24.659388 153.3125 24.862513 153.54688Q25.050013 153.78125 25.550013 153.92188Q26.034388 154.0625 27.628138 154.0625L29.550013 154.0625ZM25.221888 149.40625L24.956263 150.90625Q24.050013 150.65625 23.628138 150.04688Q23.190638 149.42188 23.190638 148.20312Q23.190638 147.10938 23.456263 146.57812Q23.706263 146.03125 24.112513 145.8125Q24.503138 145.59375 25.581263 145.59375L27.503138 145.60938Q28.331263 145.60938 28.721888 145.53125Q29.096888 145.45312 29.550013 145.23438L29.550013 146.85938Q29.378138 146.92188 29.065638 147.01562Q28.909388 147.0625 28.862513 147.07812Q29.284388 147.5 29.487513 147.98438Q29.690638 148.45312 29.690638 149.0Q29.690638 149.96875 29.175013 150.53125Q28.643763 151.07812 27.846888 151.07812Q27.315638 151.07812 26.909388 150.82812Q26.503138 150.5625 26.284388 150.10938Q26.050013 149.65625 25.893763 148.79688Q25.675013 147.65625 25.487513 147.20312L25.331263 147.20312Q24.846888 147.20312 24.643763 147.4375Q24.440638 147.67188 24.440638 148.32812Q24.440638 148.76562 24.612513 149.01562Q24.784388 149.25 25.221888 149.40625ZM26.565638 147.20312Q26.659388 147.51562 26.815638 148.20312Q26.956263 148.89062 27.096888 149.10938Q27.331263 149.42188 27.675013 149.42188Q28.018763 149.42188 28.284388 149.17188Q28.534388 148.90625 28.534388 148.51562Q28.534388 148.0625 28.237513 147.65625Q28.018763 147.35938 27.690638 147.26562Q27.487513 147.20312 26.893763 147.20312L26.565638 147.20312ZM23.331263 140.78125L24.643763 140.78125L24.643763 141.90625L27.143763 141.90625Q27.909388 141.90625 28.034388 141.875Q28.159388 141.84375 28.253138 141.73438Q28.331263 141.60938 28.331263 141.45312Q28.331263 141.21875 28.159388 140.79688L29.440638 140.65625Q29.690638 141.21875 29.690638 141.95312Q29.690638 142.39062 29.550013 142.75Q29.393763 143.10938 29.159388 143.28125Q28.909388 143.4375 28.518763 143.51562Q28.221888 143.5625 27.346888 143.5625L24.643763 143.5625L24.643763 144.3125L23.331263 144.3125L23.331263 143.5625L22.096888 143.5625L21.128138 141.90625L23.331263 141.90625L23.331263 140.78125ZM27.565638 136.03125L27.846888 134.39062Q28.753138 134.70312 29.221888 135.39062Q29.690638 136.07812 29.690638 137.09375Q29.690638 138.71875 28.628138 139.5Q27.784388 140.125 26.487513 140.125Q24.940638 140.125 24.065638 139.3125Q23.190638 138.5 23.190638 137.26562Q23.190638 135.875 24.112513 135.07812Q25.018763 134.26562 26.909388 134.3125L26.909388 138.4375Q27.643763 138.40625 28.050013 138.03125Q28.456263 137.65625 28.456263 137.07812Q28.456263 136.70312 28.253138 136.4375Q28.034388 136.17188 27.565638 136.03125ZM25.909388 135.9375Q25.190638 135.95312 24.815638 136.3125Q24.440638 136.65625 24.440638 137.17188Q24.440638 137.70312 24.831263 138.0625Q25.237513 138.40625 25.909388 138.40625L25.909388 135.9375Z" fill-rule="nonzero"/><path fill="#000000" d="M51.05 300.21564Q51.05 298.6844 51.3625 297.7625Q51.675 296.825 52.284374 296.325Q52.909374 295.825 53.846874 295.825Q54.534374 295.825 55.05 296.10626Q55.58125 296.3875 55.925 296.91876Q56.26875 297.4344 56.45625 298.1844Q56.64375 298.9344 56.64375 300.21564Q56.64375 301.73126 56.33125 302.65314Q56.034374 303.575 55.409374 304.09064Q54.8 304.59064 53.846874 304.59064Q52.6125 304.59064 51.89375 303.7Q51.05 302.6375 51.05 300.21564ZM52.128124 300.21564Q52.128124 302.325 52.628124 303.02814Q53.128124 303.73126 53.846874 303.73126Q54.58125 303.73126 55.065624 303.02814Q55.565624 302.325 55.565624 300.21564Q55.565624 298.09064 55.065624 297.40314Q54.58125 296.7 53.83125 296.7Q53.1125 296.7 52.675 297.3094Q52.128124 298.09064 52.128124 300.21564ZM58.64375 304.45L58.64375 303.2469L59.846874 303.2469L59.846874 304.45L58.64375 304.45ZM61.05 300.21564Q61.05 298.6844 61.3625 297.7625Q61.675 296.825 62.284374 296.325Q62.909374 295.825 63.846874 295.825Q64.53438 295.825 65.05 296.10626Q65.58125 296.3875 65.925 296.91876Q66.26875 297.4344 66.45625 298.1844Q66.64375 298.9344 66.64375 300.21564Q66.64375 301.73126 66.33125 302.65314Q66.03438 303.575 65.40938 304.09064Q64.8 304.59064 63.846874 304.59064Q62.6125 304.59064 61.89375 303.7Q61.05 302.6375 61.05 300.21564ZM62.128124 300.21564Q62.128124 302.325 62.628124 303.02814Q63.128124 303.73126 63.846874 303.73126Q64.58125 303.73126 65.06563 303.02814Q65.56563 302.325 65.56563 300.21564Q65.56563 298.09064 65.06563 297.40314Q64.58125 296.7 63.83125 296.7Q63.1125 296.7 62.675 297.3094Q62.128124 298.09064 62.128124 300.21564ZM68.05 300.21564Q68.05 298.6844 68.3625 297.7625Q68.675 296.825 69.28438 296.325Q69.90938 295.825 70.84688 295.825Q71.53438 295.825 72.05 296.10626Q72.58125 296.3875 72.925 296.91876Q73.26875 297.4344 73.45625 298.1844Q73.64375 298.9344 73.64375 300.21564Q73.64375 301.73126 73.33125 302.65314Q73.03438 303.575 72.40938 304.09064Q71.8 304.59064 70.84688 304.59064Q69.6125 304.59064 68.89375 303.7Q68.05 302.6375 68.05 300.21564ZM69.12813 300.21564Q69.12813 302.325 69.62813 303.02814Q70.12813 303.73126 70.84688 303.73126Q71.58125 303.73126 72.06563 303.02814Q72.56563 302.325 72.56563 300.21564Q72.56563 298.09064 72.06563 297.40314Q71.58125 296.7 70.83125 296.7Q70.1125 296.7 69.675 297.3094Q69.12813 298.09064 69.12813 300.21564Z" fill-rule="nonzero"/><path fill="#000000" d="M51.05 231.49063Q51.05 229.95938 51.3625 229.0375Q51.675 228.1 52.284374 227.6Q52.909374 227.1 53.846874 227.1Q54.534374 227.1 55.05 227.38126Q55.58125 227.6625 55.925 228.19376Q56.26875 228.70938 56.45625 229.45938Q56.64375 230.20938 56.64375 231.49063Q56.64375 233.00626 56.33125 233.92813Q56.034374 234.85 55.409374 235.36563Q54.8 235.86563 53.846874 235.86563Q52.6125 235.86563 51.89375 234.975Q51.05 233.9125 51.05 231.49063ZM52.128124 231.49063Q52.128124 233.6 52.628124 234.30313Q53.128124 235.00626 53.846874 235.00626Q54.58125 235.00626 55.065624 234.30313Q55.565624 233.6 55.565624 231.49063Q55.565624 229.36563 55.065624 228.67813Q54.58125 227.975 53.83125 227.975Q53.1125 227.975 52.675 228.58438Q52.128124 229.36563 52.128124 231.49063ZM58.64375 235.725L58.64375 234.52188L59.846874 234.52188L59.846874 235.725L58.64375 235.725ZM66.59688 234.70938L66.59688 235.725L60.909374 235.725Q60.909374 235.35 61.034374 234.99063Q61.253124 234.4125 61.721874 233.85Q62.20625 233.2875 63.1125 232.55313Q64.51875 231.39688 65.00313 230.725Q65.50313 230.05313 65.50313 229.45938Q65.50313 228.83438 65.05 228.4125Q64.59688 227.975 63.878124 227.975Q63.1125 227.975 62.659374 228.42813Q62.20625 228.88126 62.190624 229.69376L61.1125 229.58438Q61.221874 228.36563 61.940624 227.74063Q62.675 227.1 63.909374 227.1Q65.14375 227.1 65.8625 227.7875Q66.58125 228.475 66.58125 229.49063Q66.58125 230.00626 66.3625 230.50626Q66.15938 230.99063 65.65938 231.55313Q65.175 232.1 64.05 233.05313Q63.096874 233.85 62.815624 234.14688Q62.55 234.42813 62.378124 234.70938L66.59688 234.70938ZM68.05 233.475L69.15938 233.38126Q69.28438 234.19376 69.72188 234.6Q70.175 235.00626 70.81563 235.00626Q71.56563 235.00626 72.09688 234.42813Q72.62813 233.85 72.62813 232.9125Q72.62813 232.00626 72.1125 231.49063Q71.6125 230.95938 70.78438 230.95938Q70.28438 230.95938 69.8625 231.19376Q69.45625 231.42813 69.22188 231.7875L68.2375 231.6625L69.06563 227.25626L73.34688 227.25626L73.34688 228.25626L69.90938 228.25626L69.45625 230.56876Q70.22188 230.02188 71.06563 230.02188Q72.19063 230.02188 72.95625 230.80313Q73.7375 231.58438 73.7375 232.81876Q73.7375 233.975 73.06563 234.83438Q72.2375 235.86563 70.81563 235.86563Q69.64375 235.86563 68.89375 235.20938Q68.15938 234.55313 68.05 233.475Z" fill-rule="nonzero"/><path fill="#000000" d="M51.05 162.76562Q51.05 161.23438 51.3625 160.3125Q51.675 159.375 52.284374 158.875Q52.909374 158.375 53.846874 158.375Q54.534374 158.375 55.05 158.65625Q55.58125 158.9375 55.925 159.46875Q56.26875 159.98438 56.45625 160.73438Q56.64375 161.48438 56.64375 162.76562Q56.64375 164.28125 56.33125 165.20312Q56.034374 166.125 55.409374 166.64062Q54.8 167.14062 53.846874 167.14062Q52.6125 167.14062 51.89375 166.25Q51.05 165.1875 51.05 162.76562ZM52.128124 162.76562Q52.128124 164.875 52.628124 165.57812Q53.128124 166.28125 53.846874 166.28125Q54.58125 166.28125 55.065624 165.57812Q55.565624 164.875 55.565624 162.76562Q55.565624 160.64062 55.065624 159.95312Q54.58125 159.25 53.83125 159.25Q53.1125 159.25 52.675 159.85938Q52.128124 160.64062 52.128124 162.76562ZM58.64375 167.0L58.64375 165.79688L59.846874 165.79688L59.846874 167.0L58.64375 167.0ZM61.05 164.75L62.159374 164.65625Q62.284374 165.46875 62.721874 165.875Q63.175 166.28125 63.815624 166.28125Q64.56563 166.28125 65.09688 165.70312Q65.62813 165.125 65.62813 164.1875Q65.62813 163.28125 65.1125 162.76562Q64.6125 162.23438 63.784374 162.23438Q63.284374 162.23438 62.8625 162.46875Q62.45625 162.70312 62.221874 163.0625L61.2375 162.9375L62.065624 158.53125L66.34688 158.53125L66.34688 159.53125L62.909374 159.53125L62.45625 161.84375Q63.221874 161.29688 64.06563 161.29688Q65.19063 161.29688 65.95625 162.07812Q66.7375 162.85938 66.7375 164.09375Q66.7375 165.25 66.06563 166.10938Q65.2375 167.14062 63.815624 167.14062Q62.64375 167.14062 61.89375 166.48438Q61.159374 165.82812 61.05 164.75ZM68.05 162.76562Q68.05 161.23438 68.3625 160.3125Q68.675 159.375 69.28438 158.875Q69.90938 158.375 70.84688 158.375Q71.53438 158.375 72.05 158.65625Q72.58125 158.9375 72.925 159.46875Q73.26875 159.98438 73.45625 160.73438Q73.64375 161.48438 73.64375 162.76562Q73.64375 164.28125 73.33125 165.20312Q73.03438 166.125 72.40938 166.64062Q71.8 167.14062 70.84688 167.14062Q69.6125 167.14062 68.89375 166.25Q68.05 165.1875 68.05 162.76562ZM69.12813 162.76562Q69.12813 164.875 69.62813 165.57812Q70.12813 166.28125 70.84688 166.28125Q71.58125 166.28125 72.06563 165.57812Q72.56563 164.875 72.56563 162.76562Q72.56563 160.64062 72.06563 159.95312Q71.58125 159.25 70.83125 159.25Q70.1125 159.25 69.675 159.85938Q69.12813 160.64062 69.12813 162.76562Z" fill-rule="nonzero"/><path fill="#000000" d="M51.05 94.04063Q51.05 92.50938 51.3625 91.5875Q51.675 90.65 52.284374 90.15Q52.909374 89.65 53.846874 89.65Q54.534374 89.65 55.05 89.93125Q55.58125 90.2125 55.925 90.74375Q56.26875 91.25938 56.45625 92.00938Q56.64375 92.75938 56.64375 94.04063Q56.64375 95.55625 56.33125 96.47813Q56.034374 97.4 55.409374 97.91563Q54.8 98.41563 53.846874 98.41563Q52.6125 98.41563 51.89375 97.525Q51.05 96.4625 51.05 94.04063ZM52.128124 94.04063Q52.128124 96.15 52.628124 96.85313Q53.128124 97.55625 53.846874 97.55625Q54.58125 97.55625 55.065624 96.85313Q55.565624 96.15 55.565624 94.04063Q55.565624 91.91563 55.065624 91.22813Q54.58125 90.525 53.83125 90.525Q53.1125 90.525 52.675 91.13438Q52.128124 91.91563 52.128124 94.04063ZM58.64375 98.275L58.64375 97.07188L59.846874 97.07188L59.846874 98.275L58.64375 98.275ZM61.1125 90.80625L61.1125 89.79063L66.675 89.79063L66.675 90.61875Q65.8625 91.49375 65.05 92.94688Q64.25313 94.38438 63.815624 95.91563Q63.4875 96.99375 63.409374 98.275L62.315624 98.275Q62.33125 97.25938 62.70625 95.82188Q63.096874 94.38438 63.8 93.05625Q64.51875 91.72813 65.33125 90.80625L61.1125 90.80625ZM68.05 96.025L69.15938 95.93125Q69.28438 96.74375 69.72188 97.15Q70.175 97.55625 70.81563 97.55625Q71.56563 97.55625 72.09688 96.97813Q72.62813 96.4 72.62813 95.4625Q72.62813 94.55625 72.1125 94.04063Q71.6125 93.50938 70.78438 93.50938Q70.28438 93.50938 69.8625 93.74375Q69.45625 93.97813 69.22188 94.3375L68.2375 94.2125L69.06563 89.80625L73.34688 89.80625L73.34688 90.80625L69.90938 90.80625L69.45625 93.11875Q70.22188 92.57188 71.06563 92.57188Q72.19063 92.57188 72.95625 93.35313Q73.7375 94.13438 73.7375 95.36875Q73.7375 96.525 73.06563 97.38438Q72.2375 98.41563 70.81563 98.41563Q69.64375 98.41563 68.89375 97.75938Q68.15938 97.10313 68.05 96.025Z" fill-rule="nonzero"/><path fill="#000000" d="M55.01875 29.55L53.971874 29.55L53.971874 22.83125Q53.58125 23.190624 52.95625 23.565624Q52.346874 23.925 51.8625 24.096874L51.8625 23.08125Q52.7375 22.659374 53.39375 22.08125Q54.065624 21.4875 54.346874 20.925L55.01875 20.925L55.01875 29.55ZM58.64375 29.55L58.64375 28.346874L59.846874 28.346874L59.846874 29.55L58.64375 29.55ZM61.05 25.315624Q61.05 23.784374 61.3625 22.8625Q61.675 21.925 62.284374 21.425Q62.909374 20.925 63.846874 20.925Q64.53438 20.925 65.05 21.20625Q65.58125 21.4875 65.925 22.01875Q66.26875 22.534374 66.45625 23.284374Q66.64375 24.034374 66.64375 25.315624Q66.64375 26.83125 66.33125 27.753124Q66.03438 28.675 65.40938 29.190624Q64.8 29.690624 63.846874 29.690624Q62.6125 29.690624 61.89375 28.8Q61.05 27.7375 61.05 25.315624ZM62.128124 25.315624Q62.128124 27.425 62.628124 28.128124Q63.128124 28.83125 63.846874 28.83125Q64.58125 28.83125 65.06563 28.128124Q65.56563 27.425 65.56563 25.315624Q65.56563 23.190624 65.06563 22.503124Q64.58125 21.8 63.83125 21.8Q63.1125 21.8 62.675 22.409374Q62.128124 23.190624 62.128124 25.315624ZM68.05 25.315624Q68.05 23.784374 68.3625 22.8625Q68.675 21.925 69.28438 21.425Q69.90938 20.925 70.84688 20.925Q71.53438 20.925 72.05 21.20625Q72.58125 21.4875 72.925 22.01875Q73.26875 22.534374 73.45625 23.284374Q73.64375 24.034374 73.64375 25.315624Q73.64375 26.83125 73.33125 27.753124Q73.03438 28.675 72.40938 29.190624Q71.8 29.690624 70.84688 29.690624Q69.6125 29.690624 68.89375 28.8Q68.05 27.7375 68.05 25.315624ZM69.12813 25.315624Q69.12813 27.425 69.62813 28.128124Q70.12813 28.83125 70.84688 28.83125Q71.58125 28.83125 72.06563 28.128124Q72.56563 27.425 72.56563 25.315624Q72.56563 23.190624 72.06563 22.503124Q71.58125 21.8 70.83125 21.8Q70.1125 21.8 69.675 22.409374Q69.12813 23.190624 69.12813 25.315624Z" fill-rule="nonzero"/><path fill="#000000" d="M91.134796 317.45L90.08792 317.45L90.08792 310.73126Q89.697296 311.09064 89.072296 311.46564Q88.46292 311.825 87.978546 311.9969L87.978546 310.98126Q88.853546 310.5594 89.509796 309.98126Q90.18167 309.3875 90.46292 308.825L91.134796 308.825L91.134796 317.45Z" fill-rule="nonzero"/><path fill="#000000" d="M146.23158 316.4344L146.23158 317.45L140.54408 317.45Q140.54408 317.075 140.66908 316.71564Q140.88783 316.1375 141.35658 315.575Q141.84096 315.0125 142.74721 314.27814Q144.15346 313.1219 144.63783 312.45Q145.13783 311.77814 145.13783 311.1844Q145.13783 310.5594 144.68471 310.1375Q144.23158 309.7 143.51283 309.7Q142.74721 309.7 142.29408 310.15314Q141.84096 310.60626 141.82533 311.41876L140.74721 311.3094Q140.85658 310.09064 141.57533 309.46564Q142.30971 308.825 143.54408 308.825Q144.77846 308.825 145.49721 309.5125Q146.21596 310.2 146.21596 311.21564Q146.21596 311.73126 145.99721 312.23126Q145.79408 312.71564 145.29408 313.27814Q144.80971 313.825 143.68471 314.77814Q142.73158 315.575 142.45033 315.8719Q142.18471 316.15314 142.01283 316.4344L146.23158 316.4344Z" fill-rule="nonzero"/><path fill="#000000" d="M194.20335 315.1844L195.26585 315.04376Q195.43773 315.9344 195.87523 316.34064Q196.31273 316.73126 196.93773 316.73126Q197.68773 316.73126 198.20335 316.21564Q198.71898 315.7 198.71898 314.9344Q198.71898 314.21564 198.2346 313.7469Q197.76585 313.2625 197.03148 313.2625Q196.7346 313.2625 196.28148 313.3875L196.40648 312.45Q196.51585 312.46564 196.57835 312.46564Q197.25023 312.46564 197.78148 312.1219Q198.32835 311.7625 198.32835 311.02814Q198.32835 310.45 197.93773 310.075Q197.5471 309.6844 196.9221 309.6844Q196.31273 309.6844 195.89085 310.075Q195.4846 310.46564 195.37523 311.23126L194.31273 311.04376Q194.50023 309.9969 195.18773 309.41876Q195.87523 308.825 196.89085 308.825Q197.59398 308.825 198.18773 309.1375Q198.78148 309.4344 199.09398 309.95Q199.40648 310.46564 199.40648 311.0594Q199.40648 311.60626 199.1096 312.075Q198.81273 312.52814 198.2346 312.79376Q198.9846 312.96564 199.40648 313.52814Q199.82835 314.075 199.82835 314.91876Q199.82835 316.04376 199.00023 316.825Q198.18773 317.60626 196.93773 317.60626Q195.81273 317.60626 195.06273 316.9344Q194.31273 316.2469 194.20335 315.1844Z" fill-rule="nonzero"/><path fill="#000000" d="M251.09702 317.45L251.09702 315.3875L247.37827 315.3875L247.37827 314.41876L251.30014 308.85626L252.15952 308.85626L252.15952 314.41876L253.31577 314.41876L253.31577 315.3875L252.15952 315.3875L252.15952 317.45L251.09702 317.45ZM251.09702 314.41876L251.09702 310.5594L248.40952 314.41876L251.09702 314.41876Z" fill-rule="nonzero"/><path fill="#000000" d="M301.24066 315.2L302.35004 315.10626Q302.47504 315.91876 302.91254 316.325Q303.36566 316.73126 304.0063 316.73126Q304.7563 316.73126 305.28754 316.15314Q305.8188 315.575 305.8188 314.6375Q305.8188 313.73126 305.30316 313.21564Q304.80316 312.6844 303.97504 312.6844Q303.47504 312.6844 303.05316 312.91876Q302.6469 313.15314 302.41254 313.5125L301.42816 313.3875L302.2563 308.98126L306.53754 308.98126L306.53754 309.98126L303.10004 309.98126L302.6469 312.29376Q303.41254 311.7469 304.2563 311.7469Q305.3813 311.7469 306.1469 312.52814Q306.92816 313.3094 306.92816 314.54376Q306.92816 315.7 306.2563 316.5594Q305.42816 317.59064 304.0063 317.59064Q302.8344 317.59064 302.0844 316.9344Q301.35004 316.27814 301.24066 315.2Z" fill-rule="nonzero"/><path fill="#000000" d="M360.2281 310.96564L359.1812 311.04376Q359.0406 310.41876 358.7906 310.1375Q358.3531 309.6844 357.7281 309.6844Q357.2281 309.6844 356.83746 309.96564Q356.3531 310.34064 356.0562 311.04376Q355.77496 311.73126 355.75934 313.0125Q356.13434 312.4344 356.6812 312.15314Q357.2437 311.8719 357.8531 311.8719Q358.89996 311.8719 359.63434 312.65314Q360.38434 313.4344 360.38434 314.65314Q360.38434 315.46564 360.02496 316.16876Q359.6812 316.85626 359.07184 317.23126Q358.46246 317.59064 357.69684 317.59064Q356.3687 317.59064 355.5406 316.6219Q354.71246 315.65314 354.71246 313.4344Q354.71246 310.9344 355.63434 309.8094Q356.4312 308.825 357.7906 308.825Q358.8062 308.825 359.44684 309.40314Q360.1031 309.96564 360.2281 310.96564ZM355.9312 314.66876Q355.9312 315.21564 356.14996 315.71564Q356.38434 316.2 356.7906 316.46564Q357.21246 316.73126 357.6812 316.73126Q358.33746 316.73126 358.82184 316.2Q359.3062 315.65314 359.3062 314.73126Q359.3062 313.84064 358.82184 313.325Q358.3531 312.8094 357.63434 312.8094Q356.9156 312.8094 356.4156 313.325Q355.9312 313.84064 355.9312 314.66876Z" fill-rule="nonzero"/><path fill="#000000" d="M408.34048 309.98126L408.34048 308.96564L413.90298 308.96564L413.90298 309.79376Q413.09048 310.66876 412.27798 312.1219Q411.4811 313.5594 411.0436 315.09064Q410.71548 316.16876 410.63736 317.45L409.5436 317.45Q409.55923 316.4344 409.93423 314.9969Q410.32486 313.5594 411.02798 312.23126Q411.74673 310.90314 412.55923 309.98126L408.34048 309.98126Z" fill-rule="nonzero"/><path fill="#000000" d="M463.42163 312.79376Q462.76538 312.54376 462.43726 312.10626Q462.12476 311.65314 462.12476 311.04376Q462.12476 310.10626 462.79663 309.46564Q463.48413 308.825 464.5935 308.825Q465.7185 308.825 466.406 309.48126Q467.0935 310.1375 467.0935 311.075Q467.0935 311.66876 466.781 312.10626Q466.4685 312.54376 465.82788 312.79376Q466.62476 313.04376 467.031 313.6219Q467.43726 314.2 467.43726 314.9969Q467.43726 316.09064 466.656 316.84064Q465.89038 317.59064 464.60913 317.59064Q463.3435 317.59064 462.56226 316.84064Q461.781 316.09064 461.781 314.96564Q461.781 314.1219 462.20288 313.5594Q462.64038 312.9969 463.42163 312.79376ZM463.20288 310.9969Q463.20288 311.60626 463.5935 311.9969Q463.99976 312.3875 464.62476 312.3875Q465.23413 312.3875 465.62476 312.0125Q466.01538 311.6219 466.01538 311.0594Q466.01538 310.48126 465.60913 310.09064Q465.20288 309.6844 464.60913 309.6844Q463.99976 309.6844 463.5935 310.075Q463.20288 310.46564 463.20288 310.9969ZM462.87476 314.96564Q462.87476 315.41876 463.07788 315.84064Q463.29663 316.2625 463.7185 316.4969Q464.14038 316.73126 464.62476 316.73126Q465.37476 316.73126 465.85913 316.2469Q466.35913 315.7625 466.35913 315.0125Q466.35913 314.2469 465.85913 313.7469Q465.35913 313.2469 464.5935 313.2469Q463.8435 313.2469 463.35913 313.7469Q462.87476 314.23126 462.87476 314.96564Z" fill-rule="nonzero"/><path fill="#000000" d="M515.47156 315.46564L516.4872 315.3719Q516.6122 316.09064 516.97156 316.41876Q517.34656 316.73126 517.90906 316.73126Q518.39343 316.73126 518.7528 316.5125Q519.1278 316.27814 519.3622 315.91876Q519.59656 315.54376 519.7528 314.91876Q519.90906 314.27814 519.90906 313.6219Q519.90906 313.54376 519.90906 313.40314Q519.59656 313.90314 519.0497 314.23126Q518.5028 314.54376 517.8622 314.54376Q516.78406 314.54376 516.0497 313.77814Q515.3153 312.9969 515.3153 311.73126Q515.3153 310.41876 516.08093 309.6219Q516.8622 308.825 518.01843 308.825Q518.84656 308.825 519.53406 309.27814Q520.2372 309.73126 520.59656 310.575Q520.95593 311.40314 520.95593 312.98126Q520.95593 314.6219 520.59656 315.60626Q520.2528 316.575 519.53406 317.09064Q518.83093 317.59064 517.89343 317.59064Q516.8778 317.59064 516.2372 317.04376Q515.59656 316.48126 515.47156 315.46564ZM519.78406 311.66876Q519.78406 310.7625 519.2997 310.23126Q518.83093 309.7 518.14343 309.7Q517.4403 309.7 516.90906 310.27814Q516.39343 310.84064 516.39343 311.7625Q516.39343 312.575 516.89343 313.09064Q517.39343 313.60626 518.1122 313.60626Q518.84656 313.60626 519.3153 313.09064Q519.78406 312.575 519.78406 311.66876Z" fill-rule="nonzero"/><path fill="#000000" d="M569.3027 317.45L568.2558 317.45L568.2558 310.73126Q567.8652 311.09064 567.2402 311.46564Q566.6308 311.825 566.1464 311.9969L566.1464 310.98126Q567.0214 310.5594 567.6777 309.98126Q568.34955 309.3875 568.6308 308.825L569.3027 308.825L569.3027 317.45ZM572.3339 313.21564Q572.3339 311.6844 572.6464 310.7625Q572.9589 309.825 573.5683 309.325Q574.1933 308.825 575.1308 308.825Q575.8183 308.825 576.3339 309.10626Q576.8652 309.3875 577.2089 309.91876Q577.5527 310.4344 577.7402 311.1844Q577.9277 311.9344 577.9277 313.21564Q577.9277 314.73126 577.6152 315.65314Q577.3183 316.575 576.6933 317.09064Q576.0839 317.59064 575.1308 317.59064Q573.8964 317.59064 573.1777 316.7Q572.3339 315.6375 572.3339 313.21564ZM573.41205 313.21564Q573.41205 315.325 573.91205 316.02814Q574.41205 316.73126 575.1308 316.73126Q575.8652 316.73126 576.34955 316.02814Q576.84955 315.325 576.84955 313.21564Q576.84955 311.09064 576.34955 310.40314Q575.8652 309.7 575.1152 309.7Q574.3964 309.7 573.9589 310.3094Q573.41205 311.09064 573.41205 313.21564Z" fill-rule="nonzero"/></svg>